<?xml version="1.0" encoding="UTF-8"?>
<svg id="Layer_2" data-name="Layer 2" xmlns="http://www.w3.org/2000/svg" viewBox="0 0 52.02 24.74">
  <defs>
    <style>
      .cls-1 {
        fill: #d7d7d7;
      }

      .cls-1, .cls-2, .cls-3 {
        stroke-width: 0px;
      }

      .cls-2 {
        fill: #b5b5b5;
      }

      .cls-3 {
        fill: #e9e9e9;
      }
    </style>
  </defs>
  <g id="Layer_1-2" data-name="Layer 1">
    <g>
      <path class="cls-3" d="M17.62,5.24c-.09-.12-.32-.12-.48-.12-.7,0-2.19-.02-2.91-.03-.23-.04-.63.11-.78-.1-.02-.06,0-.14.12-.21.25-.13.48-.12.8-.13.46,0,.89-.05,1.33.03.57.1,1.44.66,1.85.05.04-.24-.74-.09-.67-.3.15-.16.47-.23.56-.43,0-.38-1.56.13-1.88.14-.87.2-.71-.29-.13-.51.49-.19,1.22.01,1.7-.19.35-.25-.39-.36-.61-.33-.64,0-1.51,0-2.07,0-.39-.05-.88.14-1.24.06-.22-.17.2-.45.4-.48.22-.14,3.83.22,2.89-.35-.15-.2-2.15.06-1.56-.37.13-.11.72-.38.48-.56-.47-.08-1.28.43-1.78.61-.46.17-.82.75-1.21.94-.21.09-.28-.16-.19-.36.22-.42,1.19-.79,1.62-1.1.27-.18.59-.28.69-.52.02-.17-.2-.16-.32-.13-.69.3-1.62.89-2.26,1.29-.44.39-.08,1.11-.45,1.57-.06.17-1.04,1.15-.78.55.66-1.01.64-.76.75-1.99.02-.54,1.81-1.56,1.51-1.92-.41-.03-.7.41-1.01.64-.18.17-.57.33-.38-.09.04-.18.49-.65.26-.75-.3.04-.62.36-.74.64-.17.45-.07,1.09-.1,1.59,0,.29,0,.59-.13.81-.31.46-.39-.04-.36-.34,0-.71,0-1.83,0-2.49.02-.25-.22-.57-.36-.2-.09.76-.01,1.86-.04,2.65.05.67-.24.76-.44.2-.19-.73.17-1.82-.3-2.46-.09-.17-.77-.68-.65-.21.11.23.74,1.17,0,.7-.34-.23-.62-.69-1.06-.7-.42.21,1.34,1.39,1.42,1.74.19.4.04.93.27,1.34.14.28.41.55.54.82.26.61-.71-.36-.77-.54-.3-.4-.11-.97-.3-1.4-.1-.18-.3-.28-.48-.39-.51-.29-1.2-.71-1.76-1.01-.25-.11-.5-.15-.49.07.11.24.43.35.7.53.25.14.52.3.77.45.34.22.62.29.81.6.12.22.05.5-.18.4-.27-.13-.59-.56-.87-.75-.28-.2-.62-.32-.95-.46-.39-.13-.93-.51-1.22-.29.02.42,1.41.71.1.77-.36.01-.81-.03-1.11.1-.33.16-.08.33.17.32.62.01,1.63,0,2.27,0,.24,0,.49,0,.68.13.61.52-.21.4-.55.34-.88-.04-1.96-.03-2.93-.02-.35.03-.52.23-.23.35.31.11.8.05,1.15.07.68-.06,1.62.84.33.59-.29-.01-2.04-.55-1.83-.08.09.1.28.2.4.27.2.11.2.2-.03.22-.18.04-.39.02-.49.13-.04.17.23.3.41.33.69.06,1.25-.42,1.96-.36.33.05,1.78-.13,1.72.36-.16.19-.55.06-.78.09-.91.07-2.45-.09-3.33.11-.57.63,2.57.16,2.84.39.19.06,1.37.92.78.98-.89-.1-1.74-.82-2.68-.75-.28-.04-1.26.12-.59.37.29.08.62.04.93.07.9.11,1.74.82,2.68.79,1.16,0,1.36-.15,2.15.8.67.59.42,1.2.63,1.92.17.43.88.41,1.02-.04.11-.34.07-.74.14-1.09.07-.45.48-.79.78-1.12.31-.4.7-.51,1.2-.48.37,0,.81.03,1.16-.04.7-.17,1.47-.66,2.19-.75.2-.02,1.42,0,1.07-.32-.57-.22-1.3-.14-1.87.1-.54.17-1.11.56-1.65.52-.26-.17.34-.6.51-.74.31-.29.68-.32,1.09-.3.37,0,.77,0,1.15.01.37-.01,1.12.09,1.01-.29h0ZM9.7,7.49c-.16.12-.57-.42-.7-.53-.11-.11-.23-.21-.38-.27-.22-.09-.43-.07-.65-.15-.1-.04-.19-.09-.28-.15-.12-.09-1.13-.85-.76-.92.16-.03.34.01.56.06.21.05.43.1.62.19.19.09.31.23.46.39.11.11.23.24.34.36.09.1.18.19.28.29.18.2.58.54.52.74h0ZM9.92,6.66c-.1.19-.25.02-.41-.13-.15-.15-.35-.37-.57-.6-.25-.26-.5-.53-.74-.78-.1-.11-.22-.21-.26-.35-.03-.11.11-.17.27-.17.2,0,.38.13.51.27.26.28.55.61.82.9.2.22.53.56.39.85h0ZM10.06,5.52c-.13.18-.5-.31-.65-.46-.14-.16-.29-.32-.4-.45-.17-.19-.35-.33-.6-.35-.32-.03-.69-.02-1.02-.03-.39,0-.68-.1-.96-.36-.28-.26-.13-.4.2-.39.29.02.49.09.85.18.31.08.64.17.94.25.24.07.41.1.59.24.18.14.34.33.5.5.21.25.62.59.56.86h0ZM10.61,5.52c-.06-.27.35-.61.56-.86.16-.17.32-.36.5-.5.18-.14.36-.18.59-.24.3-.08.63-.17.94-.25.36-.09.56-.16.85-.18.2-.01.48.06.28.3-.12.15-.3.27-.47.34-.16.07-.34.09-.56.1-.3.01-.65,0-.94.03-.31,0-.49.12-.69.36-.12.13-.26.29-.4.45-.15.15-.51.63-.65.46h0ZM10.83,6.74c-.09-.04-.11-.17-.1-.27.03-.27.18-.4.39-.64.22-.24.45-.5.67-.74.23-.27.53-.59.89-.42.05.03.09.07.07.14-.02.09-.19.27-.32.4-.14.15-.32.34-.51.53l-.59.62c-.16.16-.37.42-.49.38h0ZM13.82,5.56c-.05.15-.24.32-.38.44-.19.16-.38.35-.6.47-.25.14-.53.11-.79.22-.21.09-.37.26-.52.43-.08.1-.48.52-.55.35,0-.24.39-.56.59-.79.25-.25.51-.55.76-.79.14-.13.3-.21.48-.26.16-.04,1.07-.33,1.03-.07h0Z"/>
      <path class="cls-3" d="M2.94,11.11s.02-.02.03-.03c.85-1.3,1.84-1.27,2.42-.96.1.06.07.21-.04.23-.01,0-.03,0-.04,0-.13.03-.13.22,0,.24.69.1,1.7.5,1.76,2.43.13,1.39-.39,2.59-.74,3.51,0,0,0,0,0,.01-.32.61-.28,1.33-.19,1.81.02.13-.15.2-.22.08-.37-.61-.44-1.31-.11-2.38.41-1.33,1.12-3.12-.35-4.28-.06-.04-.14-.03-.18.03-.06.09-.13.2-.18.27-.03.05-.02.12.02.15.97.87.5,1.99.11,3.37-.86,3.07.3,5.21,1.12,6.38.08.11-.05.24-.16.17-.82-.49-2.45-1.76-2.66-4.28-.11-1.35,1.01-2.17,1.32-4.36,0-.06-.03-.12-.09-.13-.08-.02-.16-.04-.23-.06-.07-.02-.14.02-.15.09-.33,1.47-1.51,2.86-1.46,4.39.04,1.13,0,1.72,1.65,3.74.08.1-.04.25-.15.18-.78-.44-1.88-1.28-2.25-3.33-.03-.15-.25-.12-.24.03,0,.06,0,.12,0,.17,0,.14-.18.18-.23.05-.34-.86-.5-1.91.38-3.86.36-.78,1.51-1.79,1.8-2.56.02-.06,0-.12-.06-.15l-.19-.09c-.05-.03-.12-.01-.15.04-.49.74-1.17,1.16-1.65,1.92-1.61,2.58-1.2,3.92.16,6.22.07.12-.08.24-.18.15-3.63-3.12-1.1-7.69,1.11-9.2Z"/>
      <path class="cls-1" d="M4.13,9.48c.03.1-.1.52-.48.19-1.72-1.48-1.3-3.02.64-2.9.1,0,.18.13.11.21-.92.98-.37,2.22-.27,2.5Z"/>
      <path class="cls-3" d="M11.51,21.98c-.46.1-.8.1-1.16.09,0,0-.01,0-.02,0-.36.02-.7.02-1.16-.09-.28-.06-.7-.17-1.22-.42-.18-.09-.39.05-.37.25.24,2.67,2.56,2.61,2.75,2.6,0,0,.02,0,.02,0,.19,0,2.51.07,2.75-2.6.02-.2-.19-.34-.37-.25-.51.25-.93.35-1.22.42Z"/>
      <circle class="cls-1" cx="13.12" cy="8.61" r=".64"/>
      <circle class="cls-1" cx="7.64" cy="8.61" r=".64"/>
      <g>
        <path class="cls-3" d="M14.81,7.98c-.16-.02-.25-.02-.41-.02-.09,0-.16.05-.21.11-.03-.01-.06-.02-.09-.01-.03,0-.04,0-.07,0-.1.01-.16.1-.14.2.02.09.1.15.19.14.03,0,.04,0,.06,0,.03,0,.05-.01.08-.03.05.06.12.09.19.09.14,0,.21,0,.35.02.12.01.25-.08.27-.21s-.07-.27-.22-.28Z"/>
        <path class="cls-3" d="M6.72,8.07s-.04,0-.07,0c-.03,0-.06,0-.09.01-.04-.07-.12-.11-.21-.11-.16,0-.25,0-.41.02-.15.02-.24.15-.22.28s.15.22.27.21c.14-.01.21-.02.35-.02.07,0,.14-.03.19-.09.02.02.05.03.08.03.03,0,.04,0,.06,0,.09.01.17-.05.19-.14.02-.09-.05-.18-.14-.2Z"/>
      </g>
      <path class="cls-1" d="M14.04,9.31c-.26.59-.57.42-1.14.43-.73.01-.89-.07-1.01.77-.01.1-.03.24-.05.42-.04.36-.56.37-.61,0v-.02s-.06-.04-.07-.02c-.21.2-.5.47-.83.47s-.59-.26-.8-.45c-.02-.02-.07,0-.07.02h0c-.05.36-.57.35-.61,0-.02-.18-.04-.33-.05-.42-.13-.84-.29-.76-1.01-.77-.57,0-.88.16-1.14-.43-.14-.31-.6-.22-.61.12-.01.44.18.93.77,1.16.99.39,1.35.46,1.16,2.01-.18,1.55-.61,4.47-.71,5.26-.1.77-.34,3.43,2.52,2.82.15-.03.25-.16.26-.3.02-1.14.01-.74,0-1.25,0-.09-.04-.18-.11-.24-.08-.07-.18-.14-.27-.21-.19-.13-.48-.02-.48.21s-.25.35-.44.23c-.4-.26-.66-.49-.64-1.03.03-.69.85-1.42,2.09-.57.1.07.23.07.33,0,1.24-.85,2.06-.13,2.09.57.03.55-.24.77-.64,1.03-.19.12-.43,0-.44-.23,0-.23-.29-.34-.49-.21-.1.07-.19.14-.27.21-.07.06-.11.14-.11.24,0,.52,0,.12,0,1.25,0,.15.11.27.26.3,2.86.6,2.62-2.05,2.52-2.82-.1-.79-.53-3.71-.71-5.26-.18-1.55.17-1.62,1.16-2.01.59-.23.78-.72.77-1.16,0-.34-.48-.43-.61-.12Z"/>
      <path class="cls-3" d="M17.73,11.11s-.02-.02-.03-.03c-.85-1.3-1.84-1.27-2.42-.96-.1.06-.07.21.04.23.01,0,.03,0,.04,0,.13.03.13.22,0,.24-.69.1-1.7.5-1.76,2.43-.13,1.39.39,2.59.74,3.51,0,0,0,0,0,.01.32.61.28,1.33.19,1.81-.02.13.15.2.22.08.37-.61.44-1.31.11-2.38-.41-1.33-1.12-3.12.35-4.28.06-.04.14-.03.18.03.06.09.13.2.18.27.03.05.02.12-.02.15-.97.87-.5,1.99-.11,3.37.86,3.07-.3,5.21-1.12,6.38-.08.11.05.24.16.17.82-.49,2.45-1.76,2.66-4.28.11-1.35-1.01-2.17-1.32-4.36,0-.06.03-.12.09-.13.08-.02.16-.04.23-.06.07-.02.14.02.15.09.33,1.47,1.51,2.86,1.46,4.39-.04,1.13,0,1.72-1.65,3.74-.08.1.04.25.15.18.78-.44,1.88-1.28,2.25-3.33.03-.15.25-.12.24.03,0,.06,0,.12,0,.17,0,.14.18.18.23.05.34-.86.5-1.91-.38-3.86-.36-.78-1.51-1.79-1.8-2.56-.02-.06,0-.12.06-.15l.19-.09c.05-.03.12-.01.15.04.49.74,1.17,1.16,1.65,1.92,1.61,2.58,1.2,3.92-.16,6.22-.07.12.08.24.18.15,3.63-3.12,1.1-7.69-1.11-9.2Z"/>
      <path class="cls-1" d="M16.54,9.48c-.03.1.1.52.48.19,1.72-1.48,1.3-3.02-.64-2.9-.1,0-.18.13-.11.21.92.98.37,2.22.27,2.5Z"/>
      <path class="cls-3" d="M22.99.92c.08,0,.14.01.16.04.02.03.04.08.04.16s-.01.13-.04.16c-.03.03-.08.04-.16.04s-.13-.01-.16-.04c-.03-.03-.04-.08-.04-.16s.01-.13.04-.16c.03-.03.08-.04.16-.04ZM23.16,2.99h-.34v-1.44h.34v1.44Z"/>
      <path class="cls-3" d="M24.7,2.99h-.34v-.96c0-.09-.02-.14-.05-.18-.04-.03-.08-.05-.15-.05l-.31.13v1.05h-.34v-1.5h.25l.08.18.42-.19c.12,0,.22.04.31.13.09.09.13.21.13.38v1.01Z"/>
      <path class="cls-3" d="M25.68,2.99h-.21c-.13,0-.23-.04-.3-.12-.07-.08-.1-.17-.1-.28v-.79h-.14v-.26h.14v-.29h.34v.29h.24v.26h-.24v.77c0,.08.04.12.12.12h.15v.29Z"/>
      <path class="cls-3" d="M27.09,2.32h-.87c0,.14.02.24.06.3s.13.09.26.09c.08,0,.15-.03.19-.08.04-.05.06-.1.06-.15h.31c0,.19-.05.32-.15.41-.1.09-.23.13-.4.13s-.29-.02-.38-.07c-.19-.1-.28-.35-.28-.77,0-.25.05-.43.16-.54.11-.11.27-.17.49-.17.38,0,.57.21.57.63,0,.05,0,.12,0,.22ZM26.23,2.09h.56c0-.12-.02-.2-.07-.25-.04-.05-.11-.08-.2-.08s-.16.03-.22.08c-.05.05-.08.14-.08.25Z"/>
      <path class="cls-3" d="M28.2,1.5l-.09.34s-.06-.02-.09-.02c-.09,0-.2.04-.32.11v1.06h-.34v-1.5h.25l.08.13.36-.15s.04,0,.07,0,.06,0,.08.03Z"/>
      <path class="cls-2" d="M29.52,2.99h-.23l-.11-.18-.36.2c-.2,0-.34-.07-.41-.22-.04-.07-.06-.15-.07-.23-.01-.08-.02-.17-.02-.26s0-.16,0-.2c0-.04,0-.09.01-.15,0-.06.02-.1.03-.14.01-.04.03-.08.06-.12.02-.04.05-.07.09-.1.08-.05.18-.08.31-.08h.36v-.49h.34v1.97ZM29.18,2.52v-.7h-.26c-.1,0-.16.04-.2.11-.04.07-.06.18-.06.33s.02.25.05.31c.04.06.1.09.2.09l.26-.13Z"/>
      <path class="cls-2" d="M30.08.92c.08,0,.14.01.16.04.02.03.04.08.04.16s-.01.13-.04.16c-.03.03-.08.04-.16.04s-.13-.01-.16-.04c-.03-.03-.04-.08-.04-.16s.01-.13.04-.16c.03-.03.08-.04.16-.04ZM30.24,2.99h-.34v-1.44h.34v1.44Z"/>
      <path class="cls-2" d="M31.65,2.58v.04c-.01.13-.07.23-.17.3-.1.07-.23.1-.38.1-.22,0-.38-.04-.47-.12-.08-.07-.12-.18-.12-.33v-.03h.31c0,.08.02.14.06.17s.11.04.22.04c.14,0,.21-.05.21-.15,0-.08-.02-.14-.07-.17-.02-.01-.05-.02-.09-.03l-.27-.04c-.23-.04-.35-.18-.35-.43,0-.14.05-.25.15-.33.1-.08.23-.12.39-.12.36,0,.54.15.54.46v.03h-.3c0-.08-.03-.14-.07-.17-.04-.03-.1-.04-.17-.04s-.13.01-.16.04c-.04.03-.06.06-.06.1,0,.1.04.16.12.17l.32.06c.22.04.34.19.34.45Z"/>
      <path class="cls-2" d="M32.71,2.45h.31s0,.04,0,.07c0,.04,0,.06,0,.07,0,.01,0,.03,0,.06,0,.03,0,.05-.01.06,0,.01-.01.03-.02.05-.03.09-.12.16-.26.22-.09.03-.18.05-.28.05s-.18-.02-.26-.05c-.08-.03-.14-.07-.19-.12-.1-.11-.15-.31-.15-.61s.05-.5.15-.61c.05-.05.11-.09.19-.12.08-.03.17-.05.26-.05.19,0,.33.05.43.14.1.09.15.23.15.39h-.31c0-.08-.02-.13-.06-.17-.04-.04-.11-.06-.21-.06s-.17.03-.21.1c-.03.06-.05.16-.05.29v.14c0,.21.04.34.12.38.04.02.08.03.14.03s.11,0,.15-.02c.04-.01.06-.03.08-.06.02-.03.03-.06.03-.08,0-.03,0-.07.01-.12Z"/>
      <path class="cls-2" d="M33.47.92c.08,0,.14.01.16.04.02.03.04.08.04.16s-.01.13-.04.16c-.03.03-.08.04-.16.04s-.13-.01-.16-.04c-.03-.03-.04-.08-.04-.16s.01-.13.04-.16c.03-.03.08-.04.16-.04ZM33.64,2.99h-.34v-1.44h.34v1.44Z"/>
      <path class="cls-2" d="M35.22,2.2c0,.39-.1.64-.3.75-.08.04-.18.07-.3.07l-.25-.16v.59h-.34v-1.93h.67c.2,0,.34.06.41.17.07.11.11.29.11.53ZM34.88,2.26c0-.3-.09-.44-.28-.44h-.23v.7l.23.15c.1,0,.17-.03.22-.1.04-.06.07-.17.07-.31Z"/>
      <path class="cls-2" d="M35.82,2.99h-.34s0-1.97,0-1.97h.34v1.97Z"/>
      <path class="cls-2" d="M36.35.92c.08,0,.14.01.16.04.02.03.04.08.04.16s-.01.13-.04.16c-.03.03-.08.04-.16.04s-.13-.01-.16-.04c-.03-.03-.04-.08-.04-.16s.01-.13.04-.16c.03-.03.08-.04.16-.04ZM36.52,2.99h-.34v-1.44h.34v1.44Z"/>
      <path class="cls-2" d="M38.06,2.99h-.34v-.96c0-.09-.02-.14-.05-.18-.04-.03-.08-.05-.15-.05l-.31.13v1.05h-.34v-1.5h.25l.08.18.42-.19c.12,0,.22.04.31.13.09.09.13.21.13.38v1.01Z"/>
      <path class="cls-2" d="M39.43,2.99h-.23l-.11-.18-.36.2c-.2,0-.34-.07-.41-.22-.03-.07-.06-.15-.07-.23-.01-.08-.02-.17-.02-.26s0-.16,0-.2c0-.04,0-.09.01-.15s.02-.1.03-.14c.01-.04.03-.08.06-.12.02-.04.05-.07.09-.1.08-.05.18-.08.31-.08h.36l.34-.02v1.51ZM39.09,2.52v-.7h-.26c-.1,0-.16.04-.2.11-.04.07-.06.18-.06.33s.02.25.05.31c.04.06.1.09.2.09l.26-.13Z"/>
      <path class="cls-2" d="M40.62,1.5l-.09.34s-.06-.02-.09-.02c-.09,0-.2.04-.32.11v1.06h-.34v-1.5h.25l.08.13.36-.15s.04,0,.07,0,.06,0,.08.03Z"/>
      <path class="cls-2" d="M41.93,1.5l-.57,1.67c-.03.08-.06.13-.1.18-.07.07-.17.11-.29.11h-.16v-.31h.11s.09,0,.11-.02c.02-.02.04-.05.06-.1l.03-.07-.45-1.44h.36l.27,1.04.29-1.04h.36Z"/>
      <g>
        <path class="cls-2" d="M23.31,23.73c-.27,0-.5-.05-.68-.16-.18-.11-.32-.29-.4-.56-.09-.26-.13-.63-.13-1.11s.04-.84.13-1.11c.09-.26.21-.45.38-.56.17-.11.37-.16.6-.16.15,0,.3.01.44.03.14.02.25.04.32.07v.23h-.66c-.15,0-.28.04-.4.13-.11.08-.2.23-.27.45-.06.21-.1.52-.1.92s.03.7.1.92c.07.22.16.37.29.45.13.08.29.13.47.13h.2v-1.64h.46v1.87c-.07.02-.18.05-.32.07-.14.02-.29.03-.44.03Z"/>
        <path class="cls-2" d="M25.54,23.73c-.2,0-.37-.04-.51-.12-.14-.08-.24-.22-.32-.41-.07-.19-.11-.45-.11-.78s.04-.59.11-.78c.07-.19.18-.33.32-.41.14-.08.31-.12.51-.12s.37.04.51.12c.14.08.25.22.32.41.07.19.11.45.11.78s-.04.59-.11.78c-.07.19-.18.33-.32.41-.14.08-.31.12-.51.12ZM25.54,23.45c.08,0,.16-.03.24-.09.07-.06.13-.17.18-.32.05-.15.07-.36.07-.63s-.02-.48-.07-.63c-.05-.15-.1-.26-.18-.32s-.15-.09-.24-.09-.16.03-.24.09c-.07.06-.13.17-.18.32-.05.15-.07.36-.07.63s.02.48.07.63c.05.15.1.26.18.32.07.06.15.09.24.09Z"/>
        <path class="cls-2" d="M27.03,23.68v-2.53h.38l.03.2h.03c.06-.05.14-.1.25-.14.1-.04.23-.06.38-.06h.25v.38h-.51c-.06,0-.13,0-.19.02s-.12.04-.17.08v2.05h-.46Z"/>
        <path class="cls-2" d="M29.56,23.73c-.2,0-.37-.04-.51-.12-.14-.08-.24-.22-.32-.41-.07-.19-.11-.45-.11-.78s.04-.59.11-.78c.07-.19.18-.33.32-.41.14-.08.31-.12.51-.12s.37.04.51.12c.14.08.25.22.32.41.07.19.11.45.11.78s-.04.59-.11.78c-.07.19-.18.33-.32.41-.14.08-.31.12-.51.12ZM29.56,23.45c.08,0,.16-.03.24-.09.07-.06.13-.17.18-.32.05-.15.07-.36.07-.63s-.02-.48-.07-.63c-.05-.15-.1-.26-.18-.32s-.15-.09-.24-.09-.16.03-.24.09c-.07.06-.13.17-.18.32-.05.15-.07.36-.07.63s.02.48.07.63c.05.15.1.26.18.32.07.06.15.09.24.09Z"/>
        <path class="cls-2" d="M31.05,23.68v-2.53h.38l.03.15h.03c.06-.06.14-.11.24-.15.09-.04.19-.05.29-.05.16,0,.3.02.42.06.12.04.21.12.27.23.06.11.1.27.1.47v1.82h-.46v-1.82c0-.18-.05-.3-.14-.36-.09-.06-.21-.09-.34-.09-.06,0-.13.01-.2.03-.07.02-.12.04-.16.07v2.18h-.46Z"/>
        <path class="cls-2" d="M34.14,24.74c-.1,0-.21-.01-.32-.03-.11-.02-.21-.04-.29-.07v-.2h.51c.23,0,.4-.06.5-.18.1-.12.16-.34.16-.66-.07.04-.15.07-.23.09-.08.02-.17.04-.27.04-.18,0-.33-.04-.45-.12s-.22-.21-.29-.4-.1-.45-.1-.79.03-.6.1-.79c.07-.19.18-.33.32-.4.15-.08.33-.12.56-.12.15,0,.29.01.43.04.13.03.26.06.38.11v2.23c0,.32-.04.57-.11.76s-.18.31-.33.39-.34.12-.58.12ZM34.34,23.42c.06,0,.13-.01.2-.03.07-.02.12-.04.16-.07v-1.92h-.35c-.11,0-.2.03-.28.08-.08.06-.14.16-.18.3s-.06.36-.06.62.02.48.06.62c.04.15.1.25.18.3.08.06.18.08.28.08Z"/>
        <path class="cls-2" d="M36.64,23.73c-.2,0-.37-.04-.51-.12-.14-.08-.24-.22-.32-.41-.07-.19-.11-.45-.11-.78s.04-.59.11-.78c.07-.19.18-.33.32-.41.14-.08.31-.12.51-.12s.37.04.51.12c.14.08.25.22.32.41.07.19.11.45.11.78s-.04.59-.11.78c-.07.19-.18.33-.32.41-.14.08-.31.12-.51.12ZM36.64,23.45c.08,0,.16-.03.24-.09.07-.06.13-.17.18-.32.05-.15.07-.36.07-.63s-.02-.48-.07-.63c-.05-.15-.1-.26-.18-.32s-.15-.09-.24-.09-.16.03-.24.09c-.07.06-.13.17-.18.32-.05.15-.07.36-.07.63s.02.48.07.63c.05.15.1.26.18.32.07.06.15.09.24.09Z"/>
        <path class="cls-2" d="M38.61,23.73c-.1,0-.21-.01-.32-.03-.11-.02-.21-.04-.29-.07v-.2h.51c.23,0,.4-.03.5-.09.1-.06.16-.16.16-.32,0-.1-.03-.18-.09-.24-.06-.06-.13-.11-.22-.15-.09-.04-.19-.08-.29-.12-.1-.04-.2-.09-.29-.15s-.16-.14-.22-.23c-.06-.09-.09-.22-.09-.37,0-.25.08-.43.23-.52.15-.09.38-.14.68-.14.1,0,.21.01.32.03.11.02.21.04.28.07v.2h-.51c-.18,0-.31.03-.41.08-.1.05-.15.15-.15.27,0,.1.03.18.09.24.06.06.13.11.22.15s.19.08.29.12c.1.04.2.09.29.15s.16.14.22.23c.06.09.09.22.09.37,0,.19-.04.33-.11.43-.07.1-.18.17-.33.22-.15.04-.34.06-.58.06Z"/>
        <path class="cls-2" d="M40.79,23.73c-.15,0-.28-.02-.4-.07-.11-.04-.2-.12-.27-.24-.06-.12-.1-.28-.1-.5s.03-.38.1-.49c.06-.11.15-.19.27-.23.11-.04.25-.06.4-.06.08,0,.16,0,.26.02.09.01.18.02.25.04v-.23c0-.23-.05-.38-.14-.45-.1-.07-.23-.11-.41-.11h-.51v-.2c.08-.03.17-.05.29-.07s.22-.03.32-.03c.2,0,.37.02.51.07.13.05.24.13.3.25.07.12.1.3.1.54v1.72h-.38l-.03-.15h-.03c-.06.06-.14.11-.24.15s-.19.05-.29.05ZM40.94,23.42c.06,0,.13-.01.2-.03.07-.02.12-.04.16-.07v-.89h-.35c-.08,0-.16.01-.23.04-.07.03-.12.08-.16.14s-.06.17-.06.3c0,.13.02.24.06.31.04.07.1.12.16.15.07.03.15.04.23.04Z"/>
      </g>
      <path class="cls-3" d="M23.88,19.15c-.35,0-.66-.02-.94-.06-.28-.04-.5-.09-.65-.13v-.55h1.4c.5,0,.86-.1,1.07-.29.22-.2.32-.48.32-.85,0-.27-.07-.49-.2-.66-.14-.17-.31-.31-.53-.42-.22-.11-.45-.22-.69-.33-.24-.11-.47-.25-.69-.41-.22-.16-.39-.38-.53-.64-.14-.26-.2-.61-.2-1.03,0-.55.17-.99.52-1.31.35-.32.86-.48,1.53-.48.35,0,.67.02.95.06s.5.09.64.14v.55h-1.4c-.33,0-.58.09-.77.28s-.28.44-.28.77c0,.29.07.53.2.7.14.18.31.32.53.44.22.12.45.23.69.34.24.11.47.24.69.4.22.16.39.37.53.62.14.25.2.58.2.99,0,.6-.19,1.07-.56,1.4-.37.33-.99.5-1.84.5Z"/>
      <path class="cls-3" d="M29.39,19.15c-.51,0-.94-.1-1.29-.31-.35-.21-.61-.58-.79-1.1-.18-.52-.26-1.25-.26-2.18s.09-1.66.26-2.18c.17-.52.43-.89.76-1.1s.74-.31,1.22-.31c.35,0,.67.02.95.06.28.04.5.09.64.14v.55h-1.2c-.28,0-.53.08-.75.24-.22.16-.39.45-.51.86-.12.41-.18.99-.18,1.74s.06,1.33.19,1.74c.13.41.31.7.54.86.23.16.51.24.82.24h1.2v.55c-.15.05-.36.09-.64.13-.28.04-.6.06-.95.06Z"/>
      <path class="cls-3" d="M31.81,19.05v-7h1.2v3.05h1.8v-3.05h1.2v7h-1.2v-3.15h-1.8v3.15h-1.2Z"/>
      <path class="cls-3" d="M39.45,19.15c-.47,0-.87-.11-1.21-.33-.34-.22-.61-.6-.8-1.12-.19-.53-.28-1.24-.28-2.14s.1-1.61.28-2.13c.19-.52.46-.9.8-1.12.34-.23.75-.34,1.21-.34s.87.11,1.21.34c.34.23.61.6.8,1.12.19.52.28,1.23.28,2.13s-.1,1.61-.28,2.14c-.19.53-.46.9-.8,1.12-.34.22-.75.33-1.21.33ZM39.45,18.45c.14,0,.27-.04.4-.13s.25-.24.35-.45c.1-.21.19-.51.25-.88.06-.38.09-.85.09-1.42s-.03-1.05-.09-1.42c-.06-.38-.15-.67-.25-.88-.1-.21-.22-.36-.35-.45s-.26-.13-.4-.13-.27.04-.4.13-.25.24-.35.45c-.1.21-.19.51-.25.88-.06.38-.09.85-.09,1.42s.03,1.05.09,1.42c.06.38.15.67.25.88.1.21.22.36.35.45s.26.13.4.13Z"/>
      <path class="cls-3" d="M44.94,19.15c-.47,0-.87-.11-1.21-.33-.34-.22-.61-.6-.8-1.12-.19-.53-.28-1.24-.28-2.14s.1-1.61.28-2.13c.19-.52.46-.9.8-1.12.34-.23.75-.34,1.21-.34s.87.11,1.21.34c.34.23.61.6.8,1.12.19.52.28,1.23.28,2.13s-.1,1.61-.28,2.14c-.19.53-.46.9-.8,1.12-.34.22-.75.33-1.21.33ZM44.94,18.45c.14,0,.27-.04.4-.13s.25-.24.35-.45c.1-.21.19-.51.25-.88.06-.38.09-.85.09-1.42s-.03-1.05-.09-1.42c-.06-.38-.15-.67-.25-.88-.1-.21-.22-.36-.35-.45s-.26-.13-.4-.13-.27.04-.4.13-.25.24-.35.45c-.1.21-.19.51-.25.88-.06.38-.09.85-.09,1.42s.03,1.05.09,1.42c.06.38.15.67.25.88.1.21.22.36.35.45s.26.13.4.13Z"/>
      <path class="cls-3" d="M48.38,19.05v-7h1.2v6.2h2.45v.8h-3.65Z"/>
      <g>
        <path class="cls-1" d="M22.63,11.05v-7h3.4v.7h-2.5v2.45h2.1v.7h-2.1v3.15h-.9Z"/>
        <path class="cls-1" d="M26.93,11.05v-7h.9v7h-.9Z"/>
        <path class="cls-1" d="M29.23,11.05v-7h3.4v.7h-2.5v2.3h2.2v.7h-2.2v2.6h2.5v.7h-3.4Z"/>
        <path class="cls-1" d="M33.73,11.05v-7h.9v6.3h2.5v.7h-3.4Z"/>
        <path class="cls-1" d="M39.52,11.15c-.3,0-.58-.01-.83-.04s-.51-.08-.76-.15v-6.8c.25-.07.51-.12.76-.15s.53-.04.83-.04c.53,0,.98.1,1.33.31.36.21.62.58.8,1.1.18.52.26,1.25.26,2.18s-.09,1.66-.26,2.18c-.18.52-.44.89-.8,1.1-.36.21-.8.31-1.33.31ZM38.82,10.5h.7c.3,0,.56-.08.78-.25.22-.17.4-.46.52-.89.13-.43.19-1.03.19-1.81s-.06-1.39-.19-1.81c-.13-.42-.3-.72-.52-.88-.22-.17-.48-.25-.78-.25h-.7v5.9Z"/>
      </g>
    </g>
  </g>
</svg>