<?xml version="1.0" encoding="UTF-8"?>
<svg id="Layer_2" data-name="Layer 2" xmlns="http://www.w3.org/2000/svg" viewBox="0 0 23.64 23.64">
  <defs>
    <style>
      .cls-1 {
        fill: #b5b5b5;
      }

      .cls-1, .cls-2, .cls-3 {
        stroke-width: 0px;
      }

      .cls-2 {
        fill: #e7e7e7;
      }

      .cls-3 {
        fill: #fff;
      }
    </style>
  </defs>
  <g id="Layer_1-2" data-name="Layer 1">
    <g>
      <circle class="cls-1" cx="11.82" cy="11.82" r="11.82"/>
      <path class="cls-1" d="M10.8,1.34c.2,0,.4-.02.59-.05.31.65.6,1.32.89,1.98-.19.01-.39.03-.58.03-.06-.15-.12-.29-.18-.44-.23,0-.46.03-.7.04-.04.16-.09.31-.12.47-.18.02-.36.04-.54.04.2-.69.43-1.38.63-2.07ZM11.11,1.79c-.05.23-.11.47-.16.7.13,0,.27-.01.41-.02-.06-.23-.14-.46-.24-.68Z"/>
      <path class="cls-1" d="M12.87,1.53c.45-.26,1.03-.17,1.46.09-.06.12-.13.24-.2.35-.25-.12-.55-.24-.82-.1-.41.18-.5.79-.16,1.08.21.19.52.18.77.1.04.14.07.28.09.42-.4.11-.86.07-1.21-.17-.58-.4-.52-1.41.07-1.77Z"/>
      <path class="cls-1" d="M8.94,1.69c.15-.05.31-.1.46-.15.2.64.4,1.29.62,1.92-.19.07-.38.13-.57.2-.39-.31-.71-.69-1.11-1,.11.41.25.81.39,1.22-.15.06-.31.11-.46.16-.21-.64-.41-1.28-.62-1.92.2-.08.41-.15.62-.21.36.33.68.7,1.06,1.01-.13-.41-.27-.82-.39-1.23Z"/>
      <path class="cls-1" d="M14.27,3.68c.2-.65.43-1.29.66-1.93.16.06.33.12.49.17-.21.64-.45,1.27-.65,1.91-.17-.04-.34-.1-.5-.16Z"/>
      <path class="cls-1" d="M16.16,2.41c.59-.12,1.27.3,1.35.92.06.49-.24,1.01-.7,1.19-.54.2-1.19-.12-1.42-.63-.25-.59.14-1.34.77-1.48ZM16.33,2.87c-.29.1-.45.41-.5.69-.04.38.43.7.77.51.24-.14.4-.41.41-.69.02-.34-.37-.62-.68-.51Z"/>
      <path class="cls-1" d="M5.13,3.67c.38-.28.75-.55,1.14-.82.08.12.16.23.24.35-.24.17-.48.33-.7.52.08.1.15.2.22.3.23-.17.46-.35.71-.5.08.11.15.22.22.33-.23.16-.46.33-.69.49.07.12.14.22.23.32.22-.18.46-.33.68-.51.09.11.18.23.26.35-.38.27-.76.55-1.15.82-.38-.56-.78-1.1-1.16-1.65Z"/>
      <path class="cls-1" d="M18.45,3.63c.19.07.31.29.48.41-.13.47-.26.95-.41,1.41.34-.26.61-.61.93-.91.12.11.23.21.35.32-.47.49-.95.97-1.42,1.46-.15-.15-.3-.29-.45-.44.14-.47.27-.95.39-1.43-.31.31-.61.63-.92.93-.12-.11-.23-.22-.34-.33.48-.46.92-.95,1.4-1.42Z"/>
      <path class="cls-1" d="M11.18,3.92c1.54-.13,3.12.2,4.47.95,1.63.89,2.93,2.38,3.59,4.12.7,1.8.69,3.86,0,5.67-.63,1.67-1.86,3.11-3.4,4.01-1.24.73-2.69,1.11-4.13,1.09-1.79-.02-3.56-.67-4.94-1.82-1.45-1.19-2.45-2.9-2.76-4.75-.24-1.41-.11-2.89.42-4.23.65-1.69,1.9-3.13,3.47-4.03,1-.57,2.13-.93,3.29-1.02ZM11.41,4.5c-1.61.09-3.19.73-4.4,1.8-1.28,1.11-2.16,2.68-2.42,4.36-.17,1.05-.11,2.13.18,3.15.4,1.44,1.25,2.74,2.4,3.68,1.18.98,2.68,1.57,4.21,1.66,1.12.07,2.25-.12,3.28-.55,1.55-.64,2.86-1.84,3.65-3.32.64-1.2.94-2.58.85-3.94-.1-1.68-.81-3.31-1.96-4.53-1.45-1.58-3.64-2.45-5.78-2.32Z"/>
      <path class="cls-1" d="M4.19,4.57c.12-.14.23-.27.36-.4.31.3.64.58.96.87.18.16.31.4.27.65-.05.31-.27.57-.52.75-.25.17-.6.16-.83-.03-.36-.29-.69-.62-1.04-.92.11-.15.23-.28.35-.4.35.3.67.63,1.04.91.25.22.63-.15.48-.41-.06-.11-.16-.19-.24-.28-.27-.24-.55-.49-.82-.74Z"/>
      <path class="cls-1" d="M11.08,4.8c.1-.05.22-.07.31.02.14.15.31.24.45.39.14-.03.2-.17.29-.26.17.04.36.01.51.14.03-.02.1-.06.14-.08.08.05.15.12.21.2-.06.05-.12.09-.18.14,0,.02-.01.05-.02.07.14-.09.34-.12.35-.31.12-.02.24.04.36,0,.04.04.07.09.11.13.11-.02.23-.09.33-.01.02.1-.09.13-.14.19.11.07.23-.05.33-.09.25.08.5-.05.76,0-.05.18-.29.04-.35.22.1-.07.23-.05.35-.07.16-.14.44-.21.54.03-.07.09-.12.19-.19.27-.19.12-.51-.03-.63.19.21-.04.42-.09.64-.08-.02.13.14.14.16.03.04-.16.29-.27.39-.11-.02.04-.05.11-.07.15-.04,0-.13.02-.17.03.14.03.26-.06.37-.14.09.14.25.18.41.2.03.07.06.15.07.23.09.02.17.03.26.05.03.08.1.13.15.19.03.12,0,.24-.02.36-.16,0-.26.1-.32.24-.04,0-.11.01-.15.01v.03c.13-.02.26-.05.36-.14.11-.09.26-.07.39-.04.13.17.46.25.39.52-.19-.05-.38-.11-.57-.07.31.09.59.24.87.4.12.11-.05.26-.09.36-.09-.06-.17-.13-.25-.2-.04.04-.08.08-.09.13.16.02.26.15.37.26.11.12.33.09.39.27.05.16.04.35.16.48-.04.24,0,.49-.02.73-.02.07-.04.18-.13.2-.07-.02-.14-.04-.21-.07.11.16.31.36.15.55.03.12.07.23.09.34.03.13-.11.22-.22.22-.17-.08-.22-.28-.35-.4.04.26.08.53.21.77.07.12.03.25-.04.36-.2.02-.18-.27-.33-.35.07.15.18.29.21.46.03.15.12.28.24.38,0,.17.03.35.1.51.06.35.13.72,0,1.07-.17.07-.34.26-.53.12.14.29.05.6-.07.88-.09.03-.22,0-.26.11.01.18.11.45-.15.51-.02-.01-.07-.04-.1-.06-.08.24-.22.63-.55.53-.14.21-.29.45-.54.54.03-.3.1-.6.07-.9,0,0-.02,0-.03,0,.03.24-.07.46-.08.7-.02.18-.06.38-.2.5l-.07-.03c.06-.28.16-.56.11-.85-.07.15-.12.31-.22.44-.14.24-.26.52-.54.63-.12.03-.16.15-.23.24-.05-.01-.14-.04-.19-.05-.06.19-.03.52-.29.56-.18.02-.25.26-.44.27-.1-.02-.2.07-.3.02,0-.26.14-.49.19-.74-.31.08-.1.53-.34.69-.15.12-.27-.09-.39-.16-.19.22-.52.17-.74.35-.08-.08-.1-.19-.12-.3.14-.32-.07-.67-.02-1-.05.03-.1.06-.14.08-.05-.16-.09-.35-.29-.38-.03.05-.06.1-.08.15-.09.04-.2.06-.26.15-.05.08.04.14.11.17-.04-.1.05-.27.17-.2.08.13.01.36.2.39.02-.04.07-.12.09-.16l.06.03c.07.3.14.61.09.92-.17-.03-.3-.15-.28-.34-.07.08-.07.22-.17.27-.02-.11-.04-.21-.07-.31-.19.02-.05.37-.28.34-.04-.16-.01-.33-.04-.49-.04-.08-.14-.12-.2-.17-.15.06-.3.14-.41.26-.19.21-.51.14-.73.28-.06.06-.12.13-.19.19-.03-.06-.06-.12-.09-.18-.2-.09-.5.1-.62-.15-.19.09-.41,0-.59.12-.14.07-.11-.13-.12-.21-.02.16-.16.29-.32.24-.14-.1-.25-.24-.38-.35-.19-.17-.08-.46-.24-.65-.02.04-.05.14-.06.18-.1.04-.2-.07-.17-.17.03-.15.04-.31-.1-.42-.09,0-.21.05-.25-.06-.12-.17-.02-.39.03-.58-.09.08-.16.26-.3.19-.05-.27.29-.46.2-.73-.06.18-.12.39-.33.44-.14-.03-.05-.17-.02-.25-.12,0-.19-.1-.21-.21.04-.44.5-.69.52-1.13-.11-.32-.29-.61-.3-.96.07-.07.2-.13.27-.02.14.23.37.36.57.52.15-.18.2-.46.12-.68-.25-.04-.51,0-.75-.09-.36-.14-.75-.21-1.06-.46-.16-.23-.19-.53-.14-.8.04-.18.05-.36.01-.54-.04-.17.09-.32.13-.48.06-.15-.07-.31.03-.45.13-.27.47-.3.68-.49.14-.08.2-.23.3-.34.19-.11.4-.17.56-.31.14-.17,0-.39-.03-.57-.07-.21.12-.38.25-.51.29-.13.56-.27.84-.42.1-.12.25-.26.2-.43-.06-.19.09-.36.15-.53.11-.21.13-.46.28-.65.09-.16.39-.1.39-.33.1-.05.21-.06.32-.08.01-.14.07-.32.23-.34.07.03.13.07.19.11.16-.09.28-.23.38-.38.15.06.32.06.45.16.11-.06.2-.17.33-.17,0,.13-.02.26-.03.4.14-.15.24-.33.19-.54ZM14.15,5.65c-.16-.03-.28.09-.38.19.24-.08.47-.18.72-.23-.12-.02-.24-.02-.34.05ZM11.89,6.1c-.09.25-.3.44-.37.7,0,.12.16.12.23.06.17-.13.07-.41.22-.55.16-.18.32-.37.37-.61-.19.07-.32.24-.45.39ZM9.41,6.52l-.09.02c0-.09-.01-.17,0-.26-.02,0-.05.02-.07.02-.01.17.06.33.08.49.07-.06.13-.12.2-.17.12.1.16-.07.23-.12.13.04.28.06.36.19.03-.02.09-.05.12-.07.03-.18.05-.36.06-.54-.18.09-.38.06-.56.15-.04-.15,0-.29.05-.43-.21.17-.24.48-.38.7ZM12.65,6.32c-.11.05-.22.1-.31.19.06.16-.12.27-.1.43,0,.14.05.29.15.39.03-.19,0-.39.08-.58.07-.05.16-.09.19-.18.1-.21.27-.37.35-.59-.17.05-.19.28-.35.34ZM8.73,6.61c.06.18-.19.29-.12.47.05-.02.1-.05.15-.08.1,0,.2.02.31,0,0-.1.01-.2,0-.3-.06-.07-.12-.13-.18-.19.04-.08.07-.15.09-.24-.15.04-.18.21-.25.33ZM13.24,7.01s-.08-.03-.12-.05c-.06.13-.18.28-.08.43.09-.15.2-.28.32-.41.12-.12.12-.3.25-.41.07-.06.11-.14.1-.23-.32.07-.29.45-.46.67ZM13.87,6.7c-.02.08.01.21-.1.22-.17.04-.27.18-.39.3.04.12-.08.22-.07.34.21-.21.37-.53.68-.6.16-.15.32-.29.43-.49-.13.19-.37.13-.55.22ZM14.97,6.63c-.07.02-.09.1-.12.15.08,0,.15,0,.22-.05.09,0,.19,0,.28,0,0,.2-.25.26-.4.34-.02-.03-.05-.09-.07-.12-.16.05-.29.19-.47.17,0-.05,0-.15,0-.2-.1.08-.09.25-.22.31-.17.08-.39.04-.55.14.01.2-.17.25-.32.29,0,.02-.03.06-.03.08.19,0,.37-.09.56-.1.02-.02.07-.07.1-.09.26.03.52-.04.72-.22.45-.15.79-.5,1.17-.78-.28-.16-.59-.03-.86.08ZM16.25,6.57c-.16.1-.35.14-.53.18.06.03.13.06.2.09.06-.05.11-.11.17-.16.14-.04.29-.08.43-.02,0-.03,0-.1.01-.13-.1,0-.2-.02-.28.04ZM12.62,7.3c.05.07.11.13.16.2.04-.27.08-.54.22-.77-.04-.02-.13-.07-.18-.09-.09.22-.06.47-.2.67ZM11.88,6.96c.09.08.13.2.18.31-.02-.14.08-.34-.06-.43-.05.03-.09.08-.12.13ZM9.32,7.3c-.06.04-.12.14-.21.1-.21-.07-.42.06-.56.21-.12.06-.24.11-.36.18-.15.04-.34.07-.43.21-.12.17-.34.2-.48.34-.06.13.09.18.17.24.05.1.03.24.12.32.11-.1.25-.14.39-.17.09-.14.26-.18.39-.27.07-.06.17-.05.26-.08.05-.17.15-.34.14-.52.09-.02.19-.04.27-.08.02.02.07.07.1.1.2-.02.38-.15.58-.14.03-.1.01-.23.11-.29.09-.04.17.03.25.06.03-.02.08-.05.11-.06,0-.03-.03-.08-.04-.11-.16.02-.34.07-.48-.06-.11.04-.22.06-.33.03ZM13.65,7.87c-.3.07-.55.26-.71.52-.06.13-.12.34.05.41.13-.29.2-.68.55-.78.14-.02.25-.16.41-.12.1,0,.27.05.29-.08-.2,0-.41-.06-.59.05ZM14.9,7.88s.02.04.03.06c.22.04.52.14.53.41-.2,0-.41-.04-.59.06-.14.08-.3.06-.44,0-.06.29-.39.17-.59.23-.04.05-.16.1-.09.17.12,0,.25-.04.37-.02-.01.04-.03.11-.04.14.16-.01.34-.04.46.1,0,.04-.02.12-.03.16.12,0,.23.01.35.01.13.13.1.32.09.49-.01.14-.17.21-.16.36.09.02.21,0,.27.1-.11.09-.23.17-.37.21.01.02.03.06.04.08.1.02.24.08.31-.03.09-.18.21-.34.28-.53.25-.05.55-.25.51-.54,0-.11.01-.23.03-.34-.13-.2-.06-.46-.18-.66-.12-.31-.49-.36-.77-.46ZM8.4,8.66c-.15.16-.32.3-.49.45-.09.06-.22.07-.3.15-.1.07-.19.21-.34.16-.13.12-.2.3-.35.4-.16.1-.31.33-.53.23-.12.07-.26.11-.36-.03-.16.1-.28.3-.5.25-.02.08-.11.17-.04.25.09.02.17-.04.25-.07.08.04.14.1.2.17.24-.01.51-.04.72.08.14.07.24.21.24.37-.08.04-.14.1-.23.12-.23.04-.41.18-.6.3-.07.19-.04.42.05.6.14.26.43.38.69.49.13.05.26.25.39.08.08.04.16.07.24.1.05-.05.1-.18.18-.11.17.08.34.17.54.16.18.01.39-.09.55.05.2.14.46.09.69.12.03.14.16.2.27.28-.04.15.09.29.02.44-.14.28.15.54.1.83-.03.12.06.2.14.29,0-.15,0-.31.12-.41.15-.08-.02-.27.12-.35.07.09.16.17.19.28.04.1.04.26.19.27-.02-.18.07-.36.02-.55.23-.2-.05-.45,0-.69-.19-.22-.12-.53-.2-.78-.14.06-.3.02-.45.02-.05-.2.02-.42-.05-.63.06,0,.11-.03.15-.08.19-.21.48-.26.73-.38,0,.05,0,.14,0,.18.1,0,.2-.01.31-.02.09-.17.04-.4.16-.55.07,0,.07.09.11.13.09.03.17.1.27.07.1-.19,0-.43.11-.61.18.01.37.04.47.2.07-.06.14-.13.19-.21.04-.16-.03-.37.1-.5.15-.16.12-.41-.04-.54.01-.04.03-.12.04-.17-.11-.11-.29-.13-.42-.21.05.09.03.22-.1.2-.12-.09-.17-.23-.15-.38-.12-.06-.2.07-.29.12-.1.06-.15-.04-.11-.13-.1.11-.21.03-.31-.03-.02.03-.06.09-.08.13-.12.02-.26.03-.33.14-.14.18-.34.29-.5.45-.12.14-.33.14-.47.27-.17-.17-.43-.12-.64-.11.17.07.49-.01.48.26.07,0,.14,0,.2.01.17.17.43.1.62.22,0,.02.02.06.03.08-.21.09-.47.09-.62.28-.24,0-.48-.03-.73,0-.08-.05-.16-.1-.24-.15,0-.03-.03-.09-.03-.12-.23-.06-.48-.14-.71-.1-.21.13-.46.08-.7.09-.12-.1-.28-.06-.41-.14.04-.2.27-.22.37-.38.04-.07.1-.11.17-.14.09-.13.18-.26.28-.39.06.03.12.06.18.09.1-.06.2-.05.3,0,.03-.14.12-.22.27-.21.02.04.12.17.13.05-.08-.4.37-.58.48-.91-.25-.11-.47.1-.72.13ZM9.66,9.21s.11-.01.15-.02c.03.04.08.12.11.16-.02.13-.18.15-.28.18-.17.06-.27-.11-.4-.18.02.06.04.11.06.17.23.12.5.03.7-.1.04-.01.14-.09.05-.12-.12-.04-.29-.26-.4-.09ZM16.66,9.47c.04.06.08.11.11.17.19-.1.37.06.57.04-.03-.09-.08-.22-.2-.17-.17.04-.32-.16-.49-.05ZM12.65,10.53c.06.03.12.07.18.11.05-.08.1-.15.15-.23-.03-.17,0-.39-.18-.48,0-.07,0-.14,0-.21.02-.03.07-.09.09-.12-.07-.06-.14-.11-.22-.16-.12.36.19.77-.04,1.1ZM17.08,9.96c.07.11.16.22.26.31.08,0,.15.01.23.02-.1-.18-.24-.44-.48-.33ZM13.29,9.96c-.05.15-.12.3-.09.47.08-.01.16,0,.24-.04.02-.12.02-.25.01-.37-.05-.04-.11-.04-.16-.06ZM16.76,10.25c0,.07,0,.15.06.21.12.18.26.35.4.52.04.01.09.02.13.03-.07-.09-.08-.2-.08-.31-.14-.19-.39-.24-.51-.44ZM13.71,10.46c0,.08.01.16.02.25-.04.12-.13.22-.13.36-.03.02-.09.07-.12.09-.25-.11-.15-.49-.41-.58-.01.09.02.16.1.2.02.31.43.41.4.73.17.18.11.44.14.66-.09,0-.12.04-.11.12.04.09.15.08.23.11.07.07.06.2.16.26.12-.35-.02-.71-.13-1.05-.05-.12-.23-.39.02-.38.17.13.26.34.34.52.24.15.34.44.33.71.02-.02.06-.05.08-.07.01-.32-.08-.63-.3-.87-.07-.04-.14-.08-.21-.11-.1-.14-.13-.31-.12-.48-.11-.09-.08-.23-.05-.35-.08-.04-.17-.09-.25-.13ZM5.56,10.9c-.05.14-.16.29-.12.45.04.16-.04.32-.08.48-.08.23.04.48.16.67.19.09.39.17.58.26.22.1.47.2.71.12-.05-.05-.11-.09-.18-.07-.34,0-.65-.17-.93-.34-.09-.05-.22-.16-.16-.28.15-.29.32-.58.4-.9-.12-.13-.2-.38-.39-.38ZM15.88,10.92c.08.28.38.36.55.56.06.11.07.25.16.35.03-.27-.13-.57-.4-.64-.16-.01-.17-.21-.31-.27ZM16.52,11.13c.07.13.2.2.31.31.07.09.11.2.2.27-.08-.12-.17-.23-.24-.36-.05-.11-.14-.23-.28-.22ZM15.46,11.25c.01.12.06.23.14.32.25.17.52.38.62.68.07.14-.11.27-.02.41.19.38.37.77.45,1.19,0,.17,0,.34.02.51.16.03.35-.18.22-.32-.1-.09-.03-.23-.07-.34-.07-.18-.2-.32-.24-.51,0-.1.03-.19.03-.29-.04-.18-.16-.35-.1-.54.21.04.2.34.42.38.07-.15-.05-.26-.12-.37-.03-.11-.04-.21-.06-.32-.08.01-.15-.02-.22-.05,0,.05,0,.14,0,.19-.27-.06-.33-.37-.47-.56-.05,0-.14.03-.19.04-.08-.17-.18-.37-.39-.4ZM14.26,11.99c.06.22-.04.45,0,.67,0,.12.04.26-.05.35.06.4-.29.87.05,1.21.07-.12,0-.25,0-.38,0-.14.04-.29-.02-.43.04-.19.04-.39.09-.58,0-.16,0-.32.06-.48-.03-.12-.02-.28-.14-.36ZM11.91,12.72c0,.07,0,.15,0,.22-.05.08-.09.16-.06.26-.02.02-.05.07-.07.1,0,.14-.03.27-.04.4.03.18.16.35.1.54-.04.14.04.27,0,.41.08.06.18.12.21.22-.28.2-.39.64-.15.92.16-.08.27-.24.28-.42.03-.34,0-.69.1-1.01.04-.13.14-.05.17.04.09.17.05.37.04.56,0,.19-.14.34-.16.52.09,0,.19-.03.22-.13.04-.5.15-.99.15-1.49.03.03.09.1.12.13.07-.11.19-.25.1-.39-.08-.14-.06-.31-.1-.46.04-.06.08-.12.12-.17-.12-.05-.2-.14-.28-.23-.16.37.03.78-.06,1.16,0,.11-.13.15-.22.14-.08-.25.03-.49,0-.74-.04-.23.1-.43.14-.64-.05-.04-.11-.07-.16-.11-.02.11.03.24-.04.33-.06,0-.12,0-.18,0-.05-.14-.04-.28-.04-.43-.12.05-.15.17-.2.27ZM15.85,12.97l.09-.11c.22.29.07.66.17.98.02.09.16.09.17.19.06.31.23.62.14.94.02.04.05.11.07.15.14-.27.09-.59,0-.87-.05-.18-.18-.35-.16-.55.02-.1-.03-.18-.11-.24,0-.22-.06-.46-.23-.61-.06-.06-.09-.14-.13-.21-.11.08-.04.22,0,.32ZM14.51,12.8c.1.44-.25.94.04,1.35.2-.16.17-.45.14-.67-.04-.21-.05-.43-.09-.64-.02,0-.07-.02-.1-.03ZM15.29,13.26c-.06.07-.12.15-.16.23-.02.15.11.25.19.36.02.43.41.72.5,1.13.1-.04.07-.17.06-.26-.05-.23-.26-.39-.34-.61-.07-.22-.1-.45-.13-.68-.02-.06-.02-.19-.12-.17ZM15.74,13.32c.11.23.14.51.03.75.05.29.25.52.41.76.03-.23-.02-.46-.16-.65-.18-.24-.06-.55-.14-.81-.05-.02-.09-.03-.14-.04ZM6.36,13.35c.04.26.22.47.4.65.04-.05.08-.09.12-.14-.2-.14-.31-.39-.52-.51ZM7.9,13.39c-.17.17-.1.46-.1.68.08,0,.16,0,.24-.01-.05-.22-.09-.44-.09-.66-.01,0-.04,0-.05,0ZM13.79,14.06c-.07.26-.07.53-.09.8.01.01.03.04.04.05.1-.27.23-.55.22-.85-.02-.12-.1-.23-.11-.36-.12.09-.02.24-.07.36ZM6.69,14.4c.03.12.16.1.25.13,0,.11.03.22,0,.33-.12.06-.22-.04-.32-.09-.07.04-.14.09-.19.16.13-.02.32-.06.42.06-.04.1-.02.2.04.29-.03.08-.07.17-.1.25.19-.03.18-.27.32-.37.12-.09.14-.24.24-.35.03.03.09.1.13.13-.07.16-.23.29-.24.48.18-.1.17-.42.41-.39-.01.09-.02.18-.02.27.05.13.22.09.33.08.02.03.06.08.08.1.14,0,.34-.08.44.04l-.06.21c.11-.1.2-.24.34-.28.13,0,.27,0,.4,0,.05-.05.09-.09.14-.14.07.12.06.34.26.29-.06-.22-.09-.45-.19-.66-.07-.19.07-.34.14-.51-.23.2-.47.39-.74.52-.34.07-.41-.42-.72-.47-.29-.05-.59-.04-.89-.01-.16,0-.3-.07-.46-.08ZM11.06,14.84c-.09,0-.13-.1-.2-.15-.09.15-.31.12-.39.27,0,.21.1.43.01.64.03.01.08.04.11.05.11.08.07-.18.21-.12.02.23-.15.42-.14.65.21-.09.19-.32.29-.49.07.07.11.16.12.25.04.19-.14.34-.09.53.19-.05.15-.27.25-.4.05-.07.05-.16.07-.23-.22-.4.14-.82.02-1.24-.15,0-.16.18-.27.24ZM15.29,14.81c-.06.02-.11.04-.16.07.05.06.1.12.15.18.26.03.19.38.1.55.02.08.06.15.12.2.1-.27.02-.56.02-.84-.07-.12-.12-.26-.23-.35-.11.01,0,.13,0,.19ZM13.96,15.07s.07.09.09.12c-.06.07-.17.12-.14.23.01.26.05.51,0,.77.12.37-.01.75.03,1.12.07-.08.05-.23.14-.27.08.14,0,.31,0,.46.15-.1.12-.31.17-.46.1-.32.06-.66.06-.99-.01-.02-.04-.05-.06-.07,0,.12,0,.25-.03.37-.03-.02-.08-.07-.11-.1-.03-.29-.19-.55-.16-.85.05-.07.13-.14.09-.23-.05-.15.11-.26.12-.41-.08.1-.16.2-.24.3ZM14.52,15.43c.21-.1.15-.39.16-.58-.15.15-.17.38-.16.58ZM14.93,14.99l.02.21s-.08.07-.11.09c.19.37.15.79.14,1.19.01,0,.03,0,.04,0,0-.33,0-.7.26-.95.01-.04.04-.12.06-.16-.1-.16-.25-.29-.41-.37ZM10.19,15.38c0,.27.03.54-.02.81-.04.2,0,.41-.08.6,0,.13,0,.28.09.39.06.07.12.15.15.25,0-.11.05-.22.16-.27.1-.04.05-.17.07-.25-.05.04-.11.08-.16.12-.08-.03-.16-.07-.16-.17-.06-.39.16-.75.17-1.13-.03.01-.1.03-.13.05-.03-.13.08-.34-.1-.39ZM14.51,15.61c.04.15-.03.31.01.47.05.22.15.43.11.66-.04.11-.12.2-.1.33.15-.11.1-.3.18-.45.15-.28-.03-.6,0-.9.03-.12-.13-.09-.2-.11ZM7.88,15.64c0,.09,0,.18,0,.27-.08.08-.14.17-.13.29.08-.03.23-.31.26-.11-.04.22.16.43.04.65-.1.25-.35-.02-.52-.05-.09.26.06.5.1.76.04-.03.07-.06.11-.08.06.06.13.13.19.19.03-.14.04-.29.11-.42.04-.06.08-.16.17-.13,0,.08,0,.15,0,.23.03-.02.1-.05.14-.06.14.04.02.19.08.26.18.04.38,0,.56.04.07.08.11.23.24.2.12,0,.18-.14.16-.25.06-.03.13-.06.19-.09-.01-.09-.03-.21.09-.22.1-.04.1.11.15.17.06-.07.11-.15.14-.23-.05-.14-.05-.29-.01-.44,0-.08.09-.22-.03-.26-.12.07-.11.27-.28.29-.02.13.16.25.08.39-.05,0-.15,0-.21,0-.16-.14-.11-.37-.12-.56-.1,0-.2,0-.3-.01,0,.09,0,.19-.01.28-.14.03-.21.17-.31.27l-.03-.13c-.08.07-.16.23-.29.16,0-.07,0-.14,0-.22-.05.04-.1.08-.15.12-.05-.04-.11-.09-.16-.13.08-.16.04-.35.15-.49-.03-.07-.1-.12-.15-.18.03-.08.12-.18.06-.27-.08-.1-.21-.16-.31-.23ZM13.58,15.92s-.07-.04-.1-.05c-.12.04,0,.19-.05.28-.08,0-.14-.04-.18-.1-.03.17-.22.17-.35.23-.02-.08-.04-.15-.07-.23-.05.12-.1.24-.15.36-.03-.02-.1-.05-.14-.07-.17.09-.33-.06-.49-.12-.04.05-.07.09-.11.14.04,0,.12,0,.15,0-.02.17-.06.34-.03.51.16.05.4-.02.47.17-.02.24-.09.48-.06.72.24-.13.17-.44.14-.66.02-.22.02-.46.16-.63.2.1.06.38.24.5.12,0,.07-.15.09-.23.07-.06.14-.11.21-.17.07.03.22.06.2.17,0,.08-.02.16-.04.24.06.09.14.16.21.23.08-.11.04-.24.04-.37.03-.06.07-.11.09-.17.04-.14-.09-.23-.16-.33.02-.03.06-.1.08-.13-.02-.03-.07-.09-.09-.11.04-.09.17-.17.07-.28-.03.03-.09.08-.12.11ZM8.72,16.54c-.06.12-.03.25-.02.37.09-.15.25-.33.16-.51-.11-.04-.11.07-.14.14Z"/>
      <path class="cls-1" d="M18.49,6.42c.71-.14,1.42-.28,2.13-.41.1.17.2.34.31.5-.43.58-.89,1.14-1.32,1.71-.11-.16-.2-.32-.31-.48.11-.13.21-.26.31-.4-.14-.19-.24-.4-.39-.58-.15.04-.3.08-.45.12-.11-.15-.21-.3-.3-.46ZM19.68,6.67c.06.13.14.25.22.36.14-.18.31-.34.44-.52-.23.04-.44.11-.67.16Z"/>
      <path class="cls-1" d="M2.96,6.5c.53-.21,1.17.1,1.4.61.12-.05.24-.11.36-.17.04.15.08.31.11.47-.14.07-.27.15-.4.22-.09.38-.3.76-.67.93-.6.28-1.4-.14-1.51-.8-.07-.51.23-1.06.71-1.26ZM2.99,7c-.26.14-.39.51-.21.76.16.22.45.36.73.36.39-.03.61-.55.36-.85-.21-.24-.57-.42-.88-.27Z"/>
      <path class="cls-1" d="M19.63,8.38c.64-.22,1.28-.45,1.93-.65.05.17.11.33.16.5-.5.16-1,.33-1.5.51.11.28.21.57.31.85-.14.04-.27.09-.41.14-.19-.44-.32-.91-.49-1.36Z"/>
      <path class="cls-1" d="M1.88,8.91c.34-.21.88.07.82.5.31-.2.68-.26,1.03-.36-.04.18-.09.37-.11.55-.26.12-.55.13-.81.25-.07.03-.06.12-.08.19.25.06.5.12.75.18-.04.18-.07.35-.13.53-.65-.16-1.3-.32-1.95-.45.02-.25.1-.48.15-.72.06-.24.12-.51.34-.65ZM2.01,9.45c-.08.12-.1.26-.14.39.15.05.31.09.47.12.03-.13.07-.25.07-.38-.02-.18-.28-.27-.4-.13Z"/>
      <path class="cls-1" d="M20.3,10.61c.67-.05,1.35-.04,2.03-.05-.01.52.14,1.08-.12,1.55-.35.63-1.43.59-1.74-.06-.21-.45-.12-.96-.16-1.44ZM20.71,11.1c0,.24,0,.52.16.71.22.25.66.25.91.04.21-.2.18-.51.18-.77-.42,0-.83.01-1.25.02Z"/>
      <path class="cls-1" d="M1.3,11.64c.67-.25,1.34-.51,2.01-.76,0,.19,0,.39,0,.58-.15.05-.3.09-.44.16-.04.23,0,.47,0,.7.15.05.31.1.46.15,0,.18,0,.35,0,.53-.69-.23-1.36-.5-2.04-.75,0-.2,0-.4,0-.6ZM1.78,11.97c.23.08.45.14.68.2,0-.13,0-.27,0-.4-.23.05-.46.11-.68.2Z"/>
      <path class="cls-1" d="M20.24,13.2c.04-.18.08-.35.13-.53.6.41,1.21.81,1.8,1.22-.05.18-.1.37-.12.56-.06.02-.12.04-.18.05-.66.08-1.32.17-1.98.26.04-.19.09-.38.13-.57.17-.01.33-.03.5-.06.04-.22.08-.44.15-.65-.14-.1-.28-.19-.43-.27ZM20.94,14.1c.22-.02.45-.02.67-.02l-.02-.08c-.19-.1-.37-.21-.56-.32-.03.14-.06.28-.09.42Z"/>
      <path class="cls-1" d="M12,12.74c.08.32.18.67.06,1-.14-.03-.14-.21-.11-.32.05-.22.03-.45.05-.68Z"/>
      <path class="cls-1" d="M1.51,13.59c.04-.45.67-.66.99-.36.21.19.25.49.29.75.26-.01.51-.1.77-.13.03.17.07.35.1.52-.65.13-1.31.27-1.96.41-.1-.39-.24-.79-.2-1.2ZM1.95,13.71c-.1.15,0,.33.01.49.16-.03.31-.06.47-.09-.04-.14-.04-.3-.14-.42-.09-.1-.25-.06-.34.02Z"/>
      <path class="cls-1" d="M2.82,17.44c-.17-.79.81-1.53,1.52-1.14.39.22.68.64.73,1.08-.13.02-.26.05-.39.07-.07-.26-.19-.55-.46-.66-.42-.19-.96.2-.91.65.03.16.1.34.26.41.2-.1.39-.25.58-.37.09.14.19.29.28.43-.29.19-.58.38-.87.56-.34-.26-.64-.61-.74-1.04Z"/>
      <path class="cls-1" d="M18.69,16.78c.11-.17.22-.34.34-.51.69.15,1.39.33,2.08.47-.07.18-.2.33-.3.49-.16-.04-.32-.08-.48-.12-.12.19-.24.39-.38.57.1.13.2.26.31.4-.1.15-.2.3-.29.45-.44-.58-.85-1.18-1.28-1.75ZM19.26,16.8c.1.21.29.36.42.55.09-.11.17-.23.24-.35-.22-.06-.44-.13-.66-.2Z"/>
      <path class="cls-1" d="M17.39,18.38c.1-.41.47-.67.83-.85.06.12.11.25.16.38-.19.11-.41.23-.5.44-.05.11.04.22.14.25.28-.08.51-.33.83-.31.36.05.61.47.49.81-.13.38-.48.62-.81.81-.07-.12-.14-.24-.2-.37.19-.14.43-.23.53-.46.08-.14-.09-.33-.24-.25-.24.09-.44.29-.71.28-.34-.03-.62-.4-.52-.74Z"/>
      <path class="cls-1" d="M5.12,18.01c.72-.25,1.56.46,1.43,1.21-.07.48-.49.91-.98.93-.56.05-1.1-.39-1.2-.93-.09-.52.27-1.04.75-1.21ZM5.35,18.47c-.21.1-.39.29-.47.51-.15.35.21.76.57.69.29-.05.51-.31.6-.58.12-.39-.34-.79-.71-.62Z"/>
      <path class="cls-1" d="M16.35,19.02c.27-.08.59-.06.83.1.38.24.61.71.53,1.16-.11.54-.68.91-1.21.89-.62-.05-1.08-.71-.96-1.31.08-.41.43-.71.82-.84ZM16.35,19.49c-.21.09-.36.32-.31.56.05.28.24.56.52.65.37.1.78-.29.64-.67-.09-.35-.46-.74-.84-.54Z"/>
      <path class="cls-1" d="M7.17,19.12c.37.22.82.34,1.12.68.31.38-.17,1.05-.63.8.14.35.1.75.12,1.12-.17-.1-.36-.17-.52-.28-.02-.25,0-.49,0-.74,0-.1-.09-.16-.15-.23-.15.22-.25.47-.39.7-.15-.08-.31-.16-.46-.24.29-.61.63-1.2.94-1.8ZM7.23,20.11c.11.07.22.14.34.17.17.04.31-.15.27-.31-.09-.14-.25-.19-.38-.26-.07.14-.14.27-.22.4Z"/>
      <path class="cls-1" d="M13.45,20.59c.25-.52.9-.74,1.44-.67-.01.13,0,.27-.04.4-.27,0-.58.02-.77.24-.34.35-.08,1.04.41,1.08.14,0,.33,0,.41-.14-.04-.22-.12-.43-.17-.65.16-.05.33-.1.49-.15.09.32.19.64.26.97-.13.17-.37.25-.57.33-.32.12-.7.15-1-.04-.44-.28-.64-.9-.45-1.38Z"/>
      <path class="cls-1" d="M9.26,20.13c.43-.09.92.03,1.2.38.35.43.26,1.13-.14,1.5-.53.48-1.51.24-1.76-.43-.22-.56.1-1.3.71-1.44ZM9.36,20.59c-.27.16-.36.51-.33.8.05.37.53.57.83.34.23-.19.32-.52.26-.81-.07-.32-.48-.49-.76-.34Z"/>
      <path class="cls-1" d="M12.46,20.38c.16,0,.31,0,.47,0,.01.68.05,1.36.05,2.04-.2,0-.41,0-.61.01-.26-.42-.49-.86-.76-1.27,0,.43.01.86.02,1.29-.16,0-.32,0-.48,0,0-.67-.03-1.34-.05-2.01.22,0,.44-.02.66-.01.24.43.46.87.74,1.27-.02-.44-.04-.88-.03-1.32Z"/>
      <g>
        <path class="cls-2" d="M10.56.71c1.31-.14,2.64-.07,3.92.25,1.83.44,3.54,1.36,4.92,2.64,1.61,1.48,2.77,3.44,3.29,5.56.73,2.94.2,6.17-1.46,8.71-1.04,1.62-2.51,2.97-4.22,3.86-2.45,1.3-5.4,1.62-8.08.89-2.04-.54-3.91-1.68-5.33-3.23-1.3-1.41-2.23-3.16-2.67-5.04-.27-1.18-.35-2.4-.24-3.61.2-2.19,1.08-4.3,2.47-6C4.98,2.52,7.69,1.03,10.56.71ZM10.8,1.34c-.2.69-.43,1.38-.63,2.07.18,0,.36-.01.54-.04.03-.16.08-.31.12-.47.23-.02.46-.03.7-.04.06.15.12.29.18.44.19,0,.39-.02.58-.03-.29-.66-.58-1.33-.89-1.98-.2.03-.39.04-.59.05ZM12.87,1.53c-.59.37-.65,1.37-.07,1.77.35.24.81.28,1.21.17-.02-.14-.05-.28-.09-.42-.26.08-.56.09-.77-.1-.34-.29-.24-.91.16-1.08.27-.13.56-.02.82.1.07-.12.14-.23.2-.35-.43-.26-1.01-.35-1.46-.09ZM8.94,1.69c.13.41.27.82.39,1.23-.38-.3-.71-.67-1.06-1.01-.21.06-.42.13-.62.21.22.64.42,1.28.62,1.92.16-.05.31-.1.46-.16-.14-.4-.28-.81-.39-1.22.39.3.72.68,1.11,1,.19-.07.38-.13.57-.2-.22-.64-.42-1.28-.62-1.92-.15.05-.31.1-.46.15ZM14.27,3.68c.17.05.33.11.5.16.2-.64.44-1.27.65-1.91-.16-.06-.33-.11-.49-.17-.23.64-.46,1.28-.66,1.93ZM16.16,2.41c-.63.13-1.02.89-.77,1.48.23.51.88.83,1.42.63.47-.18.77-.7.7-1.19-.09-.61-.76-1.03-1.35-.92ZM5.13,3.67c.38.56.78,1.1,1.16,1.65.39-.27.76-.55,1.15-.82-.09-.12-.17-.23-.26-.35-.22.18-.46.33-.68.51-.08-.1-.16-.21-.23-.32.23-.16.46-.33.69-.49-.07-.11-.15-.22-.22-.33-.25.15-.47.33-.71.5-.07-.1-.15-.2-.22-.3.22-.19.47-.35.7-.52-.08-.12-.16-.23-.24-.35-.39.26-.76.54-1.14.82ZM18.45,3.63c-.47.46-.92.96-1.4,1.42.11.11.23.23.34.33.31-.31.61-.62.92-.93-.11.48-.24.96-.39,1.43.14.15.3.3.45.44.47-.49.95-.97,1.42-1.46-.12-.11-.23-.22-.35-.32-.31.3-.58.65-.93.91.15-.47.28-.94.41-1.41-.17-.12-.29-.34-.48-.41ZM11.18,3.92c-1.15.09-2.28.44-3.29,1.02-1.57.89-2.82,2.34-3.47,4.03-.52,1.34-.66,2.82-.42,4.23.31,1.85,1.32,3.56,2.76,4.75,1.37,1.14,3.15,1.8,4.94,1.82,1.44.02,2.89-.35,4.13-1.09,1.54-.9,2.77-2.34,3.4-4.01.69-1.8.7-3.86,0-5.67-.66-1.74-1.96-3.23-3.59-4.12-1.35-.75-2.93-1.08-4.47-.95ZM4.19,4.57c.26.25.54.5.82.74.09.08.19.17.24.28.15.27-.23.63-.48.41-.37-.28-.69-.61-1.04-.91-.12.13-.25.26-.35.4.36.3.68.63,1.04.92.23.19.59.2.83.03.25-.18.47-.44.52-.75.04-.25-.09-.49-.27-.65-.32-.29-.65-.57-.96-.87-.12.13-.24.26-.36.4ZM18.49,6.42c.09.16.19.32.3.46.15-.04.3-.08.45-.12.14.18.25.39.39.58-.1.13-.21.26-.31.4.11.16.21.32.31.48.43-.58.89-1.13,1.32-1.71-.11-.17-.21-.33-.31-.5-.71.13-1.42.27-2.13.41ZM2.96,6.5c-.48.2-.78.75-.71,1.26.11.66.91,1.07,1.51.8.37-.17.58-.55.67-.93.13-.08.27-.15.4-.22-.03-.16-.07-.31-.11-.47-.12.06-.24.12-.36.17-.23-.51-.87-.82-1.4-.61ZM19.63,8.38c.18.45.31.91.49,1.36.13-.05.27-.1.41-.14-.1-.28-.2-.57-.31-.85.5-.17,1-.35,1.5-.51-.05-.17-.11-.33-.16-.5-.65.2-1.29.44-1.93.65ZM1.88,8.91c-.22.14-.28.42-.34.65-.05.24-.12.48-.15.72.65.13,1.3.29,1.95.45.05-.17.09-.35.13-.53-.25-.06-.5-.12-.75-.18.02-.06.01-.15.08-.19.26-.12.55-.13.81-.25.02-.19.07-.37.11-.55-.35.11-.72.16-1.03.36.06-.43-.48-.71-.82-.5ZM20.3,10.61c.05.48-.05.99.16,1.44.31.65,1.39.69,1.74.06.27-.48.11-1.04.12-1.55-.68.01-1.35,0-2.03.05ZM1.3,11.64c0,.2,0,.4,0,.6.68.25,1.36.52,2.04.75,0-.18,0-.35,0-.53-.15-.05-.31-.1-.46-.15,0-.23-.04-.48,0-.7.14-.06.29-.1.44-.16,0-.19,0-.39,0-.58-.67.25-1.34.51-2.01.76ZM20.24,13.2c.14.09.29.17.43.27-.06.21-.11.43-.15.65-.16.03-.33.05-.5.06-.04.19-.09.38-.13.57.66-.09,1.32-.18,1.98-.26.06-.01.12-.03.18-.05.02-.19.07-.37.12-.56-.6-.42-1.21-.81-1.8-1.22-.04.18-.09.35-.13.53ZM1.51,13.59c-.03.41.11.81.2,1.2.65-.15,1.3-.29,1.96-.41-.03-.18-.06-.35-.1-.52-.26.03-.51.12-.77.13-.05-.26-.08-.56-.29-.75-.32-.3-.95-.09-.99.36ZM2.82,17.44c.1.43.4.77.74,1.04.29-.19.58-.38.87-.56-.1-.14-.19-.28-.28-.43-.2.12-.38.26-.58.37-.15-.07-.23-.25-.26-.41-.04-.46.49-.84.91-.65.27.12.39.4.46.66.13-.02.26-.04.39-.07-.05-.45-.34-.86-.73-1.08-.71-.39-1.69.35-1.52,1.14ZM18.69,16.78c.44.58.84,1.18,1.28,1.75.1-.15.19-.3.29-.45-.1-.13-.2-.26-.31-.4.13-.19.25-.38.38-.57.16.04.32.08.48.12.1-.16.23-.31.3-.49-.7-.15-1.39-.32-2.08-.47-.11.17-.23.34-.34.51ZM17.39,18.38c-.11.34.18.71.52.74.27,0,.48-.19.71-.28.14-.08.32.12.24.25-.1.22-.34.32-.53.46.06.13.13.25.2.37.33-.19.68-.43.81-.81.12-.34-.13-.76-.49-.81-.31-.03-.54.23-.83.31-.1-.03-.19-.14-.14-.25.09-.21.31-.33.5-.44-.05-.13-.1-.26-.16-.38-.36.18-.73.44-.83.85ZM5.12,18.01c-.48.17-.84.69-.75,1.21.1.54.64.99,1.2.93.49-.03.91-.46.98-.93.12-.75-.72-1.46-1.43-1.21ZM16.35,19.02c-.38.12-.73.43-.82.84-.12.6.34,1.25.96,1.31.54.03,1.1-.35,1.21-.89.09-.45-.14-.92-.53-1.16-.24-.15-.56-.17-.83-.1ZM7.17,19.12c-.3.6-.64,1.19-.94,1.8.16.08.31.16.46.24.14-.23.24-.48.39-.7.05.07.16.12.15.23.02.25-.01.49,0,.74.17.11.35.18.52.28-.02-.37.02-.77-.12-1.12.46.25.94-.42.63-.8-.29-.33-.74-.46-1.12-.68ZM13.45,20.59c-.19.48,0,1.1.45,1.38.3.18.68.15,1,.04.2-.08.44-.15.57-.33-.07-.33-.18-.65-.26-.97-.16.05-.33.1-.49.15.05.22.13.43.17.65-.07.13-.27.14-.41.14-.49-.04-.75-.73-.41-1.08.19-.22.5-.24.77-.24.03-.13.03-.27.04-.4-.54-.08-1.19.14-1.44.67ZM9.26,20.13c-.6.15-.92.88-.71,1.44.25.67,1.23.91,1.76.43.41-.37.5-1.06.14-1.5-.28-.35-.77-.47-1.2-.38ZM12.46,20.38c0,.44,0,.88.03,1.32-.27-.41-.5-.85-.74-1.27-.22,0-.44,0-.66.01.01.67.05,1.34.05,2.01.16,0,.32,0,.48,0,0-.43-.02-.86-.02-1.29.28.41.51.85.76,1.27.2,0,.41,0,.61-.01,0-.68-.04-1.36-.05-2.04-.16,0-.31,0-.47,0Z"/>
        <path class="cls-2" d="M11.11,1.79c.1.22.19.44.24.68-.14,0-.27.01-.41.02.06-.23.11-.47.16-.7Z"/>
        <path class="cls-2" d="M16.33,2.87c.32-.11.71.17.68.51-.02.27-.17.55-.41.69-.34.18-.8-.13-.77-.51.05-.28.21-.59.5-.69Z"/>
        <path class="cls-2" d="M19.68,6.67c.22-.05.44-.13.67-.16-.13.19-.3.35-.44.52-.08-.12-.16-.24-.22-.36Z"/>
        <path class="cls-2" d="M2.99,7c.31-.15.67.03.88.27.25.3.03.82-.36.85-.28,0-.57-.13-.73-.36-.18-.25-.05-.63.21-.76Z"/>
        <path class="cls-2" d="M2.01,9.45c.12-.15.38-.05.4.13,0,.13-.04.26-.07.38-.16-.04-.31-.08-.47-.12.04-.13.06-.27.14-.39Z"/>
        <path class="cls-2" d="M20.71,11.1c.42,0,.83,0,1.25-.02,0,.26.03.58-.18.77-.25.21-.68.21-.91-.04-.17-.2-.16-.47-.16-.71Z"/>
        <path class="cls-2" d="M1.78,11.97c.22-.09.45-.15.68-.2,0,.13,0,.27,0,.4-.23-.05-.46-.12-.68-.2Z"/>
        <path class="cls-2" d="M1.95,13.71c.09-.09.25-.13.34-.02.1.11.11.28.14.42-.16.03-.31.06-.47.09-.02-.16-.11-.34-.01-.49Z"/>
        <path class="cls-2" d="M20.94,14.1c.03-.14.06-.28.09-.42.18.11.37.22.56.32l.02.08c-.22,0-.45,0-.67.02Z"/>
        <path class="cls-2" d="M19.26,16.8c.22.06.44.13.66.2-.07.12-.15.24-.24.35-.13-.19-.32-.34-.42-.55Z"/>
        <path class="cls-2" d="M5.35,18.47c.37-.17.82.23.71.62-.09.27-.31.53-.6.58-.36.07-.72-.35-.57-.69.09-.22.26-.41.47-.51Z"/>
        <path class="cls-2" d="M16.35,19.49c.39-.2.76.19.84.54.14.37-.27.76-.64.67-.28-.09-.47-.37-.52-.65-.05-.23.1-.47.31-.56Z"/>
        <path class="cls-2" d="M7.23,20.11c.08-.13.16-.26.22-.4.14.07.3.12.38.26.05.16-.1.35-.27.31-.12-.03-.23-.1-.34-.17Z"/>
        <path class="cls-2" d="M9.36,20.59c.28-.15.69.01.76.34.06.29-.03.62-.26.81-.29.22-.78.02-.83-.34-.03-.29.06-.65.33-.8Z"/>
      </g>
      <g>
        <path class="cls-3" d="M11.41,4.5c2.14-.13,4.33.73,5.78,2.32,1.15,1.22,1.86,2.85,1.96,4.53.1,1.36-.21,2.74-.85,3.94-.79,1.48-2.1,2.68-3.65,3.32-1.03.43-2.16.62-3.28.55-1.53-.09-3.03-.68-4.21-1.66-1.15-.94-2-2.25-2.4-3.68-.29-1.02-.35-2.11-.18-3.15.27-1.68,1.14-3.25,2.42-4.36,1.21-1.07,2.79-1.71,4.4-1.8ZM11.08,4.8c.05.21-.06.39-.19.54.01-.13.03-.26.03-.4-.13,0-.22.11-.33.17-.13-.1-.3-.11-.45-.16-.1.15-.22.29-.38.38-.06-.04-.12-.08-.19-.11-.16.03-.22.2-.23.34-.11.02-.22.03-.32.08,0,.24-.3.17-.39.33-.15.19-.17.44-.28.65-.06.17-.21.34-.15.53.05.17-.11.31-.2.43-.27.15-.55.29-.84.42-.14.13-.32.29-.25.51.03.19.17.4.03.57-.16.14-.38.2-.56.31-.1.12-.16.27-.3.34-.21.18-.55.21-.68.49-.09.14.04.31-.03.45-.04.16-.17.31-.13.48.04.18.02.36-.01.54-.05.27-.03.57.14.8.31.25.7.32,1.06.46.24.08.5.05.75.09.09.22.03.49-.12.68-.2-.16-.44-.29-.57-.52-.06-.11-.2-.05-.27.02.01.35.19.64.3.96-.02.44-.48.69-.52,1.13.02.11.09.21.21.21-.03.08-.12.22.02.25.21-.05.27-.26.33-.44.09.27-.25.46-.2.73.14.06.21-.12.3-.19-.05.18-.15.4-.03.58.05.11.16.06.25.06.14.1.12.27.1.42-.03.1.08.21.17.17.02-.05.05-.14.06-.18.15.19.05.48.24.65.13.12.23.26.38.35.17.06.31-.08.32-.24,0,.08-.02.28.12.21.18-.11.4-.04.59-.12.12.24.42.06.62.15.03.06.06.12.09.18.06-.06.12-.13.19-.19.22-.15.54-.08.73-.28.11-.12.26-.2.41-.26.07.06.16.09.2.17.02.16,0,.33.04.49.23.03.09-.32.28-.34.03.1.05.21.07.31.1-.05.1-.19.17-.27-.02.18.11.31.28.34.05-.31-.02-.62-.09-.92l-.06-.03s-.07.12-.09.16c-.19-.03-.13-.26-.2-.39-.12-.07-.21.1-.17.2-.07-.02-.16-.09-.11-.17.06-.09.17-.11.26-.15.03-.05.06-.1.08-.15.2.03.23.22.29.38.05-.03.1-.06.14-.08-.06.34.16.68.02,1,.02.11.05.21.12.3.22-.18.56-.14.74-.35.12.07.24.27.39.16.24-.16.04-.61.34-.69-.05.25-.19.48-.19.74.1.05.2-.04.3-.02.19,0,.26-.24.44-.27.26-.04.23-.37.29-.56.05.01.14.04.19.05.07-.09.11-.21.23-.24.28-.11.4-.39.54-.63.1-.13.15-.29.22-.44.04.29-.06.57-.11.85l.07.03c.14-.12.18-.33.2-.5,0-.24.1-.46.08-.7,0,0,.02,0,.03,0,.03.3-.04.6-.07.9.25-.08.39-.33.54-.54.33.1.47-.29.55-.53.02.01.07.04.1.06.26-.05.16-.32.15-.51.03-.11.17-.08.26-.11.12-.28.2-.59.07-.88.19.14.36-.06.53-.12.13-.35.06-.72,0-1.07-.08-.16-.1-.33-.1-.51-.12-.1-.21-.23-.24-.38-.03-.17-.14-.3-.21-.46.15.09.13.38.33.35.06-.11.11-.24.04-.36-.12-.24-.17-.51-.21-.77.13.12.18.32.35.4.11,0,.25-.1.22-.22-.02-.12-.06-.23-.09-.34.16-.19-.04-.4-.15-.55.07.03.14.05.21.07.09-.02.11-.13.13-.2.03-.24-.02-.49.02-.73-.12-.13-.1-.32-.16-.48-.06-.17-.28-.14-.39-.27-.11-.11-.21-.23-.37-.26.01-.06.05-.1.09-.13.08.07.16.14.25.2.04-.11.22-.25.09-.36-.28-.16-.56-.3-.87-.4.19-.04.39.02.57.07.07-.28-.26-.35-.39-.52-.13-.02-.28-.05-.39.04-.1.09-.23.12-.36.14v-.03s.11-.01.14-.01c.06-.14.16-.24.32-.24.01-.12.05-.24.02-.36-.06-.06-.13-.11-.15-.19-.09-.02-.17-.03-.26-.05-.02-.08-.04-.16-.07-.23-.15-.03-.32-.06-.41-.2-.11.08-.23.17-.37.14.04,0,.13-.02.17-.03.02-.04.05-.11.07-.15-.11-.16-.35-.04-.39.11-.02.11-.18.11-.16-.03-.22,0-.43.04-.64.08.12-.23.45-.08.63-.19.07-.09.12-.18.19-.27-.1-.24-.39-.17-.54-.03-.12.02-.25,0-.35.07.06-.18.3-.04.35-.22-.25-.04-.51.08-.76,0-.1.04-.22.16-.33.09.05-.06.16-.09.14-.19-.1-.07-.22,0-.33.01-.04-.05-.07-.09-.11-.13-.12.05-.24-.02-.36,0,0,.2-.21.23-.35.31,0-.02.01-.05.02-.07.06-.05.12-.09.18-.14-.06-.08-.12-.15-.21-.2-.03.02-.1.06-.14.08-.15-.12-.34-.1-.51-.14-.09.09-.15.23-.29.26-.13-.15-.31-.25-.45-.39-.08-.09-.21-.07-.31-.02Z"/>
        <path class="cls-3" d="M14.15,5.65c.1-.07.22-.06.34-.05-.25.06-.48.16-.72.23.11-.1.22-.22.38-.19Z"/>
        <path class="cls-3" d="M11.89,6.1c.13-.15.26-.32.45-.39-.06.24-.21.43-.37.61-.16.15-.05.42-.22.55-.07.06-.24.06-.23-.06.07-.26.28-.45.37-.7Z"/>
        <path class="cls-3" d="M9.41,6.52c.14-.22.17-.54.38-.7-.05.14-.1.28-.05.43.18-.09.38-.07.56-.15,0,.18-.03.36-.06.54-.03.02-.09.05-.12.07-.08-.13-.23-.14-.36-.19-.07.05-.11.22-.23.12-.08.05-.14.11-.2.17-.02-.16-.1-.32-.08-.49.02,0,.05-.02.07-.02,0,.09,0,.18,0,.26l.09-.02Z"/>
        <path class="cls-3" d="M12.65,6.32c.16-.06.18-.28.35-.34-.07.22-.25.39-.35.59-.03.09-.12.13-.19.18-.08.18-.06.38-.08.58-.1-.11-.14-.25-.15-.39-.02-.16.16-.26.1-.43.09-.09.2-.14.31-.19Z"/>
        <path class="cls-3" d="M8.73,6.61c.06-.12.1-.29.25-.33-.01.08-.05.16-.09.24.06.06.12.12.18.19,0,.1,0,.2,0,.3-.1.01-.2,0-.31,0-.05.03-.1.06-.15.08-.07-.17.19-.28.12-.47Z"/>
        <path class="cls-3" d="M13.24,7.01c.17-.21.14-.6.46-.67,0,.09-.03.17-.1.23-.13.11-.13.3-.25.41-.12.13-.23.26-.32.41-.1-.14.02-.29.08-.43.04.02.08.03.12.05Z"/>
        <path class="cls-3" d="M13.87,6.7c.18-.09.42-.04.55-.22-.11.19-.27.34-.43.49-.31.07-.47.39-.68.6,0-.12.11-.22.07-.34.12-.12.22-.26.39-.3.11-.02.09-.14.1-.22Z"/>
        <path class="cls-3" d="M14.97,6.63c.27-.11.58-.24.86-.08-.38.28-.71.63-1.17.78-.2.17-.46.24-.72.22-.02.02-.07.07-.1.09-.19,0-.37.1-.56.1,0-.02.03-.06.03-.08.15-.04.34-.1.32-.29.16-.1.38-.06.55-.14.12-.06.12-.22.22-.31,0,.05,0,.15,0,.2.17.02.31-.12.47-.17.02.03.05.09.07.12.15-.07.4-.14.4-.34-.09,0-.19,0-.28,0-.06.05-.14.05-.22.05.03-.06.04-.14.12-.15Z"/>
        <path class="cls-3" d="M16.25,6.57c.08-.06.19-.05.28-.04,0,.03,0,.1-.01.13-.15-.06-.29-.02-.43.02-.06.05-.12.11-.17.16-.07-.03-.13-.06-.2-.09.18-.04.37-.08.53-.18Z"/>
        <path class="cls-3" d="M12.62,7.3c.14-.2.12-.45.2-.67.04.02.13.07.18.09-.15.23-.18.51-.22.77-.05-.07-.11-.13-.16-.2Z"/>
        <path class="cls-3" d="M11.88,6.96s.07-.1.12-.13c.14.1.04.29.06.43-.05-.11-.09-.22-.18-.31Z"/>
        <path class="cls-3" d="M9.32,7.3c.11.03.22,0,.33-.03.14.13.31.08.48.06,0,.03.03.08.04.11-.03.02-.08.05-.11.06-.08-.03-.16-.09-.25-.06-.1.06-.08.19-.11.29-.2,0-.38.12-.58.14-.02-.02-.07-.07-.1-.1-.08.05-.18.07-.27.08.01.19-.09.35-.14.52-.09.02-.19.02-.26.08-.13.09-.3.13-.39.27-.14.03-.28.07-.39.17-.09-.09-.07-.22-.12-.32-.08-.06-.23-.11-.17-.24.14-.15.36-.17.48-.34.1-.14.28-.17.43-.21.11-.07.24-.12.36-.18.14-.15.34-.29.56-.21.09.04.15-.05.21-.1Z"/>
        <path class="cls-3" d="M13.65,7.87c.18-.12.39-.05.59-.05-.02.14-.19.08-.29.08-.15-.04-.26.1-.41.12-.34.1-.42.5-.55.78-.17-.07-.11-.28-.05-.41.16-.25.42-.45.71-.52Z"/>
        <path class="cls-3" d="M14.9,7.88c.27.11.65.16.77.46.12.2.05.46.18.66-.02.11-.03.22-.03.34.04.29-.26.49-.51.54-.07.19-.19.35-.28.53-.07.11-.21.05-.31.03-.01-.02-.03-.06-.04-.08.14-.04.26-.12.37-.21-.05-.1-.17-.08-.27-.1,0-.14.15-.22.16-.36.01-.16.04-.36-.09-.49-.12,0-.23,0-.35-.01,0-.04.02-.12.03-.16-.11-.14-.3-.11-.46-.1.01-.04.03-.11.04-.14-.13-.02-.25.01-.37.02-.07-.07.05-.12.09-.17.2-.06.53.06.59-.23.14.05.3.08.44,0,.18-.1.4-.05.59-.06-.01-.27-.31-.37-.53-.41,0-.01-.02-.04-.03-.06Z"/>
        <path class="cls-3" d="M8.4,8.66c.24-.03.47-.25.72-.13-.11.33-.55.52-.48.91-.01.12-.11-.01-.13-.05-.14,0-.24.08-.27.21-.1-.05-.2-.06-.3,0-.06-.03-.12-.06-.18-.09-.1.13-.19.26-.28.39-.06.04-.13.08-.17.14-.1.15-.33.18-.37.38.13.08.29.04.41.14.23-.01.49.04.7-.09.24-.03.48.04.71.1,0,.03.03.09.03.12.08.05.16.1.24.15.24-.04.48,0,.73,0,.15-.19.41-.19.62-.28,0-.02-.02-.06-.03-.08-.19-.13-.45-.05-.62-.22-.07,0-.13,0-.2-.01.01-.27-.31-.19-.48-.26.22,0,.47-.06.64.11.14-.13.34-.13.47-.27.16-.16.36-.27.5-.45.07-.11.21-.12.33-.14.02-.03.06-.09.08-.13.1.06.21.14.31.03-.03.09.01.19.11.13.1-.04.18-.18.29-.12-.02.14.04.29.15.38.13.02.15-.12.1-.2.13.08.3.1.42.21,0,.04-.03.12-.04.17.16.14.2.39.04.54-.13.13-.05.34-.1.5-.05.08-.12.15-.19.21-.11-.16-.3-.19-.47-.2-.11.18-.01.42-.11.61-.09.03-.18-.04-.27-.07-.04-.04-.04-.13-.11-.13-.12.15-.07.37-.16.55-.1,0-.2.01-.31.02,0-.05,0-.14,0-.18-.24.12-.54.17-.73.38-.04.04-.09.07-.15.08.07.2,0,.42.05.63.15,0,.31.04.45-.02.08.25.01.56.2.78-.04.24.23.49,0,.69.05.19-.05.37-.02.55-.15,0-.15-.16-.19-.27-.03-.11-.12-.2-.19-.28-.14.08.03.27-.12.35-.13.1-.12.26-.12.41-.07-.08-.17-.16-.14-.29.05-.29-.24-.55-.1-.83.07-.15-.07-.29-.02-.44-.11-.08-.24-.14-.27-.28-.23-.03-.48.02-.69-.12-.15-.14-.36-.04-.55-.05-.19.02-.37-.08-.54-.16-.09-.07-.13.06-.18.11-.08-.03-.16-.07-.24-.1-.13.16-.26-.03-.39-.08-.26-.11-.55-.23-.69-.49-.09-.18-.11-.41-.05-.6.19-.12.37-.27.6-.3.09-.02.15-.08.23-.12,0-.16-.1-.29-.24-.37-.22-.13-.48-.1-.72-.08-.06-.07-.12-.13-.2-.17-.08.03-.16.09-.25.07-.06-.08.02-.17.04-.25.21.05.34-.15.5-.25.1.13.23.1.36.03.22.1.36-.13.53-.23.16-.1.22-.28.35-.4.14.04.23-.1.34-.16.08-.08.21-.08.3-.15.17-.15.34-.29.49-.45Z"/>
        <path class="cls-3" d="M9.66,9.21c.11-.17.28.04.4.09.09.03-.01.11-.05.12-.2.14-.47.22-.7.1-.02-.06-.04-.11-.06-.17.12.08.23.24.4.18.1-.03.26-.05.28-.18-.03-.04-.08-.12-.11-.16-.04,0-.11.01-.15.02Z"/>
        <path class="cls-3" d="M16.66,9.47c.16-.12.31.08.49.05.12-.06.17.07.2.17-.2.02-.38-.15-.57-.04-.04-.06-.08-.11-.11-.17Z"/>
        <path class="cls-3" d="M12.65,10.53c.24-.33-.08-.74.04-1.1.07.05.15.1.22.16-.02.03-.07.09-.09.12,0,.07,0,.14,0,.21.18.1.15.31.18.48-.05.08-.1.15-.15.23-.06-.04-.12-.07-.18-.11Z"/>
        <path class="cls-3" d="M17.08,9.96c.25-.11.39.15.48.33-.08,0-.15-.01-.23-.02-.1-.09-.18-.2-.26-.31Z"/>
        <path class="cls-3" d="M13.29,9.96c.05.02.12.02.16.06.01.12,0,.25-.01.37-.07.03-.16.03-.24.04-.04-.16.04-.31.09-.47Z"/>
        <path class="cls-3" d="M16.76,10.25c.12.2.37.26.51.44,0,.11,0,.22.08.31-.04-.01-.09-.02-.13-.03-.13-.17-.27-.34-.4-.52-.05-.06-.06-.13-.06-.21Z"/>
        <path class="cls-3" d="M13.71,10.46c.08.04.17.09.25.13-.02.12-.06.26.05.35,0,.17.02.34.12.48.07.04.14.08.21.11.22.24.31.55.3.87-.02.02-.06.05-.08.07,0-.27-.09-.56-.33-.71-.09-.19-.17-.4-.34-.52-.25-.01-.07.26-.02.38.1.34.25.7.13,1.05-.1-.06-.09-.19-.16-.26-.08-.03-.19-.02-.23-.11-.01-.08.02-.12.11-.12-.03-.22.03-.48-.14-.66.03-.32-.38-.42-.4-.73-.08-.04-.11-.11-.1-.2.26.08.16.47.41.58.03-.02.09-.07.12-.09,0-.13.09-.24.13-.36-.01-.08-.02-.16-.02-.25Z"/>
        <path class="cls-3" d="M5.56,10.9c.19,0,.27.25.39.38-.08.32-.25.61-.4.9-.06.12.07.22.16.28.28.17.59.34.93.34.07-.01.13.03.18.07-.24.09-.49-.02-.71-.12-.19-.09-.39-.16-.58-.26-.12-.19-.24-.44-.16-.67.04-.16.12-.31.08-.48-.05-.16.06-.31.12-.45Z"/>
        <path class="cls-3" d="M15.88,10.92c.14.06.15.25.31.27.27.07.43.37.4.64-.09-.1-.1-.24-.16-.35-.17-.2-.48-.28-.55-.56Z"/>
        <path class="cls-3" d="M16.52,11.13c.14-.02.22.11.28.22.06.13.15.24.24.36-.1-.07-.14-.18-.2-.27-.1-.1-.23-.18-.31-.31Z"/>
        <path class="cls-3" d="M15.46,11.25c.21.03.31.23.39.4.05,0,.14-.03.19-.04.14.2.2.51.47.56,0-.05,0-.14,0-.19.07.02.14.06.22.05.02.11.03.22.06.32.07.12.2.23.12.37-.22-.04-.21-.34-.42-.38-.06.19.05.36.1.54,0,.1-.03.19-.03.29.04.19.18.33.24.51.04.11-.03.25.07.34.13.14-.06.35-.22.32-.02-.17-.02-.34-.02-.51-.08-.42-.26-.81-.45-1.19-.09-.13.09-.27.02-.41-.1-.3-.37-.51-.62-.68-.08-.09-.12-.2-.14-.32Z"/>
        <path class="cls-3" d="M14.26,11.99c.12.08.11.23.14.36-.07.15-.07.31-.06.48-.06.19-.06.39-.09.58.07.14.03.29.02.43-.01.13.07.26,0,.38-.34-.33,0-.81-.05-1.21.09-.09.06-.23.05-.35-.04-.22.06-.45,0-.67Z"/>
        <path class="cls-3" d="M11.91,12.72c.05-.1.08-.23.2-.27,0,.14,0,.29.04.43.06,0,.12,0,.18,0,.07-.09.02-.22.04-.33.05.04.11.08.16.11-.04.22-.18.42-.14.64.03.25-.07.5,0,.74.09,0,.21-.04.22-.14.08-.38-.1-.79.06-1.16.08.09.17.18.28.23-.04.06-.08.11-.12.17.04.15.01.32.1.46.09.14-.03.27-.1.39-.03-.03-.09-.1-.12-.13,0,.5-.11.99-.15,1.49-.03.09-.13.13-.22.13.02-.19.16-.33.16-.52.01-.18.04-.38-.04-.56-.03-.09-.13-.17-.17-.04-.1.33-.07.68-.1,1.01,0,.18-.12.34-.28.42-.24-.28-.13-.72.15-.92-.03-.11-.13-.16-.21-.22.03-.14-.04-.27,0-.41.05-.19-.07-.36-.1-.54.01-.13.04-.27.04-.4.02-.02.05-.07.07-.1-.02-.1.02-.18.06-.26,0-.08,0-.15,0-.22ZM12,12.74c-.02.23,0,.46-.05.68-.03.11-.02.28.11.32.12-.33.02-.68-.06-1Z"/>
        <path class="cls-3" d="M15.85,12.97c-.04-.1-.11-.25,0-.32.04.07.07.15.13.21.17.16.22.39.23.61.07.06.13.14.11.24-.02.2.1.37.16.55.09.28.15.6,0,.87-.02-.04-.05-.11-.07-.15.09-.32-.08-.63-.14-.94,0-.1-.14-.1-.17-.19-.1-.32.04-.7-.17-.98l-.09.11Z"/>
        <path class="cls-3" d="M14.51,12.8s.07.02.1.03c.04.21.05.43.09.64.03.23.06.51-.14.67-.29-.41.06-.9-.04-1.35Z"/>
        <path class="cls-3" d="M15.29,13.26c.09-.02.1.11.12.17.03.23.06.46.13.68.08.22.29.37.34.61,0,.09.04.21-.06.26-.09-.41-.48-.69-.5-1.13-.08-.11-.21-.21-.19-.36.04-.08.1-.16.16-.23Z"/>
        <path class="cls-3" d="M15.74,13.32s.1.03.14.04c.07.26-.04.58.14.81.13.19.19.42.16.65-.16-.24-.35-.47-.41-.76.12-.24.08-.52-.03-.75Z"/>
        <path class="cls-3" d="M6.36,13.35c.21.12.32.37.52.51-.04.05-.08.09-.12.14-.18-.18-.36-.39-.4-.65Z"/>
        <path class="cls-3" d="M7.9,13.39s.04,0,.05,0c0,.22.04.44.09.66-.08.01-.16.01-.24.01,0-.22-.07-.51.1-.68Z"/>
        <path class="cls-3" d="M13.79,14.06c.04-.12-.05-.27.07-.36.01.13.09.24.11.36,0,.3-.12.57-.22.85-.01-.01-.03-.04-.04-.05.02-.27.02-.54.09-.8Z"/>
        <path class="cls-3" d="M6.69,14.4c.16.01.3.07.46.08.3-.02.6-.03.89.01.3.04.38.54.72.47.27-.14.51-.32.74-.52-.07.16-.21.32-.14.51.1.21.13.44.19.66-.2.05-.2-.17-.26-.29-.05.05-.09.09-.14.14-.13,0-.27,0-.4,0-.15.05-.23.19-.34.28l.06-.21c-.1-.12-.3-.04-.44-.04-.02-.02-.06-.08-.08-.1-.11,0-.27.05-.33-.08,0-.09,0-.18.02-.27-.24-.03-.23.3-.41.39,0-.19.16-.31.24-.48-.03-.03-.09-.1-.13-.13-.1.11-.12.26-.24.35-.14.1-.12.34-.32.37.03-.08.07-.17.1-.25-.06-.09-.07-.19-.04-.29-.1-.13-.28-.09-.42-.06.05-.07.12-.12.19-.16.1.04.21.15.32.09.03-.11,0-.22,0-.33-.09-.03-.22-.02-.25-.13Z"/>
        <path class="cls-3" d="M11.06,14.84c.11-.06.11-.25.27-.24.12.42-.24.84-.02,1.24-.02.08-.02.17-.07.23-.1.13-.06.35-.25.4-.06-.19.13-.34.09-.53-.01-.1-.05-.19-.12-.25-.09.17-.08.4-.29.49-.01-.23.16-.42.14-.65-.14-.06-.1.2-.21.12-.03-.01-.08-.04-.11-.05.09-.21-.02-.42-.01-.64.08-.15.3-.12.39-.27.06.05.1.16.2.15Z"/>
        <path class="cls-3" d="M15.29,14.81c0-.05-.12-.17,0-.19.11.09.16.23.23.35,0,.28.08.57-.02.84-.06-.05-.1-.13-.12-.2.1-.17.17-.52-.1-.55-.05-.06-.1-.12-.15-.18.05-.03.11-.05.16-.07Z"/>
        <path class="cls-3" d="M13.96,15.07c.07-.11.15-.2.24-.3-.01.15-.17.25-.12.41.03.09-.05.16-.09.23-.03.3.12.56.16.85.03.02.08.07.11.1.03-.12.03-.25.03-.37.01.02.04.05.06.07,0,.33.05.67-.06.99-.05.16-.02.36-.17.46,0-.15.08-.32,0-.46-.09.04-.07.19-.14.27-.04-.37.08-.75-.03-1.12.04-.26,0-.51,0-.77-.03-.11.08-.17.14-.23-.02-.03-.07-.09-.09-.12Z"/>
        <path class="cls-3" d="M14.52,15.43c-.02-.21,0-.43.16-.58,0,.19.05.48-.16.58Z"/>
        <path class="cls-3" d="M14.93,14.99c.17.09.32.21.41.37-.01.04-.04.12-.06.16-.25.26-.25.62-.26.95-.01,0-.03,0-.04,0,0-.4.05-.83-.14-1.19.03-.02.08-.07.11-.09l-.02-.21Z"/>
        <path class="cls-3" d="M10.19,15.38c.18.05.07.26.1.39.03-.01.1-.03.13-.05,0,.38-.22.74-.17,1.13,0,.1.08.14.16.17.05-.04.11-.08.16-.12-.02.08.03.21-.07.25-.11.04-.15.15-.16.27-.03-.09-.09-.17-.15-.25-.1-.1-.08-.26-.09-.39.08-.19.04-.4.08-.6.05-.27.02-.54.02-.81Z"/>
        <path class="cls-3" d="M14.51,15.61c.07.02.23-.02.2.11-.04.3.15.61,0,.9-.08.14-.03.34-.18.45-.02-.12.06-.22.1-.33.04-.23-.06-.44-.11-.66-.04-.15.03-.31-.01-.47Z"/>
        <path class="cls-3" d="M7.88,15.64c.11.07.23.13.31.23.06.09-.03.19-.06.27.05.06.12.11.15.18-.11.14-.07.33-.15.49.05.04.11.08.16.13.05-.04.1-.08.15-.12,0,.07,0,.14,0,.22.13.06.21-.09.29-.16l.03.13c.1-.09.16-.23.31-.27,0-.09,0-.19.01-.28.1,0,.2.01.3.01.01.19-.04.41.12.56.05,0,.15,0,.21,0,.08-.14-.1-.26-.08-.39.16-.02.16-.22.28-.29.12.04.04.17.03.26-.04.14-.04.3.01.44-.04.08-.09.16-.14.23-.05-.06-.05-.21-.15-.17-.12.01-.11.13-.09.22-.06.03-.13.06-.19.09.03.11-.04.24-.16.25-.14.03-.18-.12-.24-.2-.18-.05-.38,0-.56-.04-.06-.07.06-.22-.08-.26-.03.02-.1.05-.14.06,0-.08,0-.15,0-.23-.09-.03-.13.07-.17.13-.07.13-.08.28-.11.42-.06-.06-.12-.13-.19-.19-.04.03-.07.06-.11.08-.03-.25-.19-.5-.1-.76.17.03.42.31.52.05.13-.22-.07-.42-.04-.65-.04-.2-.18.07-.26.11-.01-.12.05-.21.13-.29,0-.09,0-.18,0-.27Z"/>
        <path class="cls-3" d="M13.58,15.92s.09-.08.12-.11c.1.11-.03.19-.07.28.02.03.07.09.09.11-.02.03-.06.1-.08.13.07.1.19.2.16.33-.03.06-.06.11-.09.17,0,.12.05.26-.04.37-.08-.07-.15-.15-.21-.23.02-.08.04-.16.04-.24.02-.11-.12-.14-.2-.17-.07.06-.14.11-.21.17-.02.08.03.23-.09.23-.17-.12-.03-.4-.24-.5-.14.18-.14.42-.16.63.03.22.1.53-.14.66-.03-.24.03-.48.06-.72-.07-.2-.31-.13-.47-.17-.03-.17.01-.34.03-.51-.04,0-.12,0-.15,0,.04-.05.07-.09.11-.14.16.06.31.21.49.12.03.02.1.05.14.07.05-.12.11-.24.15-.36.02.08.04.15.07.23.13-.05.32-.05.35-.23.05.07.11.1.18.1.05-.09-.07-.24.05-.28.02.01.07.04.1.05Z"/>
        <path class="cls-3" d="M8.72,16.54c.03-.07.03-.18.14-.14.09.18-.07.37-.16.51-.01-.12-.04-.26.02-.37Z"/>
      </g>
    </g>
  </g>
</svg>