<?xml version="1.0" encoding="UTF-8"?>
<svg id="Layer_2" data-name="Layer 2" xmlns="http://www.w3.org/2000/svg" viewBox="0 0 65.37 16.62">
  <defs>
    <style>
      .cls-1 {
        fill: #7ea65f;
      }

      .cls-1, .cls-2, .cls-3, .cls-4 {
        stroke-width: 0px;
      }

      .cls-2 {
        fill: #902c20;
      }

      .cls-3 {
        fill: #e0b54a;
      }

      .cls-4 {
        fill: #5d7db5;
      }
    </style>
  </defs>
  <g id="Layer_1-2" data-name="Layer 1">
    <g>
      <g>
        <path class="cls-1" d="M11.71.28c.08-.12.22-.21.36-.27.06-.03.12,0,.16.06.03.03.06.05.1.06.03.01.05.02.05.04,0,.05-.03.09-.04.14,0,.06.02.13-.01.19-.02.05-.09.14-.14.15-.03,0-.04-.04-.06-.05-.03,0-.07.08-.06.15,0,.04.02.08.02.11-.03.1-.14.22-.21.3,0,.02,0,.03.03.04.03.01.08.03.11.07.17.28.08.66-.11.92-.05.08-.11.16-.15.24-.03.06-.02.13-.02.2,0,.1-.08.19-.13.28-.06.13-.19.34-.34.21-.01-.01-.02-.02-.03-.02,0,0,0,.02,0,.06,0,.12-.1.2-.12.31-.21.55-.15.06-.1-.17.02-.12.03-.23,0-.34-.03-.11-.08-.22-.04-.33.02-.06.06-.1.07-.16.01-.07-.02-.13-.02-.21,0-.22-.06-.5.09-.68.15-.15.27-.32.39-.5.02-.04.05-.09.09-.11.07-.04.14.09.2.09.06,0,.06-.08.05-.12-.03-.11-.19-.05-.25-.09-.04-.03-.03-.08-.02-.13.04-.16.07-.32.14-.45h0ZM11.16,2.47c-.1.04-.05.23.06.18.09-.04.04-.19-.05-.18h0Z"/>
        <path class="cls-1" d="M13.18.38c.13-.03.22-.2.34-.25.1-.03,0,.09,0,.13,0,.05.08.04.1.12.02.06-.04.15,0,.21.04.01.06-.05.08-.08.03-.08,0-.21.04-.24.04,0,.07.04.11.05.03.02.07,0,.1,0,.03-.01.05-.02.05,0,0,.03-.02.06-.03.08-.04.08-.03.16-.07.22-.02.03-.05.04-.08.05-.05.02-.06.07-.09.14-.01.05-.13.12-.04.16.01,0,.04.01.04.03,0,.03-.09.08-.14.14-.05.05-.06.2-.15.14,0,0-.01,0-.02-.01-.04-.04,0-.1-.03-.09,0,0,0,0-.01,0-.07.05-.16.07-.23.09,0,0,0,0,0,0,.04.02.1.04.13.07.04.03.08.04.13.05.02.01.02.03,0,.06-.01.03-.04.07-.04.11-.02.07.11.07.08.11-.02.02-.04.03-.07.05-.12.05-.24.12-.36.17-.08.04-.19.04-.26.09-.03.02-.06.06-.09.08-.13.13-.09-.12-.08-.19.02-.15.02-.3.11-.42.05-.08.13-.14.15-.22.02-.08-.02-.17,0-.26.03-.22.05-.56.32-.58h0ZM13.3.44s.04.06.07.09c.03.02.06.07.09.06,0-.03.01-.09.02-.13,0-.03,0-.03-.04-.03-.04,0-.1,0-.14,0h0ZM13.21.61c-.07.07.05.19.1.08.02-.05-.04-.13-.09-.09h0ZM13.01,1.06c.06.06.11-.14.17-.05.02.03.03.12.07.12.02,0,.03-.02.04-.04.02-.04.05-.08.07-.11.01-.04-.05-.03-.09-.04-.09,0-.19-.01-.23-.11-.01-.03-.02-.01-.03.02-.02.06-.04.14-.02.2h0Z"/>
        <path class="cls-1" d="M14.93,1.17c.09,0,.03.12-.02.13-.13.03-.06-.13.02-.13h0Z"/>
        <path class="cls-1" d="M14.58,1.2s.09-.03.13-.05c.03,0,.05-.01.06,0,.02.05,0,.12.02.18,0,.06.02.11.04.17,0,.01,0,.02,0,.03-.03.02-.1.02-.15.03-.05,0-.13.03-.18.02-.01-.03.02-.07.02-.11.03-.09.03-.18.05-.27h0Z"/>
        <path class="cls-1" d="M15.08,1.5c-.05-.08.01-.22.06-.29.03,0,.07.03.08.06.04.09-.07.19-.13.23h0Z"/>
        <path class="cls-1" d="M14.63,1.58s.07.06.08.09c-.02.05-.05.11-.07.16-.02.05-.05.11-.1.11-.02,0-.02-.03-.03-.05-.01-.06-.03-.13-.03-.19,0-.02.05-.04.07-.07.03-.02.05-.05.07-.05h0Z"/>
        <path class="cls-1" d="M15.03,1.61s.05,0,.07.01c.03.03,0,.09,0,.12,0,.02,0,.03.01.05,0,.03-.04.06-.07.06-.07.02-.11-.07-.16-.03-.01.01-.03.03-.03.05-.03.07,0,.18-.06.22-.03.03-.07.04-.09.07-.01.03,0,.07,0,.1,0,.16-.23.24-.3.37-.05.07,0,.14,0,.21,0,.06-.07.12-.1.19-.03.08-.03.16-.05.23-.11.23-.23.49-.44.63-.18.12-.35-.11-.34-.28-.03-.34.03-.75.45-.74.05,0,.08,0,.08-.05-.01-.05-.03-.11,0-.17.05-.11.12-.23.2-.33.01-.02.04-.04.05-.04.03,0,.03.07.04.09,0,.01.01.01.02,0,.06-.11.08-.26.15-.37.08-.08.19-.09.22-.21.03-.05.11-.31.17-.17.01.03.03.05.06.04.04-.02.07-.07.12-.08h0Z"/>
        <path class="cls-1" d="M13.14,1.84c.05-.02.1.05.09.11,0,.08-.09.12-.16.14,0,0-.01,0,0,.01.04.05.13.09.15.16.04.08-.09.29.05.2.03-.02.12-.1.1-.03-.04.11-.12.21-.15.32-.06.16-.09.35-.22.46-.12.12-.31.1-.44.19-.08.06-.09.19-.15.28-.04.06-.12.13-.06.2.05.03.05-.06.11-.08.04-.01.1,0,.14,0,.13,0,.23-.17.35-.08.06.04.12.13.06.2-.04.04-.14.06-.17.11-.03.04,0,.08,0,.12.01.06-.02.12.03.15.03.02.09.03.12.05.06.07-.19.1-.23.13-.18.08-.32.38-.54.34-.1-.04.07-.1.14-.15.06-.04.26-.26.07-.13-.14.1-.29.19-.41.31-.06.06-.18.2-.21.04-.02-.11.05-.22.05-.34,0-.04,0-.09,0-.12.03-.06.13-.03.16-.11.02-.05.02-.14-.02-.18,0,0,0,0-.01,0-.01.03-.03.06-.06.08-.06.04-.19,0-.26.03-.04.02-.04.08-.07.12-.02.04-.12,0-.19.01-.04,0-.13.03-.11-.04.01-.04.05-.09.03-.13-.03-.05-.11-.11-.17-.12-.06-.02-.11.05-.16.06-.01,0-.02-.02-.02-.04,0-.07,0-.16.01-.23.02-.07.11-.11.15-.2.03-.06.04-.12.07-.18.03-.06.09-.08.16-.1.14-.03.29-.07.42-.14.06-.03.12-.08.14-.14.01-.03.02-.06.06-.05.06.04.1.11.16.15.04.04.29.2.17.02-.14-.16-.15-.39-.11-.6.01-.06.02-.12.06-.16.03-.05.09-.06.14-.08.07-.02.1-.09.16-.14.12-.08.23-.18.31-.3.02-.02.04-.04.06-.05.05-.03.11,0,.13-.01.02,0,.04-.03.06-.04h0ZM11.4,3.57s-.02.04-.01.06c0,0,.02,0,.04,0,.1,0,.21.02.32.02-.08-.05-.24-.07-.34-.08h0ZM11.95,3.61s0,.13.01.14c0,0,.03,0,.05-.02.02,0,.04-.02.05-.03,0-.01.04-.07.03-.09-.02-.01-.12-.01-.14-.02h0ZM12.83,3.77c-.06.09.11.18.13.06.01-.07-.08-.13-.13-.07h0Z"/>
        <path class="cls-1" d="M8.27,3.1c-.04-.14.07-.31.22-.27.04.01.06.04.08.08.03.05.04.09,0,.15-.01.03-.02.05-.04.05-.02,0-.05-.03-.07-.06-.04-.03-.1-.12-.15-.13-.03.02-.03.14-.05.17h0Z"/>
        <path class="cls-1" d="M7.73,2.97c.06-.04.1-.05.19-.03.1,0,.21.06.24.16.02.04-.01.14.06.12.08-.03.17,0,.22.07.07.08.15.16.18.25.02.09.03.22-.02.29-.05.08-.18.11-.19.21,0,.12.19.11.1.26-.08.2-.17-.03-.2.09,0,.03,0,.08-.01.11-.02.04-.04-.02-.06-.05-.02-.04-.05-.07-.08-.09-.06-.04-.16.04-.17-.04,0-.22-.19-.39-.28-.57-.09-.13.04-.14.06-.26,0-.06,0-.12-.03-.17-.03-.09-.3-.13-.23-.25.06-.05.17-.04.23-.09h0ZM7.88,3.72s.02.03.03.05c.12.16.15.4.34.46.04.02.07,0,.07-.05,0-.11-.02-.22-.02-.33,0-.09-.1-.07-.16-.06-.03.01-.02.04,0,.09.02.04.04.1.05.13,0,.02,0,.03-.03.01-.06-.04-.09-.11-.12-.17-.02-.05-.04-.1-.09-.12-.02,0-.05-.02-.06-.01h0Z"/>
        <path class="cls-1" d="M16.54,3.1c.05-.02.11.05.14.09.05.1.06.24-.03.32-.02.02-.01.03.02.04.04.01.13,0,.11.07-.02.05,0,.1-.02.14-.02.03-.07.03-.1.02-.16-.09-.12-.09-.29.02-.14.07-.33.14-.38.31,0,.03-.01.06-.03.08,0,0,0,0-.01,0-.03,0-.09-.04-.13,0-.06.03-.08.11-.12.17-.15.27-.39.5-.68.62-.14.07-.3.1-.46.09-.07,0-.15,0-.19-.05-.04-.08-.01-.18,0-.27.04-.16.16-.29.28-.38.08-.05.12-.01.18-.09.03-.04.07-.09.12-.12.07-.04.16-.02.24-.06.06-.03.1-.09.13-.14.03-.05.04-.03.06.03.05.17.04-.07.06-.16,0-.03.02-.06.05-.08.05-.03.11-.05.13-.11.02-.06.07-.19.12-.15.03.02,0,.13.04.1.12-.12.25-.26.42-.33.05-.03.06-.08.08-.1.03-.03.08-.01.09.02,0,.02,0,.05,0,.07-.02.06.04.07.05.12,0,.01,0,.02.01.04.04.18.12-.14.11-.19,0-.03,0-.08.01-.11h0Z"/>
        <path class="cls-1" d="M13.47,3.96c.14.02.05.18.06.28,0,.11.06.22.16.26.1.04.03.11,0,.16-.18.24-.28.12-.45-.04-.05-.05-.16-.08-.18-.15,0-.05.06-.07.09-.11.07-.06.13-.13.18-.21.05-.06.08-.15.14-.19h0ZM13.19,4.48c.07-.02.19-.05.26-.09.01-.03-.01-.1-.01-.14,0-.02,0-.04-.01-.04-.09.06-.18.17-.23.26h0Z"/>
        <path class="cls-1" d="M8.6,4.13c.05-.01.1.06.14.09.05.07.29.12.21.21-.04.03-.12.02-.16.05-.05.03,0,.07.04.07.11.02.26.01.34.07.04.02.07.06.11.08.06.04.15.06.18.13.02.04.01.09.03.12.09.16.61-.3.71-.38.06-.05.14-.12.22-.13.2-.01-.06.25.15.22.2-.03.61-.2.33-.42-.04-.04.04-.03.08-.04.45-.01.19.08.04.32-.06.08-.14.18-.12.2.05.02.15-.09.18-.13.07-.08.12-.19.19-.18.08,0,.07.12.09.18,0,.02.05-.06.08-.02.04.05.05.12.03.18-.04.08-.09.17-.08.27-.01.21-.07.42-.16.61-.01.03-.04.09-.07.09-.05,0-.09-.04-.15-.02-.07.03-.13.09-.2.13-.07.05-.14.06-.2.1,0,0,0,0,0,.01.01.02.05.08.05.15,0,.03,0,.07,0,.1.03.07.06-.09.07-.11.02-.07.09-.09.14-.19.01-.02.03-.05.04-.07.07-.12.13-.05.17.08.05.08.08.33-.06.24-.03-.02-.08-.13-.11-.06-.02.13.03.3-.02.42-.01.04-.04.07-.04.11-.02.06,0,.14-.05.14-.06,0-.08-.08-.13-.11-.06-.02-.05.09-.04.12.02.07.12.15.17.16.04,0,.06-.02.08-.04.04-.03.08-.01.12.03.04.04.07.08.11.12.07.07.06.14.08.23,0,.11-.43-.16-.5-.16-.11-.03-.26-.05-.36-.05-.04,0-.09,0-.12-.03-.06-.04-.16-.21-.23-.09-.03.06-.03.17-.09.22-.02.02-.06.03-.06,0,0-.03.03-.11,0-.16-.04-.06-.16-.07-.17.02,0,.03,0,.06.01.09.01.05,0,.15-.07.15-.05,0-.05-.12-.11-.2-.02-.04-.06-.07-.09-.1-.04-.04-.09-.11,0-.11.06,0,.13.04.19.01.07-.03.05-.17-.03-.21-.05-.03-.11-.02-.15.02-.03.02-.06.06-.09.03-.03-.03-.05-.11-.02-.14.01-.02.04-.03.05-.05,0-.01,0-.03-.02-.05-.04-.03-.11-.04-.15-.08-.05-.05-.08-.12-.11-.17-.14-.2-.22-.35.07-.42.04,0,.1,0,.1-.05,0-.03-.03-.12-.08-.14-.11-.02-.19.08-.24-.09-.02-.08-.03-.17-.06-.25-.04-.12-.11-.24-.12-.36,0-.15-.09-.26-.16-.38-.05-.1,0-.19,0-.31,0-.04,0-.09.01-.11h0ZM10.93,5.11s.07.08.1.11c.03.03.06.05.03.06-.04,0-.1-.02-.12.01,0,.02.02.05.04.09.05.1.16.1.22,0,.12-.18,0-.4-.01-.61,0-.09-.03.02-.05.08-.02.05-.04.1-.07.15-.02.05-.1.08-.13.1h0ZM10.05,5.08s.01.06.04.07c.02,0,.06,0,.07-.03,0-.03,0-.06-.03-.07-.02,0-.06.01-.07.02h0ZM9.4,5.21c-.07.06.04.2.09.09.02-.05-.03-.14-.09-.1h0Z"/>
        <path class="cls-1" d="M10.58,4.54c.08-.06.23-.09.3,0-.07.08-.22.05-.3,0h0Z"/>
        <path class="cls-1" d="M13.83,4.99s.04-.03.06-.05c.05-.08.12-.16.2-.21.05-.03.12-.04.13.03.01.06.01.13.04.18.03.08.11.14.11.21,0,.04-.01.08-.03.12-.11.14-.19.32-.31.46-.07.06-.19.01-.26.09-.08.08,0,.21-.08.3-.1.12-.17-.05-.18-.14-.01-.05-.04-.06-.08-.03-.05.04-.08.12-.13.11-.13-.04-.15-.24,0-.28.34-.08.09-.09.08-.29,0-.09,0-.18.04-.24.02-.03.06-.07.07-.11,0-.07-.06-.14.04-.18.06-.03.13-.02.2,0,.04.01.07.03.1.02h0Z"/>
        <path class="cls-1" d="M12.36,4.81s.07-.02.09,0c.02.02.02.06,0,.09-.02.01-.04.01-.06.01-.05,0-.05-.06-.04-.1h0Z"/>
        <path class="cls-1" d="M12.71,5.05c.07-.07.17-.13.24-.19,0,0-.03.03-.04.05-.02.04-.02.09-.02.14,0,.03.01.06,0,.08-.06.04-.19,0-.18-.08h0Z"/>
        <path class="cls-1" d="M12.33,4.98s.06-.03.08-.03c.02,0,.04.04.03.07-.02.02-.06.04-.08.03-.02,0-.03-.04-.04-.06h0Z"/>
        <path class="cls-1" d="M12.92,5.25s.05,0,.07,0c.02,0,.02.02,0,.04,0,.01-.02.03-.01.05.02.04.09.07.11.11-.01.01-.06.01-.08.02-.03,0-.06.01-.08,0-.02-.02-.01-.07-.02-.11,0-.03-.01-.08,0-.11h0Z"/>
        <path class="cls-1" d="M13.16,5.5s.06.01.07.04c0,.02,0,.06-.02.08-.03,0-.06-.01-.07-.04-.01-.02,0-.06.02-.08h0Z"/>
        <path class="cls-1" d="M12.83,5.59c.08.05.27.22.12.29-.01,0-.02-.02-.02-.03-.04-.08-.11-.16-.1-.26h0Z"/>
        <path class="cls-1" d="M12.27,5.79c.05,0,.09-.11.16-.14.06-.04.13.02.1.09-.02.08-.14.1-.16.18,0,.07.16.14.23.11.06-.02.1-.1.16-.1.07,0,.11.15.09.19,0,0-.01.01-.02.01-.15-.02-.2.02-.25.17-.05.13-.05.36.14.25.08-.06.19-.13.21-.24,0-.05.07-.13.09-.05,0,.06-.04.13-.06.19-.06.13-.09.28-.21.36-.04.02-.16.12-.19.05,0-.05.01-.13-.02-.18-.05-.08-.15-.15-.25-.13-.06,0-.12-.04-.1-.1,0-.04.04-.08.07-.11.03-.03-.03-.03-.04-.09,0-.03,0-.06-.01-.08-.04-.02-.1.03-.13,0-.02-.05.1-.1.12-.14.03-.05-.01-.09-.08-.1-.04,0-.09,0-.13,0-.07,0-.2-.05-.14-.06.05,0,.11-.02.13-.07.04-.07.13-.17.2-.12.04.02.04.08.08.1h0Z"/>
        <path class="cls-1" d="M13.04,6.05c.08,0,.18,0,.25.05.03.02.07.05.05.09-.03.05-.08.06-.14.07-.03,0-.07,0-.1,0-.06-.04-.07-.13-.07-.19h0Z"/>
        <path class="cls-1" d="M11.26,6.42c.06-.11.15-.24.24-.33-.02.13-.04.37-.24.33h0Z"/>
        <path class="cls-1" d="M11.83,6.29s.1-.16.16-.11c.02.02.05.06.05.1,0,.01,0,.02-.02.03-.07.06-.12.13-.17.2-.06.08-.11.2-.22.22-.06,0-.12-.08-.15-.12,0,0,0,0,.03,0,.05.03.11.04.16,0,.09-.08.02-.21.03-.32.02-.05.09,0,.13,0h0Z"/>
        <path class="cls-1" d="M11.06,6.46c.06-.03.11.07.09.12-.05.09-.15-.06-.1-.12h0Z"/>
        <path class="cls-1" d="M11.35,6.44c.11.05.1.22.02.3-.05,0-.13-.07-.18-.09,0,0,0,0,.02,0,.03,0,.08.03.1.02.01,0,0-.03.01-.06,0-.05,0-.13.02-.17h0Z"/>
        <path class="cls-1" d="M13.29,6.5c.05.02.04.1,0,.14-.08.09-.03.29-.17.32-.04-.02-.02-.09-.01-.13.04-.12.12-.22.18-.33h0Z"/>
        <path class="cls-1" d="M11.86,6.8c.12.01.36-.02.36.16,0,.01-.03,0-.05,0-.05,0-.11,0-.16-.01-.06-.04-.11-.1-.15-.15h0Z"/>
        <path class="cls-1" d="M11.29,6.84c.12-.06.15.17.04.2-.09,0-.09-.15-.05-.2h0Z"/>
        <path class="cls-1" d="M13.01,6.99s.03.03.04.04c.01.02.03.04.03.05,0,.01-.04.02-.06.03-.08.03-.08.03-.06.11,0,.01,0,.02-.02.02-.02,0-.07,0-.09,0-.02,0,0-.03.02-.06.04-.06.08-.14.13-.2h0Z"/>
        <path class="cls-1" d="M10.72,7.24s.08.03.12.05c.01,0,.03.01.03.02,0,.01-.02.03-.03.04-.03.04-.07.09-.11.12-.01,0-.01-.03-.01-.05,0-.06-.01-.13,0-.18h0Z"/>
        <path class="cls-1" d="M10.23,7.51c-.03-.08-.1-.27.07-.19.07.05.03.19-.06.2h0Z"/>
        <path class="cls-1" d="M11.28,7.72c.08-.05.18.11.07.12-.06,0-.12-.07-.07-.12h0Z"/>
        <path class="cls-1" d="M12.31,7.75c.08.02.23.03.14.14-.04.02-.12.04-.17.04,0-.03.02-.15.03-.18h0Z"/>
      </g>
      <g>
        <path class="cls-2" d="M23.48,3.86c.77-.42,1.65-.62,2.53-.61,1.13,0,2.22.37,3.22.87,0,.26,0,.51,0,.77-.98-.51-2.04-.95-3.17-.97-.9-.03-1.82.24-2.56.76-.86.61-1.47,1.57-1.65,2.61-.32,1.64.43,3.46,1.88,4.33.85.51,1.87.69,2.85.55.93-.13,1.81-.5,2.64-.93,0,.26,0,.53,0,.79-1.03.52-2.17.87-3.33.85-1.01,0-2.01-.3-2.85-.87-.76-.51-1.37-1.25-1.72-2.1-.49-1.17-.5-2.54,0-3.71.42-1,1.2-1.83,2.15-2.35Z"/>
        <path class="cls-2" d="M33.35,3.33c.1,0,.2,0,.3,0,1.35,3.13,2.7,6.26,4.05,9.39-.26,0-.52,0-.79,0-.46-1.08-.91-2.16-1.37-3.24-1.36,0-2.72,0-4.08,0-.45,1.08-.91,2.16-1.37,3.24-.26,0-.53,0-.79,0,1.34-3.14,2.7-6.27,4.05-9.4ZM33.5,4.63c-.59,1.41-1.19,2.81-1.78,4.22,1.19,0,2.37,0,3.56,0-.59-1.41-1.18-2.82-1.78-4.22Z"/>
        <path class="cls-2" d="M18.47,3.41c.27,0,.54,0,.81,0,0,3.1,0,6.2,0,9.31-.27,0-.54,0-.81,0,0-3.1,0-6.21,0-9.31Z"/>
        <path class="cls-2" d="M42.95,3.41c1.68,0,3.35,0,5.03,0v.6c-1.43,0-2.86,0-4.29,0-.01,1.23,0,2.45,0,3.68,1.38,0,2.77,0,4.15,0,0,.2,0,.41,0,.61-1.38,0-2.77,0-4.15,0v3.79c1.46,0,2.93,0,4.39,0,0,.21,0,.42,0,.63-1.71,0-3.43,0-5.14,0V3.41Z"/>
        <path class="cls-2" d="M49.65,3.41c.25,0,.49,0,.74,0,0,1.44,0,2.87,0,4.31,2.06.01,4.12,0,6.19,0,0-1.44,0-2.87,0-4.31.25,0,.5,0,.75,0,0,3.1,0,6.21,0,9.31-.25,0-.5,0-.75,0,0-1.45,0-2.89,0-4.34-2.06,0-4.12,0-6.18,0,0,1.45,0,2.89,0,4.34-.25,0-.5,0-.74,0,0-3.1,0-6.21,0-9.31Z"/>
        <path class="cls-2" d="M59.52,3.41c.79,0,1.58,0,2.38,0,.77.02,1.59.26,2.12.84.53.56.65,1.41.47,2.14-.15.65-.65,1.16-1.24,1.43.57.16,1.15.41,1.56.87.49.55.64,1.34.52,2.05-.13.71-.63,1.31-1.27,1.62-.6.3-1.28.33-1.94.34-.87,0-1.74,0-2.61,0,0-3.1,0-6.21,0-9.31ZM60.26,4.02c0,1.22,0,2.44,0,3.65.53,0,1.05,0,1.58,0,.47,0,.94-.13,1.31-.43.76-.58.86-1.82.26-2.54-.39-.46-1-.65-1.58-.67-.52-.01-1.05,0-1.57,0ZM60.26,8.31c0,1.26,0,2.53,0,3.79.56,0,1.12,0,1.69,0,.59-.01,1.2-.07,1.74-.33.36-.17.65-.5.76-.89.18-.6.11-1.31-.32-1.79-.48-.55-1.24-.77-1.95-.78-.64,0-1.28,0-1.92,0Z"/>
        <path class="cls-2" d="M40.56,6.53c.53-.18,1.11.04,1.51.41-.13.22-.25.44-.37.65-.34-.27-.79-.55-1.24-.39-.55.21-.9.73-1.22,1.2-.1.19-.3.36-.28.6,0,1.24,0,2.48,0,3.73-.23,0-.46,0-.68,0,0-2.05,0-4.1,0-6.15.23,0,.46,0,.69,0,0,.5,0,1.01,0,1.51.43-.61.87-1.31,1.61-1.56Z"/>
      </g>
      <g>
        <path class="cls-3" d="M3.47,4.2s.16-.02.19.04c.02.05-.02.1-.02.15-.02.09.07.18.11.25.08.13.17.24.33.24,0,0,.01,0,.02,0,.05.02-.02.1.02.14.07.06.18.08.26.13.36.16.67.53.66.94,0,.08,0,.17-.07.21-.19.06-.43,0-.58-.13-.08-.07-.12-.17-.2-.24-.03-.03-.07-.05-.09-.09-.02-.04-.02-.08-.03-.12-.01-.08-.07-.13-.13-.18-.05-.05-.11-.08-.17-.09-.02,0-.05,0-.07-.01-.01,0-.01,0-.01-.02,0-.02.02-.04.01-.06-.02-.08-.38-.06-.25-.19.07-.06.02-.08-.03-.11-.13-.07-.23-.21-.22-.36,0-.07.06-.2-.03-.24-.01,0-.03,0-.04.01-.05.06.02.17-.02.23-.01.02-.04.04-.06.01-.01-.02-.01-.06-.02-.1,0-.07-.03-.15-.01-.22.02-.06.08-.09.16-.1.09-.02.16,0,.23.03.05.01.02-.1.05-.13h0Z"/>
        <path class="cls-3" d="M1.34,6.14c-.03.1-.2.01-.17-.07.04-.08.17-.03.18.06h0Z"/>
        <path class="cls-3" d="M.92,6.21c.08.06.21.02.27.1.03.04.04.09.08.12.03.02.07,0,.11,0,.13-.02.26.1.39.1.04-.01-.03-.04-.05-.05-.05-.02-.11-.04-.15-.07-.03-.04.08-.07.05-.13-.01-.04-.05-.07-.05-.11,0-.05.09-.04.12-.02.05.03.04.11.09.15.07.05.17,0,.25.02.05.01.06.06.09.09.03.04.13-.01.2.02.11.04.18.17.3.2.08.02.16-.02.25,0,.05,0,.1.04.15.05.08.01.16-.02.25.02.21.09.65.18.66.44-.02.15-.17.23-.31.25-.2.03-.42.08-.59-.03-.09-.05-.17-.17-.15-.27.01-.04.06-.04.08-.04.02,0,.01-.01-.02-.03-.05-.02-.11-.02-.17,0-.31.09-.51-.26-.78-.33-.12-.04-.25-.01-.36-.02-.04,0-.07-.03-.1-.05-.03-.02-.05.07-.09.06-.04,0-.07-.04-.12-.04-.04,0-.1.05-.16.03-.11-.03-.1-.17-.14-.27-.02-.06-.07-.12-.1-.17h0Z"/>
        <path class="cls-3" d="M5.02,6.45c0-.07.07-.14.14-.17.1-.03.22.07.33.1.14.06.29.11.32.26.01.05.07.13.02.17-.03.02-.11,0-.17-.04-.06-.03-.15-.2-.14-.06,0,.09.06.18.16.19.07,0,.15,0,.21.05.06.04.11.15.14.17.02.02.05,0,.07,0,.05.01.04.07.02.12-.03.05-.04.12-.1.14-.05.02-.13-.07-.17-.15-.03-.04-.04-.13-.09-.14-.04,0-.07.07-.1.09-.07.07-.18.05-.29.08-.06.02-.13.04-.19.03-.15-.04-.19-.22-.15-.36.03-.15-.11-.16-.21-.24-.22-.17.08-.32.21-.16.03.03.05.06.05.05-.02-.03-.05-.08-.05-.12h0Z"/>
        <path class="cls-3" d="M5.9,6.89c.02-.16.25-.15.32-.03,0,.01-.02.03-.03.04-.04.03-.08.08-.13.1-.02,0-.03,0-.05-.01-.05-.01-.13-.02-.11-.09h0Z"/>
        <path class="cls-3" d="M4.56,6.98s.13.05.17.07c.06.04.11.1.1.17-.02.07-.05.15-.09.21-.03.03-.07.05-.1.08-.04.04-.06.14-.1.16-.02.01-.04,0-.07-.01-.14-.11-.29-.2-.45-.28-.08-.05-.09-.1.01-.11.12-.02.24-.03.35-.07.06-.03.13-.01.18,0,.01,0,.02,0,.01-.03-.01-.05-.06-.17-.03-.2h0ZM4.24,7.35c.04.09.13.17.23.17.04-.02.02-.08,0-.11-.04-.09-.16-.13-.24-.06h0Z"/>
        <path class="cls-3" d="M6.61,7.09s.07-.02.09,0c.02.02.02.06,0,.09-.02.01-.04.01-.06.01-.05,0-.05-.06-.04-.1h0Z"/>
        <path class="cls-3" d="M7.9,7.03c.06-.02.11.06.14.1.04.06.12.09.18.12,0,.01-.06.01-.07.03-.01.04.08.09.05.12,0,0-.03.01-.03.03.01.07.08.16.1.23,0,.03-.03.06-.06.07-.06,0-.03-.11-.03-.15,0-.04,0-.08-.03-.11-.04-.04-.1-.08-.14-.12-.02-.04.07-.03.05-.07-.04-.07-.11-.14-.16-.21,0,0-.01-.02-.01-.03h0Z"/>
        <path class="cls-3" d="M6.1,7.4s.02-.1.04-.15c.02-.04.05-.09.09-.11.07-.03.06.11.06.15,0,.06,0,.12.05.16.1.06.21.08.32.1.07.01.15.01.2.06.04.06.09.15.1.21,0,.03-.04.02-.07.02-.19,0-.29-.19-.44-.27-.06-.02-.14,0-.18-.07-.02-.03-.05-.05-.09-.06-.03,0-.06,0-.08-.03h0Z"/>
        <path class="cls-3" d="M6.8,7.19c.05-.05.2-.04.19.05-.03.09-.22.04-.2-.05h0Z"/>
        <path class="cls-3" d="M7.09,7.27c.09.05.22.09.26.2-.1-.02-.27-.07-.27-.19h0Z"/>
        <path class="cls-3" d="M.19,7.37s.03,0,.05,0c.08.03.18.04.26.07.14.04.24.18.39.21.1.03.21.02.31.05.06.02.08.1.09.11.03,0,.06-.04.1-.04.05,0,.11.03.16.02.06,0,.05-.12.1-.11.05.02.07.09.1.15.03.09.11.16.15.25.04.08.04.18.1.24.03.04.09.07.13.09.02.01.06.03.03.05-.27.05-.57.05-.82-.07-.08-.04-.17-.05-.25-.04-.19.03-.4.04-.59-.01-.1-.03-.14-.12-.17-.21-.05-.12-.2-.17-.27-.28-.04-.08.1,0,.13,0,.1,0,.05-.12.03-.2,0-.11.03-.16-.08-.18,0,0,0,0,0,0,0,0,.03-.01.05-.03.02-.02,0-.06.01-.07h0ZM.37,7.71s.18.07.2-.01c-.03-.06-.12-.09-.18-.07-.01.01-.02.06-.02.08h0ZM.36,7.84c0,.06.02.12.03.18,0,.01,0,.02.01.02.03,0,.06-.06.07-.09.01-.03.04-.09.03-.12,0-.01-.04,0-.06,0-.02,0-.07,0-.09,0h0ZM.93,7.94c-.05.08.09.17.13.08.04-.07-.08-.15-.13-.09h0ZM.92,8.16s-.02.06,0,.08c.02.01.06,0,.07,0,.02-.02.02-.06,0-.08-.02-.01-.06,0-.07,0h0Z"/>
        <path class="cls-3" d="M.94,7.53s.06.03.05.06c0,.02-.03.05-.06.05-.03,0-.06-.03-.06-.06,0-.02.04-.04.05-.05h0Z"/>
        <path class="cls-3" d="M5.41,7.63s.07-.12.12-.14c.02.02.02.08,0,.11-.04.09-.19.14-.24.03-.02-.05.09.01.11,0h0Z"/>
        <path class="cls-3" d="M5.68,7.76c.02-.12.14-.2.23-.26,0,0,0,0,.01,0,.01.13-.15.21-.24.26h0Z"/>
        <path class="cls-3" d="M5.97,7.73s.07-.06.11-.08c.04-.01.08-.04.11-.03.03.01-.01.09.02.16.04.12.14.15.26.1.05,0,.23-.09.25-.02-.01.08-.15.11-.21.13,0,0,0,0,.03.02.03.01.07.03.09.05.07.06.01.17-.08.14-.06-.01-.12-.07-.17-.1-.03-.02-.05-.04-.04,0,.02.05.07.11-.02.12-.03,0-.06.01-.06.04,0,.06.05.18-.05.08-.06-.07-.1-.15-.12-.24-.02-.09,0-.19-.03-.25-.02-.05-.1-.07-.1-.13h0Z"/>
        <path class="cls-3" d="M2.49,7.79s-.15-.16,0-.12c.1.04.2.07.3.09.17.04.38.04.48.2.08.1.08.28.16.35.05.04.11.05.17.07.09.02.18.06.25.07.02,0,.07,0,.06-.02,0-.02-.05-.02-.07-.04-.09-.05.02-.2-.06-.28-.03-.04-.07-.07-.08-.12-.02-.06.01-.09.07-.06.07.03.14,0,.21,0,.07.03.12.02.18-.01.06-.03.12-.03.13-.07.02-.12.04-.1.12-.02.08.08.1.17.17.25.05.06.13.11.18.18.1.11.12.27.18.41.09.22-.15.17-.28.16-.09,0-.18.04-.22,0-.03-.02-.05-.06-.07-.09-.08-.06-.09.1-.09.16,0,.06,0,.13.06.18.06.05.1-.09.1,0,0,.08-.04.42.13.29.07-.06.13-.14.22-.17.08-.03.14.02.22.04.07.03.17,0,.18-.03.01-.04,0-.09,0-.12.01-.04.05-.01.06.02.04.12.14.14.27.15.08.01.17.03.24.05.03.01.08.03.09.06,0,.02,0,.05,0,.07,0,.03.05.03.07.02.08-.03.16-.09.26-.1.12-.02.19.03.06.12-.06.04-.12.07-.02.07.16,0,.31-.05.46-.05.09,0,.2,0,.22.04.02.06-.06.12-.06.17.01.13.27-.16.24-.2,0-.03-.04-.04-.05-.07-.03-.04,0-.08.03-.11.09-.1.22-.17.34-.23.08-.02,0,.12,0,.16-.05.15-.13.29-.15.44,0,.06-.01.11-.07.11,0,0,0,0,0,.02,0,.05.06.11.08.16.04.08-.07.09-.1.15-.03.05-.06.15,0,.19.05.03.14.02.19.04.04.01.07.08.02.09-.03,0-.07-.02-.1-.02-.07,0-.17.05-.22.09-.02.04.08.06.05.09-.04.02-.09.02-.13.04-.07.03-.13.11-.12.18,0,.04.04.07.05.11.01.04-.02.09-.06.07-.03-.01-.04-.05-.06-.06-.04,0-.11.15-.15.2-.04.05-.09.08-.14.11-.1.06-.17.19-.3.2-.11,0-.13-.15-.07-.23.01-.02-.04,0-.07,0-.02,0-.03-.03-.05-.04-.05,0-.11.05-.15.08-.05.05.02.1.02.16-.01.09-.13.12-.21.14-.15.04-.28.13-.42.2-.11.05-.22.05-.31.13-.05.05-.1.11-.17.13-.08.03-.18-.02-.26.02-.07.02-.11.11-.03.15.03.03.07.04.07.08,0,.02-.01.04,0,.05,0,.03.12.02.12.05,0,.04-.09.07-.11.15-.01.04-.02.08-.03.11-.01.04-.05.06-.08.08-.04.03-.06.11-.07.11-.02,0-.04-.01-.06-.02-.02,0-.06.01-.08.03-.09.06-.18.13-.27.2-.03.02-.07.04-.11.03-.07-.02-.13-.05-.22-.04-.29.03-.22-.17.01-.22.1-.03.2.04.31.02.15-.06.32-.16.42-.29.05-.06.05-.14-.05-.13-.13.02-.28.05-.41.07-.07.02-.06.08-.11.09-.06,0-.11-.12-.17-.06-.05.05-.04.14-.05.21-.01.08-.09.14-.17.18-.07.05-.15.1-.19.06-.05-.05-.02-.13,0-.19.02-.05.14-.13.1-.19-.05-.04-.33.05-.32-.12,0-.06.13-.22.18-.15.02.04-.03.14-.02.19.05.11.25-.05.31-.09.14-.14.29-.31.5-.25.07.02.12.1.18.14.11.06.19-.05.19-.15,0-.11.07-.2.13-.29.04-.07.08-.16.11-.15.06.03.09.11.14.14.14.07.04-.19.01-.24-.02-.06.03-.07.07-.12.06-.1.12-.19.17-.3.06-.13.16-.03.25-.06.05-.03.03-.13,0-.19-.02-.04-.05-.07-.08-.1-.15-.13-.26-.3-.41-.43-.07-.05-.17-.18-.09-.26.03-.02.08,0,.12,0,.09,0,.06-.1.03-.19-.02-.1-.33-.44-.04-.29.08.05.22.12.09-.03-.09-.08-.21-.19-.34-.19-.03.01-.02.04-.01.07.05.1-.05.18-.11.25-.05.06-.04-.03-.05-.06,0-.12.02-.25-.02-.35-.07-.12-.14.08-.13.15,0,.14.04.17-.13.19-.13.04-.23-.04-.33-.11-.07-.04-.15-.02-.21-.06-.06-.04-.07-.16-.1-.25-.02-.1-.07-.19-.13-.27-.04-.05-.08-.09-.14-.1-.02,0-.04,0-.06-.02-.02-.05.13-.14.16-.22.03-.05.16-.28.01-.15-.2.16-.46.23-.71.18-.04,0-.08-.02-.09-.06-.01-.04.02-.1-.04-.14-.11-.05-.19-.13-.26-.22-.08-.08-.25-.12-.26-.26-.01-.07-.11-.13-.02-.18.06-.03.16,0,.23,0,.08-.01.15-.08.25-.08.03,0,.09.01.12,0h0ZM3.68,8.75s-.02.11,0,.12c.01,0,.05,0,.07,0,.02,0,.05,0,.06,0,0,0,0-.04,0-.06,0-.02,0-.05-.01-.06-.02,0-.09,0-.11,0h0ZM4.89,9.49s.1.03.15.03c.16-.05.14.23.27.12.07-.06.05.04.1.02.03-.02.08-.06.12-.09.05-.04.08-.14.03-.19-.06-.04-.14-.05-.21-.07-.03,0-.05,0-.07.01-.1.06-.22.1-.33.13-.01,0-.04.01-.04.02h0ZM5.98,9.64c.02.05.05.13.08.18.03,0,.07,0,.1-.01.01,0,.02-.03.02-.05,0-.04.02-.08.02-.11,0-.02-.03-.01-.05-.02-.05,0-.12,0-.17,0h0ZM5.64,11.11s-.02.07,0,.09c.02.02.07.01.09,0,.02-.03.02-.07,0-.09-.02-.02-.06,0-.09,0h0Z"/>
        <path class="cls-3" d="M5.03,7.81c.03-.08.2-.09.17.02,0,.12-.2.1-.18-.01h0Z"/>
        <path class="cls-3" d="M7.91,7.74s.07.02.1.02c.02,0,.05,0,.06.02,0,.08-.05.16-.14.17-.03,0-.03,0-.02-.04,0-.05,0-.13,0-.17h0Z"/>
        <path class="cls-3" d="M5.76,7.97c.07-.04.16.04.22.09.09.07.12.12.07.21-.04.09.05.17.14.17.1,0,.2-.03.28.04.07.05.18.09.26.14.07.04.14.09.14.14,0,.03-.05.14-.08.09-.01-.04-.01-.11-.05-.14-.07-.05-.2.02-.29.01-.02,0-.01-.03-.01-.05.03-.08-.07-.13-.13-.14-.04,0-.07,0-.11,0-.05,0-.09-.06-.12-.02-.02.02-.03.06-.05.09,0,.01,0,.01-.01,0,0-.02-.01-.05-.03-.07-.05-.08-.24-.09-.18-.22.02-.04.07-.08.06-.13,0-.05-.17-.13-.11-.21h0Z"/>
        <path class="cls-3" d="M6.92,8.2s.05-.02.07-.03c.04,0,.08-.04.12-.03.03.12-.06.31-.19.34,0-.04.04-.13.04-.17,0-.03-.04-.08-.04-.1h0Z"/>
        <path class="cls-3" d="M6.17,8.67s.05.04.05.06c0,.02-.03.05-.06.05-.03,0-.06-.03-.05-.06,0-.02.04-.04.06-.05h0Z"/>
        <path class="cls-3" d="M7.92,8.84s.06-.02.08,0c.01.02,0,.05,0,.07-.02.02-.06.02-.08,0-.01-.02,0-.05,0-.07h0Z"/>
        <path class="cls-3" d="M0,9.23s.04-.07.08-.09c.1-.06.2-.12.31-.16.22-.06.09.35.39.23.04-.02.07-.05.11-.05.08.03.19.12.28.12.03,0,.05-.01.07-.03.21-.27.68-.28.96-.12.08.05.2.08.26.11.04.02.09.04.14.04.17-.05.33.03.49.09.15.05.23.16.1.28,0,.02.03,0,.05,0,.13-.01.26.03.4.06.1.01.25.06.04.11-.14.03-.28,0-.42.01-.14,0-.26.1-.39.14-.09.03-.18,0-.26-.04-.06-.02-.12,0-.18.03-.17.07-.36.07-.55.09-.07,0-.13,0-.19-.03-.19-.14-.42-.24-.62-.36-.03-.02-.05-.04-.06-.06-.02-.05.07-.1.08-.16,0-.08-.11-.08-.14-.02-.04.06,0,.18-.06.24-.07.06-.18.02-.26.02-.15-.02-.31-.03-.42-.12-.08-.08-.19-.2-.2-.32h0ZM2.56,9.87c.09,0,.2-.07.23-.16-.04-.03-.12-.01-.17.02-.04.03-.07.09-.07.14h0Z"/>
        <path class="cls-3" d="M6.2,8.96c.08,0,.18,0,.26.02.06.02.13.09.2.04.04-.03.08-.11.14-.08.02,0,.16.09.1.1-.1.02-.22.04-.31.09-.02,0-.04,0-.06,0-.1-.05-.22-.1-.32-.16h0Z"/>
        <path class="cls-3" d="M7.08,8.93c.15,0,.04.21-.07.16-.1-.03,0-.15.06-.16h0Z"/>
        <path class="cls-3" d="M6.68,9.23s.08,0,.08.04c.02.06-.12.12-.14.05-.01-.04.01-.07.05-.08h0Z"/>
        <path class="cls-3" d="M7.48,9.42c.06-.06.2.04.11.11-.08.08-.19-.03-.11-.1h0Z"/>
        <path class="cls-3" d="M4.64,9.86c.1-.03.12.18.05.21-.08,0-.1-.15-.06-.2h0Z"/>
        <path class="cls-3" d="M7.46,10.02c.05-.09.19-.13.28-.05-.06.05-.2.1-.28.05h0Z"/>
        <path class="cls-3" d="M7.12,10.64c.11-.05.25-.1.37-.06.03.01.03.02,0,.04-.16.06-.29.17-.41.3-.05.06-.06-.02-.05-.07,0-.07.04-.15.08-.2h0Z"/>
        <path class="cls-3" d="M3.41,13s.08.07.1.11c0,.02,0,.03,0,.05-.03.05-.05.1-.08.14-.01.02-.03.02-.06.01-.03-.02-.07-.03-.08-.06-.01-.06-.01-.13-.02-.19,0,0,0-.02,0-.02.02,0,.06.04.08.06.02.02.03.03.04.02,0-.01,0-.12,0-.12h0Z"/>
      </g>
      <g>
        <path class="cls-4" d="M11.44,8.86c.15-.06.73.12.25.13-.08,0-.29-.05-.26.07.02.07.09.09.16.1.19.03.45.06.64.05.08-.03.14-.06.23-.08.13-.02.3.02.42.08.02.01.04.03.06.05.09.09-.07.35.12.34.09-.02.17-.08.28-.06.25.07.5.22.75.32.15.06.35.12.45.22.05.05.14.13.04.18-.14.07-.34.05-.48.05-.14-.01-.28.02-.42.03-.14,0-.27-.11-.37-.01-.13.23-.06.54-.13.79-.06.25-.16.09-.3.16-.1.06-.11.25-.22.31-.04,0-.07-.16-.09-.16,0,0-.01,0-.01.01-.01.03-.02.1-.02.14,0,.13-.02.28-.15.3-.09,0-.14.03-.23-.06-.05-.05-.1-.12-.15-.18-.11-.15-.26-.3-.35-.47-.07-.11-.02-.28-.06-.34-.05-.07-.15-.1-.21-.15-.04-.03-.07-.06-.06-.1.01-.04.05-.08.03-.12-.03-.08-.25-.25-.31-.36-.02-.04-.02-.09.01-.11.03-.03.1-.07.06-.09-.24-.15-.3.12-.56.1-.29-.03-.31-.13,0-.24.21-.07.39-.2.58-.3.12-.05.23-.08.24-.14.01-.15-.13-.37.07-.45h0ZM12.99,9.81s-.01.07,0,.08c.02.02.07.01.09,0,.02-.02.02-.06,0-.08-.01-.02-.06-.02-.1,0h0ZM14,10.32s.1-.13.12-.1c.02.02.02.07.03.09.04.03.07-.31.01-.31-.05.02-.09.09-.12.13-.03.05-.07.12-.05.18h0ZM11.58,10.46c.01.06.06.13.1.19.02.03.04.07.05.05.03-.07.03-.2.05-.28,0-.01,0-.03,0-.04-.01-.01-.05,0-.08,0-.05,0-.11.02-.11.07h0ZM12.83,10.77c0,.06.1.09.02.16-.05.04-.05.06.01.05.04,0,.12,0,.14-.03.02-.07,0-.17-.01-.24,0-.02,0-.04-.02-.04-.02,0-.06.03-.1.05-.02.01-.03.03-.04.04h0ZM12.6,10.94s.11.12,0,.13c-.04,0-.07,0-.08.04,0,.03,0,.06.03.05.05-.02.09-.08.14-.11.02-.02.05-.04.05-.06,0-.02-.04-.03-.06-.04-.02,0-.07-.03-.09-.02h0ZM11.88,10.98c-.09.03-.1.17-.06.24.06.14.2.18.32.26.2.13.17.08.08-.09-.07-.16.06-.23-.17-.28-.06-.02-.11-.12-.17-.13h0Z"/>
        <path class="cls-4" d="M10.83,9.13c.07-.07.21.03.16.11-.06.08-.22-.02-.16-.11h0Z"/>
        <path class="cls-4" d="M10.49,9.51c.06-.07.19.03.14.11-.06.08-.19-.02-.14-.1h0Z"/>
        <path class="cls-4" d="M14.86,9.76c.18,0,.37.05.55.09.21.04.28.18.43.28.09.05.21.03.31.06.07.03.07.1,0,.14-.09.06-.26.03-.35.08,0,.02.07.03.1.05.05.03.11.09.07.15-.05.07-.21.05-.25.13-.01.02,0,.05-.02.07-.05,0-.14-.04-.19-.05-.25-.06-.57-.01-.65-.33-.03-.08-.05-.17-.12-.23-.06-.06-.18-.12-.2-.17-.01-.05.04-.08.11-.06.15.05.27.19.4.27.1.08.41.15.3-.03-.02-.04-.12-.11-.05-.14.01-.01.07-.01.06-.04-.04-.05-.33-.12-.45-.13-.34-.04-.48-.14-.07-.15h.01Z"/>
        <path class="cls-4" d="M10.44,10.14c.07,0,.19.08.16.16,0,.01-.02,0-.04,0-.04-.01-.09-.01-.12-.04-.01-.02-.01-.1,0-.13h0Z"/>
        <path class="cls-4" d="M8.7,10.28c.06-.05.14-.09.14-.05,0,.03-.08.1-.12.16-.03.05-.04.12-.06.18-.02.06-.09.12-.12.19-.02.03-.03.08-.05.1-.03.03-.07.04-.08-.01,0-.07.04-.15.01-.21,0-.03-.01-.05,0-.06.04-.03.09-.03.12-.07.06-.07.09-.16.16-.22h0Z"/>
        <path class="cls-4" d="M9.04,10.41c-.09.01-.1-.12-.03-.16.12-.05.14.12.04.15h0Z"/>
        <path class="cls-4" d="M10.9,10.3c.06-.06.21.06.11.1-.05.01-.13-.04-.11-.09h0Z"/>
        <path class="cls-4" d="M10.66,10.39c.07-.03.16.08.12.14-.07.06-.17-.08-.13-.14h0Z"/>
        <path class="cls-4" d="M10.45,10.55c.09-.03.05.12.08.16.02.08.15.12.16.2,0,.07-.03.15-.04.22-.01.04-.02.08-.06.05-.1-.14-.23-.46-.15-.63h0Z"/>
        <path class="cls-4" d="M10.88,10.68c.07-.28.24.28.09.15-.04-.03-.08-.1-.09-.14h0Z"/>
        <path class="cls-4" d="M9.83,10.78c.04-.08.27-.17.35-.12,0,0,0,.01,0,.02-.02.04-.07.08-.1.11-.03.05-.08.06-.13.04-.03-.02-.1-.02-.12-.05h0Z"/>
        <path class="cls-4" d="M15.45,10.95c.04-.06.35-.1.38-.02-.01.07-.11.12-.18.12-.07,0-.17-.02-.21-.09h0Z"/>
        <path class="cls-4" d="M10.88,11.01c.1-.07.14.14.05.15-.07,0-.1-.1-.05-.14h0Z"/>
        <path class="cls-4" d="M9.12,11.07s.07-.02.09,0c.02.02.02.06,0,.09-.02.02-.07.02-.09,0-.02-.02-.02-.06,0-.08h0Z"/>
        <path class="cls-4" d="M9.66,11.12c.07-.02.16.02.23.03.13.04.28-.14.37-.02.03.03.03.07.06.1.04.04.26-.03.27.05,0,.06-.04.12-.09.16-.06.05-.1.04-.12.1-.02.07-.02.16-.08.22-.06.08-.18.03-.17-.07.03-.14.02-.26-.11-.35-.31-.17-.18.3-.14.44.03.13-.01.24.02.32.02.07.06.13.07.2.02.07,0,.15,0,.22,0,.08.11.06.23.13.03.02.06.04.09.05.12.07.25.2.17.34-.05.11-.16.12-.19.21-.04.11.04.35-.1.38-.12,0-.35-.09-.46-.19-.12-.13-.18-.36-.18-.52,0-.09.04-.18.03-.27,0-.08-.06-.15-.09-.21-.09-.16.18-.09.22-.21.01-.07-.02-.14-.01-.21,0-.11.08-.21.03-.29-.08-.08-.03-.11-.05-.24-.01-.11-.12-.29,0-.37h0Z"/>
        <path class="cls-4" d="M10.66,11.44c.05-.03.08-.14.12-.17.03-.02.02.04.02.06,0,.03-.03.1.01.1.11-.01.08.17,0,.19-.04.02-.11,0-.14.03-.03.07.04.18-.03.24-.14.05-.14-.27-.12-.37.02-.06.07-.05.12-.08h0Z"/>
        <path class="cls-4" d="M12.83,11.34c.1.04-.04.19-.1.15-.06-.06.04-.15.09-.15h0Z"/>
        <path class="cls-4" d="M9.17,11.45s.05-.04.08-.03c.09,0,.09.12.12.18.03.08.07.16.05.23,0,.04-.02.08-.03.11-.01.06-.02.18-.03.07-.02-.14,0-.3-.1-.4-.03-.04-.11-.1-.1-.15h0Z"/>
        <path class="cls-4" d="M12.62,11.98s-.01-.06-.01-.1c0-.08,0-.19.06-.24.05-.02.1.05.14.06.05.02.1-.01.14-.03.02,0,.03-.01.02,0-.11.08-.21.17-.3.27-.01.01-.03.03-.05.03h0Z"/>
        <path class="cls-4" d="M12.99,11.87c.18-.02.27.33.31.47.05.18-.03.31-.16.42-.19.18.05.41-.13.48-.06.02-.2.03-.25.05-.01,0-.03.02-.03.03.02.05.16.08.22.11.16.06.34.21.38.36.05.14,0,.27,0,.42,0,.09,0,.2,0,.3.01.13,0,.39-.19.34-.06-.02-.16-.1-.25-.17-.08-.06-.18-.14-.23-.14-.03,0-.05.03-.08.03-.01,0-.03-.01-.05-.05-.03-.04-.06-.12-.1-.19-.05-.11-.12-.22-.16-.33-.12-.4.31-.55-.05-.99-.07-.08-.13.08-.16.13-.05.1-.11.21-.18.26-.04.01-.08-.04-.11-.05-.03,0-.06.02-.08.03-.04.03-.03-.06-.04-.1,0-.1-.03-.21-.14-.24-.05-.01-.11,0-.14-.01-.06,0-.05-.1-.04-.17.02-.15.08-.32,0-.46-.02-.05-.05-.08-.05-.13.02-.06.14-.09.22-.2.17-.26.22-.24.42-.02.11.11.12.18.13.27.01.06.05.17.12.14.08-.06.12-.19.14-.29,0-.03-.02-.06-.02-.09,0-.03.02-.05.05-.07.19-.2.25.03.43,0,.09-.03.12-.13.2-.15h0ZM12.5,12.76s0,.07,0,.1c0,.03,0,.06.02.06.06,0,.17-.04.1-.11-.03-.02-.08-.04-.11-.05h0Z"/>
        <path class="cls-4" d="M10.19,12.04c.06-.04.17,0,.23.03,0,0,.02.02.02.03-.04.07-.29.05-.25-.06h0Z"/>
        <path class="cls-4" d="M13.26,12.19s.07.03.1.06c.14.13.24.29.41.38.06.04.31.16.23.25-.06.04-.17.03-.22.08-.03.03,0,.06.04.07.06.02.14.05.2.08.14.09.08-.15.39.07.35.24.43.45.49.86.02.11.08.24.02.34-.03.04-.13.1-.1.13.07.05.2-.02.28.01.25.1.47.59.27.82-.17.2-.39.08-.46-.13-.03-.08.05-.17,0-.26-.05-.09-.14-.16-.19-.26-.06-.11-.12-.22-.23-.25-.31-.05-.55-.28-.65-.57-.03-.08-.06-.17-.1-.25-.09-.24-.47-.61-.3-.87.04-.04.06-.06.03-.12-.04-.08-.24-.36-.21-.44h0Z"/>
        <path class="cls-4" d="M10.5,12.3s.05.03.05.06c0,.02-.03.05-.06.05-.03,0-.06-.03-.05-.06,0-.02.03-.05.05-.06h.01Z"/>
        <path class="cls-4" d="M10.84,12.42c.07-.07.22.03.14.12-.06.07-.21-.03-.15-.11h0Z"/>
        <path class="cls-4" d="M10.86,12.96s.06.03.1.04c.04.01.08,0,.12,0,.17,0,.13.23.17.37.05.22.09.44-.19.18-.04-.03-.07-.06-.11-.1-.08-.06-.12-.13-.19-.11-.04.02-.08.08-.12.05-.05-.06-.06-.17-.03-.24.02-.08.1-.11.16-.15.03-.02.06-.05.09-.05h0ZM11,13.37s.06.03.09.04c.03,0,.06.02.06,0,.01-.01,0-.06,0-.09-.01-.05-.01-.12-.04-.16-.01-.02-.04-.02-.06,0-.06.04-.07.15-.06.21h0Z"/>
        <path class="cls-4" d="M9.84,13.56c.28.01.39.39.34.63,0,.24-.14.42-.16.64,0,.04.01.09.03.13.05.15.02.25.06.41,0,.02,0,.04,0,.05,0,.06-.06.07-.08.13-.06.19-.01.47-.1.63-.06.1-.22.18-.35.13-.09-.04-.14-.13-.19-.16-.05-.04-.12-.03-.17-.05-.06-.02-.07-.07-.04-.12.03-.04.07-.08.11-.12.1-.12.15-.37.12-.52-.03-.09-.03-.17,0-.26.03-.06,0-.15-.01-.23-.07-.23-.11-.49-.04-.73.07-.23.22-.51.47-.56h0ZM9.77,16.24s.05-.12.08-.17c.07-.16-.05-.06-.12-.04-.08.05-.1-.02-.12-.08,0-.01-.01-.02-.01-.02,0,.1.07.21.13.29,0,0,.02.02.04.02h0Z"/>
        <path class="cls-4" d="M11.16,13.83c.24-.15.56.15.71.34.07.11.1.24.05.35-.03.07-.07.12-.07.19,0,.07.06.13.1.19.08.11.15.3.07.37-.03.02-.04.03-.02.07.03.07.08.14.12.21.07.12.05.23.07.34,0,.06.02.12.02.17,0,.06-.06.1-.13.16-.05.05-.09.11-.16.07-.05-.02-.11-.11-.07-.15.02-.03.06-.06.08-.09.04-.09-.05-.18-.09-.26-.1-.14-.14-.31-.16-.5-.01-.07-.03-.15-.08-.21-.04-.04-.09-.08-.12-.13-.04-.07-.06-.17-.1-.22-.02-.02-.04-.03-.07-.05-.04-.03-.07-.09-.09-.14-.08-.22-.24-.5-.07-.71h0Z"/>
        <path class="cls-4" d="M13.37,14.28c.05,0,.1.06.14.09.11.11.22.23.26.37.04.11.06.22.13.31.13.15.32.27.42.46.1.17.03.35,0,.55-.02.06-.02.15-.05.2-.03.04-.11,0-.2-.07-.06-.04-.13-.08-.19-.1-.02,0-.02.02,0,.05.03.07.13.14.11.23-.02.06-.12.11-.18.08-.13-.08-.15-.31-.18-.43,0-.05-.02-.1-.06-.13-.14-.13-.22-.39-.03-.52.05-.04.16-.07.18-.13,0-.01-.02,0-.07,0-.06.02-.12.04-.18.05-.08.02-.14-.01-.2-.05-.08-.04-.13-.08-.15-.13-.02-.23.15-.44.19-.64.02-.06.01-.15.06-.19h0ZM13.85,15.32c-.05.08.09.17.14.08.04-.07-.08-.15-.13-.09h0ZM13.67,15.36s.02.12.03.17c0,.03.01.07.03.07.02,0,.05-.03.07-.05.03-.03.08-.06.06-.08-.04-.03-.08-.05-.12-.08-.02-.01-.05-.03-.06-.03h0ZM14,15.65c-.1.05-.01.21.08.12.05-.05,0-.15-.07-.13h0ZM13.96,15.85s0,.1.03.13c.03.05.15.08.16,0,.01-.05.04-.1-.03-.1-.04,0-.11-.03-.14-.03h0Z"/>
        <path class="cls-4" d="M12.19,15.83c.01-.1.08-.14.12-.04.08.16.24.26.33.42.07.15-.08.32-.2.14-.04-.07-.08-.11-.15-.14-.03-.02-.04-.06-.05-.1-.01-.09-.05-.18-.05-.26h0Z"/>
        <path class="cls-4" d="M12.06,16.4s.04,0,.05,0c.04.01.08.02.1.05.02.04.06.09.05.13-.01.02-.05.02-.07.03-.03,0-.06.01-.07,0-.01-.01-.02-.04-.03-.06-.01-.05-.04-.1-.04-.15h0Z"/>
      </g>
    </g>
  </g>
</svg>