<?xml version="1.0" encoding="UTF-8"?>
<svg id="Layer_2" data-name="Layer 2" xmlns="http://www.w3.org/2000/svg" viewBox="0 0 24.4 24.4">
  <defs>
    <style>
      .cls-1 {
        fill: #bcbcbc;
        stroke-width: 0px;
      }
    </style>
  </defs>
  <g id="Layer_1-2" data-name="Layer 1">
    <g>
      <path class="cls-1" d="M3.33,9.49c.24-.01.52-.02.73-.15.11-.06.08-.17.07-.28-.08-.68.32-.52.09-1.06-.05-.12-.06-.25-.08-.38-.01-.1-.04-.18-.03-.26,0-.15.1-.37-.13-.38h0c-.45,0-.6.39-.77.76-.1.2-.18.41-.25.62-.07.19-.11.39-.18.58-.2.53.09.57.55.55Z"/>
      <path class="cls-1" d="M20.19,14.3c-.45-.69-.59,0-1.18-.35-.21-.11-.17-.31-.08-.49.08-.29.04-.46.35-.63.17-.09.35-.15.42-.34.08-.28.08-.58.16-.85.06-.29.29-.5.38-.78.17-1.6.27-3.21.09-4.8-.01-.13-.06-.24-.12-.36-.05-.12-.03-.22-.12-.31-.46-.37-1.17-.99-1.68-1.26-.39-.2-.35.15-.73.08-.15-.02-.29-.07-.44-.05-.36.06-.26.2-.16.47.04.18.03.38.05.57.01.18.03.37.11.54.08.17.2.28.33.42.11.12.23.25.37.35.3.22.43-.02.67.01.1.02.2.13.18.22-.06.15-.53.16-.68.17-.31-.01-.92-.6-1.19-.78-.14-.1-.28-.22-.34-.38-.07-.17-.09-.38-.18-.49-.11-.14-.3-.04-.38.09-.16.29-.09.62-.15.97,0,.08-.03.2.02.26.14.09.31-.17.46-.09.15.07.21.33-.01.37-.21.04-.65.04-.74-.13-.08-.16-.02-.36-.02-.54,0-.49.04-.98-.39-1.15-.44-.11-.23.27-.28.6-.03.21-.13.41-.25.57-.2.24-.33.49.07.28.22-.14.34-.06.41.18.05.15-.02.22-.17.2-.25-.09-.87.09-.98-.08-.04-.08,0-.2.02-.3.08-.32.31-.65.22-.98-.05-.19-.13-.43-.33-.47-.05-.01-.12,0-.15.03-.07.12,0,.3-.05.43-.11.31-.41.54-.73.61-.17.05-.46.02-.66.05-.3.02-.22.28-.06.42.11.13.69.2.25.34-.32.11-.44-.04-.64-.27-.26-.27-.46-.52.07-.58.22-.04.38-.16.57-.29.5-.32.56-.55.2-.99-.11-.17-.03-.43-.15-.59-.22-.24-.69-.13-.95-.29-.46-.25-1.04-.36-1.54-.2-.75.29-1.21,1.14-1.03,1.92.03.3.35.62.32.91-.04.14-.3-.06-.41-.24-.88-1.21.3-3.09,1.72-3.05.28,0,.6.06.85.18.17.07.32.16.5.2.43.07.9.28,1.33.14.83-.33,1.76-.44,2.68-.29.12.02.23.06.33.1.18.09.56-.03.3-.24-.25-.16-.58-.21-.86-.31-1.24-.39-2.52-.57-3.84-.49h0c-1.33.1-2.53.3-3.7.82-.54.19-1.01.39-1.51.7-.3.2-1.19.65-1.26.99-.03.16.15.23.19.37.1.35-.58.23-.44.59.18.29.77-.01,1.03-.07.23-.07.48-.05.71-.14.18-.07.44-.25.6-.06.09.19.63.43.12.46-.59-.07-.92-.18-1.45.31-.11.1-.22.22-.36.27-.17.1-.44-.15-.52,0-.08.31.05.65.1.95.02.14-.02.26-.03.4.02.39.3.75.31,1.16.03.49-.08.97-.31,1.41-.12.22-.35.43-.15.68.09.16.15.46.32.54.12.06.27.06.39.11.12.04.17.14.05.19-.07.05-.28,0-.27.1,0,.08.13.26.14.43.01.15.02.4-.14.44-.16-.03-.17-.29-.22-.42-.06-.22-.16-.35-.27-.53-.06-.1-.12-.2-.19-.3-.04-.06-.09-.16-.15-.17-.06,0-.07.06-.11.16-.06.18-.13.45-.19.6-.06.23-.28.09-.3-.09-.03-.13.1-.25.11-.37-.01-.16-.36-.01-.49-.07-.17-.05-.12-.19,0-.26.23-.18.79-.46.72-.81-.03-.09-.1-.18-.14-.27-.13-.28-.2-.64-.35-.83-.14-.17-.4-.08-.58-.05-.93.1-.94-.2-.95.74.03,1.59.66,3.11,1.66,4.34,1.62,1.96,4.04,3.07,6.53,3.46.23.04.27-.11.27-.3,0-.16.04-.36-.03-.49-.09-.17-.27-.25-.42-.37-.3-.24-.63-.42-.91-.68-.62-.68-.99-1.6-1.46-2.32-.13-.23-.23-.5-.41-.68-.31-.38-1.15,0-1.35-.26-.03-.17.48-.19.53-.48.36-1.3.84-2.69,1.1-4.24.04-.23-.04-.36-.26-.39-.23-.05-.39-.2-.06-.22.69-.06,2.43-.1,2.14.13-.09.07-.23.12-.32.21-.48.51-.6,1.65-.8,2.42-.16.62-.39,1.2-.5,1.95-.04.2.1.3.27.39.13.08.39.24.14.33-.06.02-.13.01-.19.03-.26.08-.05.41.08.53.92,1.08,1.4,2.11,2.68,2.71.22.13.52.27.74.06.24-.17.68-.15.92,0,.19.1.18.42.45.4.37-.04.71-.14,1.01-.31.88-.63,1.78-1.42,2.56-2.23.16-.17.37-.29.6-.18.19.11.39.44.27.64-.04.06-.12.09-.17.07-.06-.01-.11-.06-.16-.1-.33-.28-1.22.91-1.86,1.69-.34.42-.52.6-.92.83-.33.21-.62.24-.97.35-.12.04-.95.39-.72.54.07.04.21.05.38.04,2.6-.21,4.9-1.23,6.89-3.05.2-.17.2-.28.12-.51-.05-.17-.14-.36-.24-.51ZM12.14,10.71c-.14-.01-.2.05-.23.17-.14.54-.79,1.77-.3,2.14.08.05.2.06.28.1.07.04.1.11.04.15-.03.02-.07.02-.1.02-.13.01-.51.03-.71.03-.36,0-.61,0-.97-.03-.2-.01-.48-.05-.52-.09-.06-.05.12-.12.17-.15.17-.06.29-.12.36-.29.06-.14.09-.3.14-.45.1-.28.16-.6.23-.89.06-.22.15-.43.19-.66.19-.91.54-1.55.56-2.46-.01-.19-.2-.2-.36-.24-.08-.02-.22-.1-.13-.18h0s.15-.05.22-.04c1.22.06,3.34-.39,3.7.85.42,1.46-1.18,2.18-2.58,2.01ZM18.41,9.08c-.03-.13-.05-.28-.09-.41-.19-.6-.84-.84-1.37-.58-.14.06-.24.16-.29.31-.07.18-.15.44-.07.64.03.09.08.17.14.24.46.6,1.17,1.03,1.57,1.65.25.39.31.88.18,1.34-.3,1.29-1.88,1.38-2.9.98-.11-.03-.24-.06-.35-.02-.13.05-.18.2-.32.22-.16.02-.14-.15-.12-.26.07-.37.14-.84.21-1.23.02-.11.02-.28.15-.3.13-.01.16.19.17.29.06.41.24.76.46.97.13.11.3.17.46.23.29.08.61.02.87-.13.23-.13.34-.4.39-.66.18-.86-.68-1.29-1.22-1.77-.27-.23-.51-.5-.63-.83-.33-.87.33-1.95,1.27-2.04.36-.04.72.06,1.07.12.2.03.41.09.6,0h0c.12-.05.28-.25.35-.04.13.37-.31,2.14-.52,1.27Z"/>
      <path class="cls-1" d="M12.76,8.13h0c-.17.03-.22.21-.26.35-.08.42-.21.79-.3,1.19-.04.15-.09.32-.13.48-.03.12-.05.25.1.27.22.04.57.02.78-.1.76-.44,1.03-2.41-.19-2.19Z"/>
      <path class="cls-1" d="M4.39,6.03s.05,0,.06-.02c.03-.05-.02-.19-.09-.15h0s-.01.03-.01.04c0,.06,0,.12.05.13Z"/>
      <path class="cls-1" d="M5.17,10.44c.08-.1.08-.23.08-.35-.01-.28.04-.75-.25-.75h0c-.07.04-.07.14-.08.28,0,.11-.01.24-.01.36,0,.19.04.73.27.46Z"/>
      <path class="cls-1" d="M21.32,6.93c-.08-.13-.36-.7-.51-.61h0s0,.14,0,.2c.16.84.09,1.62.2,2.45.01.08.03.17.06.25.09.18.28.32.43.47.52.48.62.48.54,1.16-.01.11-.03.22-.04.33-.02.14-.05.26-.01.39.03.12.11.27.22.25.07-.02.12-.14.15-.32.02-.12.04-.26.05-.42.03-.69.03-1.34-.14-1.97-.21-.79-.52-1.51-.94-2.16Z"/>
      <path class="cls-1" d="M20.53,13.26h0c-.08.02-.16.09-.16.17,0,.08.05.15.1.23.06.09.12.17.18.26.07.1.14.2.2.3.05.07.11.19.2.18.04,0,.08-.06.11-.1.05-.09.12-.17.14-.27.02-.1-.07-.19-.14-.28-.15-.2-.37-.52-.62-.49Z"/>
      <path class="cls-1" d="M21.33,12.31h0s-.09.06-.12.1c-.15.17-.11.3.02.45.07.08.14.16.21.26.06.09.18.29.29.17.19-.24-.09-.47-.18-.67-.04-.11-.04-.35-.21-.31Z"/>
      <path class="cls-1" d="M21.63,0H2.76C1.24,0,0,1.24,0,2.76v18.87c0,1.53,1.24,2.76,2.76,2.76h18.87c1.53,0,2.76-1.24,2.76-2.76V2.76c0-1.53-1.24-2.76-2.76-2.76ZM23.55,13.37c-.09.2-.33.37-.43.55-.06.09-.09.18-.06.23.06.14.45.04.4.21-.27.65-1.09-.02-.86-.52.03-.12.22-.32.12-.42-.09-.08-.27-.12-.4-.11-.22.01-.32.25-.34.46-.02.18.05.31.06.5.03.58-.09,1.26.02,1.74.06.25.31-.11.39.06.09.32-.3.69-.57.37-.3-.45-.28-1.14-.39-1.68,0-.06-.04-.16-.11-.12-.14.09-.24.28-.33.42-.08.16-.09.32-.12.49-.03.19-.08.38-.13.57-.03.14-.16.51-.03.6.07.03.22-.05.26.05.08.25-.29.65-.49.36-.17-.25-.15-.6-.13-.9,0-.14.1-.34.02-.44-.07-.03-.13.04-.19.08-.15.13-.32.28-.47.41-1.87,1.48-4.19,2.35-6.7,2.48-.99.12.29,1.12-.54,2.16-.09.12-.18.2-.24.3-.12.21-.08.53-.28.71-.16.15-.41.29-.63.27-.16-.05-.16-.27-.15-.41.04-.31.26-.62.4-.92.08-.16.25-.37.1-.54-.16-.21-.42-.19-.65-.17-.18,0-.37-.03-.55-.05-.13,0-.25.04-.35.12-.22.17-.49.34-.74.49-.11.06-.21.14-.3.24-.09.11-.25.18-.37.07-.17-.14-.28-.39-.53-.24-.03.02-.06.05-.1.07-.08.03-.11-.06-.1-.13.01-.09.07-.2.16-.25.2-.12.41.1.61.04.13-.06.13-.24.21-.35.26-.34.67-.64,1.08-.76.27-.06.58.03.84-.08.13-.05.15-.22.13-.35,0-.13-.07-.26-.21-.29-.46-.06-.9-.14-1.34-.25-3.41-.8-6.42-3.28-7.13-6.36-.05-.23-.1-.56-.13-.72-.03-.14-.07-.26-.07-.42-.05-.42.16-1.16-.1-1.35-.1-.06-.23-.08-.34-.13-.12-.05-.22-.11-.33-.18-.11-.08-.22-.14-.33-.23-.16-.11-.42-.41-.16-.32.38.13.86.46,1.25.56.08.01.1-.06.12-.12.05-.14.12-.38.15-.54.04-.14.1-.28.14-.42.04-.14.09-.29.15-.43.09-.2.17-.41.27-.6.05-.1.12-.18.15-.28.15-.34-.56-.67-.75-.95-.13-.16-.15-.33-.26-.47-.11-.13-.36-.12-.43-.29,0-.04.06-.06.1-.06.09-.01.22.02.3-.03.05-.02.09-.07.14-.08.12.05.12.25.17.36.06.19.27.24.43.33.39.21.63.46.87.3.11-.07.22-.19.32-.32.12-.17.3-.33.28-.54-.04-.19.08-.39.26-.46.07-.03.14-.04.21-.05.45-.07.86-.43,1.23-.7,1.53-1,3.27-1.53,5.07-1.78h0c2.15-.12,4.18.07,5.73.74.09.03.18.06.27.05.14,0,.28-.1.4-.12.22-.04.4.16.61.19.38.1.1.15-.03.3-.04.05,0,.09.04.13.61.34,1.33.8,1.93,1.34.12.09.21.23.35.27.14.03.28-.03.42,0,.13.01.25.11.27.25,0,.3-.17.39.09.66,1.31,1.6,1.99,3.92,1.44,5.92-.23.71,1.12.77.92,1.43Z"/>
    </g>
  </g>
</svg>