<?xml version="1.0" encoding="UTF-8"?>
<svg id="Layer_2" data-name="Layer 2" xmlns="http://www.w3.org/2000/svg" viewBox="0 0 24.05 24.06">
  <defs>
    <style>
      .cls-1 {
        fill: #011e41;
      }

      .cls-1, .cls-2 {
        stroke-width: 0px;
      }

      .cls-2 {
        fill: #fff;
      }
    </style>
  </defs>
  <g id="Layer_1-2" data-name="Layer 1">
    <g>
      <rect class="cls-1" width="24.05" height="24.06"/>
      <g>
        <path class="cls-2" d="M3.67,18.43c-.89,0-1.6.67-1.6,1.59s.7,1.56,1.6,1.56,1.6-.67,1.6-1.59-.7-1.56-1.6-1.56ZM3.67,21.43c-.69,0-1.09-.59-1.09-1.42,0-.72.35-1.43,1.09-1.43.69,0,1.09.59,1.09,1.43,0,.72-.35,1.42-1.09,1.42Z"/>
        <path class="cls-2" d="M13.45,18.43c-.89,0-1.6.67-1.6,1.59s.7,1.56,1.6,1.56,1.6-.67,1.6-1.59-.7-1.56-1.6-1.56ZM13.45,21.43c-.69,0-1.09-.59-1.09-1.42,0-.72.35-1.43,1.09-1.43.69,0,1.09.59,1.09,1.43,0,.72-.35,1.42-1.09,1.42Z"/>
        <path class="cls-2" d="M9.12,18.59l.31.08c.09.03.13.06.13.14v2.39c0,.08-.03.12-.13.14l-.31.08v.11h1.37v-.11l-.35-.08c-.09-.02-.13-.06-.13-.14v-1.12h.74c.1,0,.17.04.19.15l.08.31h.13v-1.02h-.13l-.08.26c-.03.11-.09.15-.19.15h-.74v-1.31h.96c.1,0,.15.04.19.16l.14.46h.13v-.76h-2.31v.11Z"/>
        <path class="cls-2" d="M21.15,18.64c-.23-.1-.51-.15-.9-.15h-1.43v.11l.31.08c.09.03.13.06.13.14v2.39c0,.08-.03.12-.13.14l-.31.08v.11h1.45c.43,0,.76-.06,1-.19.52-.27.72-.78.72-1.32s-.26-1.13-.84-1.39ZM21.02,21.21c-.19.14-.45.19-.81.19h-.37c-.11,0-.14-.03-.14-.14v-2.63h.44c.36,0,.59.03.76.14.42.25.57.75.57,1.27s-.14.94-.46,1.17Z"/>
        <path class="cls-2" d="M8.22,21.21l-.98-1.3.88-1.11c.07-.08.14-.11.24-.14l.27-.07v-.11h-1.08v.11l.27.07c.09.03.08.05.03.12l-.72.98-.69-.98c-.05-.07-.08-.11.03-.13l.29-.06v-.11h-1.34v.11l.25.07c.09.03.17.07.23.15l.93,1.24-.93,1.17c-.07.08-.14.11-.24.14l-.27.07v.11h1.08v-.11l-.27-.07c-.09-.03-.08-.05-.02-.12l.77-1.04.75,1.05c.05.07.07.1-.03.12l-.29.06v.11h1.34v-.11l-.25-.07c-.09-.03-.17-.07-.23-.15Z"/>
        <path class="cls-2" d="M2.87,17.19c.18,0,.3-.06.39-.14.14-.14.13-.34.13-.61v-.72h-.17v.77c0,.26,0,.37-.09.47-.05.05-.14.09-.25.09s-.2-.03-.27-.1c-.09-.09-.09-.2-.09-.32v-.91h-.17v.85c0,.18,0,.35.13.48.1.1.24.15.39.15Z"/>
        <polygon class="cls-2" points="4.09 15.97 4.79 17.16 4.97 17.16 4.97 15.71 4.81 15.71 4.82 16.91 4.12 15.71 3.94 15.71 3.94 17.16 4.1 17.16 4.09 15.97"/>
        <rect class="cls-2" x="5.57" y="15.71" width=".17" height="1.45"/>
        <polygon class="cls-2" points="6.83 17.16 7.34 15.71 7.17 15.71 6.73 16.99 6.31 15.71 6.13 15.71 6.63 17.16 6.83 17.16"/>
        <polygon class="cls-2" points="8.53 17.01 7.9 17.01 7.9 16.48 8.48 16.48 8.48 16.34 7.9 16.34 7.9 15.86 8.52 15.86 8.52 15.71 7.73 15.71 7.73 17.16 8.53 17.16 8.53 17.01"/>
        <rect class="cls-2" x="11.66" y="15.71" width=".17" height="1.45"/>
        <polygon class="cls-2" points="12.83 17.16 12.83 15.86 13.26 15.86 13.26 15.71 12.23 15.71 12.23 15.86 12.66 15.86 12.66 17.16 12.83 17.16"/>
        <polygon class="cls-2" points="14.09 17.16 14.09 16.59 14.55 15.71 14.36 15.71 14.02 16.39 13.66 15.71 13.46 15.71 13.92 16.59 13.92 17.16 14.09 17.16"/>
        <polygon class="cls-2" points="18.08 15.86 18.08 15.71 17.31 15.71 17.31 17.16 17.48 17.16 17.48 16.48 18.04 16.48 18.04 16.34 17.48 16.34 17.48 15.86 18.08 15.86"/>
        <path class="cls-2" d="M10.71,17.04c-.15,0-.31-.1-.35-.13l-.08.12s.18.16.43.16c.3,0,.47-.18.47-.42,0-.11-.05-.2-.11-.26-.09-.09-.22-.14-.32-.19-.08-.04-.15-.07-.2-.11-.04-.04-.07-.08-.07-.15,0-.13.1-.23.29-.23.16,0,.28.09.31.11l.08-.1s-.14-.15-.4-.15-.44.16-.44.38c0,.11.04.19.09.23.07.07.16.12.26.16.1.04.2.09.27.15.05.04.08.1.08.16,0,.14-.08.26-.3.26Z"/>
        <path class="cls-2" d="M16.57,5c0-.06-.27-.11-.59-.11s-.59.05-.59.11.26.11.59.11.59-.05.59-.11Z"/>
        <path class="cls-2" d="M15.98,4.75c.29,0,.53.03.63.08l.21-.64h-.03s-.34.23-.34.23l.08.06-.21.21-.17-.23.11-.05-.26-.4h-.04l-.26.37.1.04-.14.26-.22-.18.09-.07-.36-.26.18.65c.11-.05.35-.08.63-.08Z"/>
        <path class="cls-2" d="M17.04,9.17c-.33,0-.59.05-.59.11s.27.11.59.11.59-.05.59-.11-.27-.11-.59-.11Z"/>
        <path class="cls-2" d="M17.51,8.7l.08.06-.21.21-.17-.23.11-.05-.26-.4h-.04l-.26.37.1.04-.14.26-.22-.18.09-.07-.36-.26.18.65c.11-.05.35-.08.63-.08.29,0,.53.03.64.08l.21-.64h-.03s-.34.23-.34.23Z"/>
        <path class="cls-2" d="M17.5,5c0,.06.26.11.59.11s.59-.05.59-.11-.26-.11-.59-.11-.59.05-.59.11Z"/>
        <path class="cls-2" d="M18.1,4.75c.29,0,.53.03.64.08l.21-.64h-.03s-.34.23-.34.23l.08.06-.21.21-.17-.23.11-.05-.26-.4h-.04l-.26.37.1.04-.14.26-.22-.18.09-.06-.36-.26.18.65c.11-.05.35-.08.63-.08Z"/>
        <path class="cls-2" d="M18.87,7.77h-1.57l-.02.04c-.03.07-.08.13-.25.13s-.22-.06-.25-.13l-.02-.04h-1.56v-2.16h-.14v.07l-.14-.04c-.02-.05-.06-.09-.12-.09-.07,0-.13.06-.13.13s.06.13.13.13c.03,0,.06-.01.08-.03l.18.05v.17l-.13-.02s-.07-.08-.12-.08c-.07,0-.13.06-.13.13s.06.13.13.13c.04,0,.07-.02.09-.04l.16.03v.18h-.14s-.06-.07-.11-.07c-.07,0-.13.06-.13.13s.06.13.13.13c.04,0,.08-.02.1-.05h.15v.2h-.14s-.06-.05-.1-.05c-.07,0-.13.06-.13.13s.06.13.13.13c.05,0,.09-.03.11-.06h.14s0,.17,0,.17l-.16.03s-.06-.04-.09-.04c-.07,0-.13.06-.13.13s.06.13.13.13c.05,0,.1-.03.12-.08l.13-.02v.17l-.17.05s-.05-.03-.08-.03c-.07,0-.13.06-.13.13s.06.13.13.13c.06,0,.11-.04.12-.09l.13-.04v.17l-.19.08s-.04-.02-.07-.02c-.07,0-.13.06-.13.13s.06.13.13.13c.06,0,.12-.05.13-.11l.13-.06v.15h1.62c.07.11.18.17.35.17s.29-.06.35-.17h1.62v-2.3h-.14v2.16Z"/>
        <path class="cls-2" d="M15.69,5.8l-.02.2s.01.05.03.05c.04,0,.08-.04.08-.12,0-.1-.05-.12-.09-.12Z"/>
        <path class="cls-2" d="M16.05,6.06s.06-.04.06-.12c0-.09-.03-.14-.07-.14-.03,0-.06.04-.06.12s.03.14.07.14Z"/>
        <path class="cls-2" d="M16.44,5.46h-1.01v2.04h1.1c.25,0,.4.06.42.28l.02-1.86c0-.18-.06-.33-.19-.41-.08-.05-.2-.06-.34-.06ZM16.23,5.8l.11-.02.08.18.07-.18h.11s-.04.02-.03.07v.15s0,.05.04.05l-.14.02s.04-.02.03-.07v-.16s-.09.23-.09.23l-.11-.21v.1s0,.06,0,.07c0,.02.01.02.04.02l-.11.02s.03-.02.03-.04c0-.01,0-.04,0-.08v-.09c0-.06,0-.06-.03-.06ZM16.48,6.5s-.09-.04-.09-.09c0-.05.04-.09.11-.09.01,0,.03,0,.04,0l.03.08s-.05-.06-.08-.06c-.04.06-.02.07,0,.09.05.02.09.05.09.1s-.04.1-.11.1c-.02,0-.04,0-.05,0l-.04-.09h.02s.04.07.08.07c.02,0,.04-.02.04-.04,0-.03-.02-.04-.05-.05ZM16.18,6.36s.04.11.06.16l.05-.15-.03-.05h.11s-.03.02-.05.06c0,0-.06.14-.09.23h-.03l-.09-.23s-.02-.04-.05-.04l.15-.02s-.03.03-.03.04ZM16.05,5.78c.08,0,.15.06.15.15,0,.1-.07.16-.15.16-.09,0-.15-.07-.15-.15,0-.07.05-.16.16-.16ZM15.55,6.07s.04-.02.04-.07v-.15s0-.05-.03-.05l.13-.02c.06,0,.1.01.13.04.02.02.04.05.04.09,0,.11-.09.16-.19.16h-.12ZM15.85,7.14l-.15.02s.03-.02.03-.07v-.15s0-.05-.03-.05l.15-.02s-.03.02-.03.07v.15s0,.05.03.05ZM15.75,6.62s.03-.02.03-.04c0-.01,0-.04,0-.09v-.08s0-.04,0-.05l.07-.03.15.19v-.06s0-.07,0-.09c0-.02-.01-.02-.04-.02l.11-.02s-.03.02-.04.04c0,.01,0,.04,0,.09v.17l-.21-.21v.08s0,.07,0,.09c0,.02.01.02.04.02l-.11.02ZM16.1,7.16h-.22s.04-.02.04-.07v-.15s0-.05-.03-.05l.15-.02s-.04.02-.04.07v.15s.03.04.04.04.03,0,.04-.01c0,0,.01-.02.02-.04.02.02,0,.07,0,.08ZM16.36,7.16h-.22s.04-.02.04-.07v-.15s0-.05-.03-.05l.15-.02s-.04.02-.04.07v.15s.03.04.04.04.03,0,.04-.01c0,0,.01-.02.02-.04.02.02,0,.07,0,.08ZM16.59,6.93s-.06.14-.09.23h-.03l-.09-.23s-.02-.04-.05-.04l.15-.02s-.03.03-.03.04c0,.03.04.11.06.16l.05-.15-.03-.05h.11s-.03.02-.05.06ZM16.78,6.06l-.15.02s.03-.02.03-.07v-.15s0-.05-.03-.05l.15-.02s-.03.02-.03.07v.15s0,.05.03.05Z"/>
        <path class="cls-2" d="M18.2,6.48c0-.09-.03-.14-.07-.14-.03,0-.06.04-.06.12s.03.14.07.14c.04,0,.06-.04.06-.12Z"/>
        <polygon class="cls-2" points="18.18 7.04 18.24 7.04 18.21 6.95 18.18 7.04"/>
        <polygon class="cls-2" points="18.31 5.87 18.29 5.96 18.34 5.96 18.31 5.87"/>
        <path class="cls-2" d="M17.55,7.5h1.11v-2.04h-1.02c-.14,0-.25.02-.34.06-.13.08-.19.22-.19.41l.02,1.86c.01-.23.16-.28.42-.28ZM17.67,7.16s.03-.02.03-.07v-.16s-.09.23-.09.23l-.11-.21v.1s0,.06,0,.07c0,.02.01.02.04.02l-.11.02s.03-.02.03-.04c0-.01,0-.04,0-.08v-.09c0-.06,0-.06-.03-.06l.11-.02.08.18.07-.18h.11s-.04.02-.03.07v.15s0,.05.04.05l-.14.02ZM17.71,6.6l-.16.02s.04-.02.04-.07v-.2s-.05,0-.06.01c0,0-.01.02-.02.04v-.09s.2.01.2.01l.04.08s-.03-.04-.04-.05c0,0-.02-.01-.04-.01v.2s0,.05.03.05ZM17.79,6.34l.15-.02s-.03.02-.03.07v.15s0,.05.03.05l-.15.02s.03-.02.03-.07v-.15s0-.05-.03-.05ZM18.06,7.16h-.23s.04-.02.04-.07v-.15s0-.05-.03-.05l.21-.02v.07s-.05-.05-.08-.05l-.03.1c.06,0,.06,0,.07-.04l.02.11s-.03-.04-.06-.04l-.02.07s.03.04.04.04c.02,0,.04,0,.05-.01,0,0,.02-.02.02-.05.02.03,0,.07,0,.08ZM17.98,6.47c0-.07.05-.16.16-.16.08,0,.15.06.15.15,0,.1-.07.16-.15.16-.09,0-.15-.07-.15-.15ZM18.24,7.16v-.09s-.06,0-.06,0v.04s.01.04.01.04h-.1s.03-.02.04-.06l.09-.23.06.08.06.15s.02.04.04.04l-.14.02ZM18.23,6.01l.09-.23.06.08.06.15s.02.04.04.04l-.14.02v-.09s-.06,0-.06,0v.04s.01.05.01.05h-.1s.03-.02.04-.06ZM17.91,5.81l.07-.03.15.19v-.06s0-.07,0-.09c0-.02-.01-.02-.04-.02l.11-.02s-.03.02-.04.04c0,.01,0,.04,0,.09v.17l-.21-.21v.08s0,.07,0,.09c0,.02.01.02.04.02l-.11.02c.04-.05.04-.08.04-.13v-.08s0-.04,0-.05ZM17.71,5.8l.15-.02s-.03.02-.03.07v.15s0,.05.03.05l-.15.02s.03-.02.03-.07v-.15s0-.05-.03-.05ZM17.33,6.03s0-.04,0-.08v-.09c0-.06,0-.06-.03-.06l.11-.02.08.18.07-.18h.11s-.04.02-.03.07v.15s0,.05.04.05l-.14.02s.04-.02.03-.07v-.16s-.09.23-.09.23l-.11-.21v.1s0,.06,0,.07c0,.02.01.02.04.02l-.11.02s.03-.02.03-.04Z"/>
        <path class="cls-2" d="M16.51,10.67c-.06,0-.12.05-.12.12s.05.12.12.12.12-.05.12-.12-.05-.12-.12-.12Z"/>
        <path class="cls-2" d="M17.71,10.86c-.07,0-.12.05-.12.12s.05.12.12.12.12-.05.12-.12-.05-.12-.12-.12Z"/>
        <path class="cls-2" d="M17.03,2.58c.07,0,.12-.05.12-.12s-.05-.12-.12-.12-.12.05-.12.12.05.12.12.12Z"/>
        <path class="cls-2" d="M19.83,3.68c.06,0,.12-.05.12-.11,0-.06-.05-.12-.11-.12-.06,0-.12.05-.12.11,0,.07.05.12.11.12Z"/>
        <path class="cls-2" d="M13.79,8.47c-.08,0-.16.05-.27.13l-.38.26.08.11.4-.27c.08-.06.13-.09.17-.09.05,0,.1.02.15.08.03.04.04.08.04.12,0,.06-.03.1-.11.15l-.44.32.08.11.43-.3c.15-.1.17-.17.17-.25,0-.07-.02-.14-.07-.21-.05-.07-.13-.15-.25-.15Z"/>
        <polygon class="cls-2" points="13.66 7.97 13.08 8.2 13.54 7.63 13.49 7.51 12.68 7.79 12.73 7.91 13.32 7.7 12.86 8.27 12.9 8.39 13.7 8.09 13.66 7.97"/>
        <rect class="cls-2" x="12.57" y="7.08" width=".86" height=".14" transform="translate(-.91 1.98) rotate(-8.43)"/>
        <polygon class="cls-2" points="13.39 6.33 12.54 5.98 12.54 6.13 13.22 6.39 12.51 6.58 12.51 6.73 13.38 6.47 13.39 6.33"/>
        <path class="cls-2" d="M13.78,4.89l-.31-.17c.07-.13.09-.14.22-.13l.24.02.07-.13-.28-.02c-.06,0-.1,0-.14,0-.01,0-.03.01-.04.02,0-.02,0-.03,0-.05,0-.02,0-.05-.01-.07-.02-.05-.05-.09-.11-.12-.04-.02-.08-.03-.12-.03-.12,0-.18.07-.25.21l-.1.18.75.41.07-.12ZM13.38,4.63l-.26-.1.04-.07c.05-.09.09-.13.14-.13.02,0,.04,0,.07.02.03.02.06.05.07.08,0,.09-.02.14-.05.19Z"/>
        <rect class="cls-2" x="14.49" y="2.87" width=".14" height=".86" transform="translate(.99 9.52) rotate(-37.38)"/>
        <polygon class="cls-2" points="14.99 2.65 15.33 3.31 15.45 3.25 15.11 2.59 15.33 2.48 15.27 2.37 14.72 2.66 14.77 2.77 14.99 2.65"/>
        <polygon class="cls-2" points="16.09 3.01 16.22 2.97 16.13 2.65 16.25 2.07 16.1 2.11 16.03 2.53 15.74 2.22 15.6 2.26 16 2.69 16.09 3.01"/>
        <polygon class="cls-2" points="19.03 3.02 19.31 3.18 19.36 3.08 19.09 2.92 19.21 2.72 19.5 2.89 19.56 2.79 19.15 2.55 18.72 3.29 18.83 3.35 19.03 3.02"/>
        <polygon class="cls-2" points="20.41 5.07 20.46 5.21 20.84 5.3 20.58 5.59 20.63 5.74 20.97 5.34 21.44 5.45 21.39 5.31 21.05 5.23 21.28 4.97 21.23 4.82 20.92 5.19 20.41 5.07"/>
        <polygon class="cls-2" points="20.69 6.17 21.07 6.14 21.1 6.46 21.21 6.45 21.19 6.13 21.42 6.11 21.45 6.45 21.57 6.44 21.53 5.97 20.67 6.04 20.69 6.17"/>
        <path class="cls-2" d="M21.05,6.8c-.1,0-.19.03-.26.08-.13.09-.15.23-.15.31,0,.29.27.41.48.41.1,0,.19-.03.26-.08.14-.1.15-.26.15-.31,0-.25-.23-.4-.47-.4ZM21.31,7.4s-.12.05-.19.05c-.17,0-.36-.09-.36-.26,0-.06.02-.14.1-.2.05-.04.12-.06.19-.06.08,0,.24.02.32.13.03.04.04.08.04.13,0,.07-.03.14-.1.19Z"/>
        <path class="cls-2" d="M20.44,4.78c.09,0,.18-.03.27-.09.11-.07.22-.19.22-.36,0-.07-.02-.14-.06-.2-.08-.12-.19-.18-.32-.18-.09,0-.18.03-.27.08-.16.1-.22.25-.22.36,0,.07.02.14.06.2.09.14.23.18.32.18ZM20.36,4.15c.07-.05.15-.07.21-.07.08,0,.15.04.19.11.03.04.04.09.04.13,0,.09-.06.19-.17.26-.08.05-.15.07-.22.07-.08,0-.15-.03-.19-.11-.02-.04-.04-.08-.04-.12,0-.1.06-.2.17-.27Z"/>
        <path class="cls-2" d="M18.18,3.07c.06,0,.12-.01.18-.04.14-.08.24-.26.24-.44,0-.08-.01-.15-.05-.21-.07-.13-.2-.19-.33-.19-.18,0-.33.12-.4.33-.01.05-.02.09-.02.14,0,.09.01.15.05.22.08.15.22.19.33.19ZM18.22,2.3c.1,0,.24.08.24.27,0,.12-.09.37-.29.37-.06,0-.15-.03-.2-.12-.02-.04-.04-.1-.04-.15,0-.15.1-.37.29-.37Z"/>
        <polygon class="cls-2" points="13.59 5.32 13.47 5.29 13.37 5.63 13.12 5.56 13.2 5.25 13.09 5.22 13 5.53 12.78 5.47 12.88 5.12 12.77 5.09 12.63 5.57 13.46 5.79 13.59 5.32"/>
        <path class="cls-2" d="M13.99,3.87c.05-.02.12-.05.18-.05.03,0,.05,0,.08.03.03.02.04.05.04.09,0,.03-.02.07-.05.11-.04.04-.11.08-.19.1l.03.11s.15-.01.26-.14c.06-.06.09-.13.09-.2,0-.07-.03-.13-.09-.18-.05-.04-.1-.06-.15-.06-.07,0-.14.03-.19.05-.06.03-.16.08-.22.03-.02-.02-.03-.04-.03-.07,0-.03.02-.07.05-.11.07-.08.17-.09.17-.09l-.02-.11s-.12,0-.24.12c-.06.06-.08.13-.08.2,0,.06.03.12.08.16.1.09.21.05.31,0Z"/>
        <path class="cls-2" d="M20.45,7.91l.32.15c-.06.14-.08.15-.21.15h-.25s-.06.13-.06.13h.28c.06,0,.1,0,.14-.01.03.03.04.06.05.09.04.09.14.14.22.14.14,0,.19-.08.25-.23l.08-.18-.78-.35-.05.12ZM20.86,8.14l.26.08-.03.07c-.05.1-.08.14-.14.14-.04,0-.1-.02-.13-.09,0-.02,0-.03,0-.05,0-.05.02-.1.05-.15Z"/>
        <path class="cls-2" d="M20,8.72c-.09.11-.16.21-.16.34,0,.11.05.23.17.33.08.07.18.1.27.1.12,0,.21-.04.36-.22l.14-.17-.67-.53-.12.15ZM20.61,9.14l-.04.05c-.09.11-.15.18-.27.18-.07,0-.13-.03-.2-.08-.07-.05-.14-.14-.14-.25,0-.07.04-.15.1-.22l.06-.07.49.39Z"/>
        <path class="cls-2" d="M16.36,11.52c-.05.15-.13.29-.2.41l.1.1s.06-.02.09-.02c.1,0,.18.08.18.18s-.08.18-.18.18c-.09,0-.17-.06-.21-.12,0,0-.02.08-.02.19,0,.35.38.75.92.92.53-.17.92-.57.92-.92,0-.12-.02-.19-.02-.19-.04.05-.11.12-.21.12s-.18-.08-.18-.18.08-.18.18-.18c.04,0,.07.01.1.03l.1-.1c-.05-.13-.09-.26-.12-.37.88-.12,1.63-.49,2.22-1.12,1.23-.94,1.94-2.36,1.94-3.9,0-2.7-2.2-4.9-4.91-4.9s-4.91,2.2-4.91,4.9c0,1.62.8,3.13,2.14,4.05.13.49.58.85,1.12.85.14,0,.28-.03.42-.08.18.06.36.11.55.15ZM17.72,11.88c-.18,0-.33.13-.33.32s.15.32.33.32c.03,0,.05,0,.08-.01-.04.27-.35.58-.76.71-.41-.14-.72-.44-.76-.71.02,0,.05.01.08.01.2,0,.33-.14.33-.32s-.14-.32-.32-.32c.06-.1.11-.21.15-.32.23.04.45.06.65.06.17,0,.33,0,.49-.03.02.09.05.19.09.29h-.02ZM17.15,11.47c-.66,0-1.48-.22-2.04-.56-.17-.1-.37-.29-.37-.61,0-.09.02-.17.05-.25.21.17.43.34.57.41.03.02.05.03.09.03.09,0,.16-.07.16-.16,0-.07-.04-.12-.1-.15-.12-.05-.36-.15-.62-.29.12-.16.31-.26.53-.26.1,0,.19.02.28.06l.18.1c.57.35,2.05,1.25,3.83.76-.68.61-1.51.91-2.54.91ZM17.04,9.84c-.21,0-.42-.02-.62-.06-.2-.38-.6-.63-1.03-.63-.11,0-.21.02-.31.04-.83-.62-1.33-1.6-1.33-2.64,0-1.81,1.48-3.29,3.29-3.29s3.29,1.48,3.29,3.29-1.48,3.29-3.29,3.29ZM17.77,9.9c-.1.14-.16.34-.17.53-.31-.08-.59-.19-.84-.3.05-.09.18-.16.28-.16.25,0,.5-.03.73-.08ZM16.73,9.97s-.08.07-.1.11c-.12-.06-.28-.14-.38-.19.14.03.33.07.48.09ZM15.39,9.29c.34,0,.66.17.84.45-.16-.04-.32-.1-.48-.16-.11-.05-.23-.08-.35-.08-.27,0-.51.13-.66.33-.06-.03-.12-.07-.19-.11.18-.26.49-.44.83-.44ZM14.24,10.4c-1.23-.9-1.96-2.32-1.96-3.85,0-2.63,2.14-4.76,4.76-4.76s4.76,2.14,4.76,4.76c0,1.5-.69,2.89-1.89,3.8-.8.28-1.54.26-2.18.12.02-.28.14-.59.32-.64,1.4-.43,2.42-1.74,2.42-3.27,0-1.89-1.54-3.43-3.43-3.43s-3.43,1.54-3.43,3.43c0,1.05.49,2.05,1.32,2.7-.2.09-.36.23-.49.4-.06-.04-.12-.09-.18-.13,0,.08.06.14.13.2-.1.17-.16.37-.16.58,0,.03,0,.07,0,.1ZM15.39,11.32c-.56,0-1.01-.45-1.01-1.01,0-.18.04-.34.12-.48l.17.15c-.05.1-.08.22-.08.34,0,.3.15.56.44.73.17.1.36.19.56.26-.06.01-.13.02-.2.02Z"/>
        <path class="cls-2" d="M9.17,16.53h.1c.21,0,.26.02.36.25l.17.37h.18l-.19-.43c-.04-.09-.07-.15-.11-.19-.03-.03-.07-.05-.12-.06.09-.01.18-.06.23-.11.06-.06.09-.15.09-.25,0-.12-.04-.22-.11-.29-.11-.11-.26-.11-.45-.11h-.31v1.45h.17v-.63ZM9.17,15.85h.16c.12,0,.23,0,.31.08.03.03.07.1.07.18,0,.07-.03.14-.07.19-.1.1-.26.09-.4.09h-.06v-.54Z"/>
        <path class="cls-2" d="M15.52,16.44c0,.43.27.74.65.74s.66-.31.66-.76-.27-.74-.65-.74-.66.31-.66.76ZM16.65,16.42c0,.36-.17.62-.47.62-.27,0-.48-.24-.48-.6s.18-.6.47-.6.48.24.48.59Z"/>
        <path class="cls-2" d="M18.03,21.21l-.42-.55c-.33-.43-.38-.49-.47-.55.47-.11.75-.42.75-.8,0-.3-.19-.61-.52-.74-.16-.06-.36-.09-.64-.09h-1.33v.11l.31.08c.09.03.13.06.13.14v2.39c0,.08-.03.12-.13.14l-.31.08v.11h1.37v-.11l-.35-.08c-.09-.02-.13-.06-.13-.14v-1.03h.24c.22,0,.29.09.47.35l.64.89c.08.1.12.13.2.13h.73v-.11l-.31-.07c-.09-.02-.17-.07-.23-.15ZM16.68,20.03h-.38v-1.4h.23c.19,0,.32,0,.47.06.27.12.39.36.39.63,0,.35-.13.71-.7.71Z"/>
      </g>
    </g>
  </g>
</svg>