<?xml version="1.0" encoding="UTF-8"?>
<svg id="Layer_2" data-name="Layer 2" xmlns="http://www.w3.org/2000/svg" viewBox="0 0 48.59 25.4">
  <defs>
    <style>
      .cls-1 {
        fill: #231f20;
      }

      .cls-1, .cls-2 {
        stroke-width: 0px;
      }

      .cls-2 {
        fill: #e7a614;
      }
    </style>
  </defs>
  <g id="Layer_1-2" data-name="Layer 1">
    <g>
      <path class="cls-2" d="M17.33,14.58c-.5-.21-1.81-.78-2.05-1.31-.16-.37-1.07-2.48-1.25-2.78-.18-.3-.35-1.02-1.07-1.08-.71-.06-1.69-.21-2.43-.12-.74.09-1.3-.39-1.66-.57-.36-.18-.92-.48-1.48-.45-.33.02-.86.21-1.42.3-.56.09-1.01.45-1.42.81-.41.36-1.07.75-1.3,1.08-.24.33-1.04,1.79-1.07,2.27-.03.48.12,1.47.47,1.94.36.48,1.04,1.22,1.45,1.22.69,0,1.72-.62,2.22-.62s1.66.45,1.66,1.01-.03,1.01.27,1.61c.3.6.92,1.46.86,1.85-.06.39-.62.6-.56,1.34.03.35.56,1.67.77,2.15s.45,1.38.62,1.64c.18.27.92.78,1.84.36.92-.42,1.69-.96,1.93-1.79.24-.84.62-1.46,1.1-1.82.48-.36.8-.54.71-1.4-.09-.87-.18-1.94.09-2.3.27-.36,1.72-2.06,1.9-2.33.18-.27.33-.8-.18-1.01M14.05,21.77c.04.29-.53.31-.71.28-.18-.04-.17-.28-.17-.53s.24-.29.42-.33c.18-.04.42.29.45.58M15.49,7.12c.14-.39.56-2.49-.13-3.28-.02-.22-.57-.85-1.04-.13-.8.52-.58,2.46-.33,2.92-.47.71-.19,1.93-.27,2.43,0,0,.03.52.37.8.34.28.71.26,1.02.11.32-.16.56-1.02.38-2.86M12.76,4.42c.25-.51.86-2.15-.45-3.31-.12-.29-.77-.77-1.03,0-.59.69-.31,2.91.02,3.37-.52.92-.27,2.9-.27,2.97,0,0-.05.6.39.99.43.39.87-.45.87-.45.71-.96.48-3.03.46-3.57M10.09,4.1c.19-.29.96-2.74-.28-3.64-.04-.18-.71-1.02-1.11.13-.36.47-1.07,1.91.18,3.55-.98,1.73-.26,3.45.09,3.76.44.21.8-.07,1.21-.57.74-.88.19-2.85-.1-3.24M7.05,5.35c.6-.62.3-2.83-.41-3.19-.05-.2-.33-.54-.55-.52-.22.02-.53.27-.56.48-.65.7-.85,2.73.07,3.38,0,.74.29,2.01.54,2.3.36.44,1.16.24,1.51-.25.46-.65-.13-1.91-.6-2.21M2.89,10.16c.48-.51.29-.83.29-.83,0-.88-.96-2.07-1.97-2.05-.12-.07-.26-.11-.42-.11-.42,0-.75.3-.75.68,0,.09.02.18.06.26-.37,1.05.31,2.75,1.37,2.69,1.33-.08.94-.12,1.42-.63M15.97,22.35c-.03.24-.03.96.39.57.41-.39,1.28-1.76,1.25-2.09-.03-.33-.51-.51-.74-.18-.24.33-.86,1.46-.89,1.7"/>
      <rect class="cls-2" x="32.07" y="11.1" width=".53" height="1.17"/>
      <path class="cls-1" d="M22.06,22.85h.59v.55c-.07.02-.13.03-.2.04-.06,0-.13.01-.2.01-.35,0-.62-.09-.81-.27-.19-.18-.29-.42-.29-.75,0-.34.1-.6.3-.79.2-.19.47-.29.83-.29.15,0,.29.02.43.05.14.03.28.09.42.16v-.48c-.16-.06-.31-.11-.45-.14-.14-.03-.28-.04-.44-.04-.33,0-.62.07-.86.19-.25.13-.44.31-.57.54-.14.23-.2.5-.21.81,0,.45.15.8.42,1.05.28.25.67.38,1.18.38.15,0,.3,0,.45-.03.15-.02.31-.05.48-.09v-1.36h-1.09v.44Z"/>
      <path class="cls-1" d="M23.68,22.8c0,.34.1.61.29.8.19.19.45.29.79.3.34,0,.61-.11.8-.31.19-.2.29-.48.3-.83,0-.34-.1-.61-.29-.81-.19-.19-.45-.29-.79-.3-.34,0-.61.11-.8.31-.19.2-.29.48-.3.83M24.17,22.78c0-.23.05-.4.16-.53.1-.12.25-.19.44-.19.19,0,.34.06.44.19.1.12.16.3.16.53,0,.23-.05.41-.16.53-.1.12-.25.19-.44.19-.19,0-.33-.06-.44-.19-.1-.12-.16-.3-.16-.53"/>
      <path class="cls-1" d="M26.41,23.85h.46v-.83h.05c.06,0,.09,0,.11,0,0,0,.02,0,.03,0,.01,0,.03,0,.05,0l.02.03.14.2c.05.08.11.16.18.24.06.08.13.16.19.24.03.04.05.06.06.07.01.01.03.03.04.05h.62c-.07-.07-.17-.17-.28-.3-.11-.13-.22-.26-.33-.39l-.14-.18-.04-.04c.14-.06.24-.14.31-.24.07-.1.1-.22.1-.36,0-.11-.02-.21-.07-.3-.04-.09-.11-.16-.19-.21-.08-.05-.17-.09-.28-.11-.11-.02-.24-.04-.4-.04-.08,0-.17,0-.28,0-.11,0-.21,0-.32.01h-.05v2.15ZM26.88,22.05s.08,0,.11,0c.03,0,.06,0,.1,0,.14,0,.25.03.32.08s.11.14.11.24c0,.11-.04.19-.12.24-.08.05-.2.08-.36.08-.02,0-.04,0-.06,0-.02,0-.04,0-.07,0h-.04v-.62Z"/>
      <path class="cls-1" d="M28.5,22.8c0,.34.1.61.29.8.19.19.45.29.79.3.34,0,.61-.11.8-.31.19-.2.29-.48.3-.83,0-.34-.1-.61-.29-.81-.19-.19-.45-.29-.79-.3-.34,0-.61.11-.8.31-.19.2-.29.48-.3.83M29,22.78c0-.23.05-.4.16-.53.1-.12.25-.19.44-.19.19,0,.34.06.44.19.1.12.16.3.16.53,0,.23-.05.41-.16.53-.1.12-.25.19-.44.19-.19,0-.33-.06-.44-.19-.1-.12-.16-.3-.16-.53"/>
      <path class="cls-1" d="M31.24,23.85h.43v-1.27c0-.07,0-.15-.01-.22,0-.08-.02-.18-.05-.3.04.13.08.23.11.3.03.07.07.14.11.2l.73,1.15c.03.06.07.1.11.11.04.02.09.03.17.03h.37v-2.15h-.43v1.27c0,.07,0,.15.01.22,0,.08.02.18.05.3-.04-.13-.08-.23-.11-.3-.03-.07-.07-.14-.11-.2l-.73-1.15c-.03-.06-.07-.1-.11-.11-.04-.02-.09-.03-.17-.03h-.37v2.15Z"/>
      <path class="cls-1" d="M34.77,23.06h.46v.41s-.08.02-.12.02c-.04,0-.08,0-.12,0-.24,0-.42-.06-.55-.18-.13-.12-.19-.29-.2-.51,0-.24.07-.42.22-.55.14-.13.35-.2.6-.2.12,0,.22.01.32.03.1.02.2.06.3.12v-.42c-.11-.05-.22-.08-.33-.1-.11-.02-.22-.03-.34-.03-.39,0-.69.11-.91.32-.22.21-.34.49-.34.84,0,.34.11.6.32.78.21.18.51.28.9.28.12,0,.24,0,.37-.02.12-.01.24-.04.35-.06v-1.1h-.92v.37Z"/>
      <path class="cls-1" d="M36.21,22.8c0,.34.1.61.29.8.19.19.45.29.79.3.34,0,.61-.11.8-.31.19-.2.29-.48.3-.83,0-.34-.1-.61-.29-.81-.19-.19-.45-.29-.79-.3-.34,0-.61.11-.8.31-.19.2-.29.48-.3.83M36.7,22.78c0-.23.05-.4.16-.53.1-.12.25-.19.44-.19.19,0,.34.06.44.19.1.12.16.3.16.53,0,.23-.05.41-.16.53-.1.12-.25.19-.44.19-.19,0-.34-.06-.44-.19-.1-.12-.16-.3-.16-.53"/>
      <path class="cls-1" d="M38.82,23.74c.1.06.2.1.31.13s.22.04.34.04c.26,0,.46-.06.6-.18.14-.11.22-.27.22-.48,0-.08-.01-.15-.03-.21-.02-.07-.06-.12-.1-.18-.04-.05-.09-.09-.16-.13-.06-.04-.15-.09-.26-.14-.05-.02-.09-.04-.13-.06-.04-.02-.07-.03-.1-.05-.03-.01-.05-.03-.08-.04-.02-.01-.04-.03-.06-.05-.01-.01-.03-.03-.03-.05,0-.02-.01-.04-.01-.06,0-.07.04-.12.1-.16.07-.04.15-.06.26-.06.09,0,.19.02.28.05.09.03.18.08.27.14v-.44c-.1-.05-.2-.09-.29-.11-.1-.02-.2-.03-.31-.03-.24,0-.43.06-.58.18-.14.11-.22.27-.22.46,0,.08.01.15.04.22s.07.13.12.17c.04.04.09.08.15.11.06.04.15.08.26.14.12.06.21.1.25.12.05.03.08.05.1.08.02.02.03.04.04.06,0,.02.01.05.01.07,0,.07-.03.12-.1.16-.06.04-.15.06-.26.06-.11,0-.22-.02-.33-.06-.11-.04-.2-.09-.29-.16v.46Z"/>
      <path class="cls-1" d="M40.53,23.85h.47l.02-.05c.02-.07.05-.14.07-.21.03-.07.06-.16.09-.25l.02-.05h.83l.02.04.06.19s.02.07.04.11c.01.05.03.1.05.16l.02.05h.5l-.03-.1c-.05-.14-.1-.3-.17-.48-.06-.18-.13-.35-.19-.53-.06-.17-.12-.33-.18-.48-.06-.15-.13-.31-.19-.48l-.03-.08h-.51l-.03.07c-.06.14-.12.27-.16.37-.04.1-.09.2-.12.29-.04.09-.08.19-.12.29-.16.4-.3.75-.4,1.04l-.03.09ZM41.35,22.92s.02-.04.02-.06c0-.02,0-.02,0-.02l.1-.26.07-.2.07-.18s0-.01,0-.02c0-.01,0-.03.01-.04.01.03.02.06.03.08,0,.03.03.08.05.15l.07.21s.03.08.04.12c.02.04.03.09.05.14l.02.07h-.56Z"/>
      <path class="cls-1" d="M20.62,19.4h.61v-1.69h.1c.41,0,.72-.14.92-.39.2-.25.3-.59.3-1.01,0-.5-.13-.85-.36-1.07-.24-.21-.55-.32-.95-.31h-.61v4.46ZM21.22,15.47c.24,0,.41.08.52.23s.16.35.16.61c0,.25-.04.46-.14.62-.1.17-.28.25-.54.26v-1.72Z"/>
      <path class="cls-1" d="M23.03,19.4h.58v-1.9c0-.3.06-.5.17-.61.11-.11.22-.16.34-.15.04,0,.07,0,.1,0,.03,0,.05.01.08.02v-.68h0c-.22.02-.38.1-.49.22-.11.13-.18.27-.21.42h-.01v-.59h-.55v3.26Z"/>
      <path class="cls-1" d="M25.61,19.46c.25,0,.45-.08.6-.23.15-.15.25-.35.31-.6.06-.25.09-.54.09-.85,0-.31-.03-.6-.09-.85-.06-.25-.17-.45-.31-.6-.15-.15-.35-.23-.6-.23-.25,0-.45.08-.6.23-.15.15-.25.35-.31.6-.06.25-.09.54-.09.85,0,.31.03.6.09.85.06.25.17.45.31.6.15.15.35.23.6.23M25.61,18.96c-.13,0-.23-.11-.3-.34-.06-.23-.1-.56-.1-1.01,0-.3.02-.55.08-.74.06-.19.16-.29.31-.29.15,0,.25.1.31.29.06.19.09.44.08.74,0,.45-.03.78-.1,1.01-.06.23-.16.34-.3.34"/>
      <path class="cls-1" d="M27.14,16.14v3.44c0,.13-.02.24-.06.31-.04.07-.1.11-.19.11-.02,0-.04,0-.06-.01-.02,0-.04-.02-.06-.03v.56s.08.02.12.03c.04,0,.09.01.12.01.2,0,.36-.06.5-.2.13-.14.2-.37.2-.69v-3.53h-.58ZM27.06,15.39c0,.11.04.2.11.27.07.07.16.11.26.11.11,0,.2-.04.27-.11s.11-.16.11-.27c0-.11-.04-.19-.11-.27-.07-.07-.16-.11-.27-.11-.1,0-.19.04-.26.11-.07.07-.11.16-.11.27"/>
      <path class="cls-1" d="M28.87,17.38c0-.2.02-.39.08-.55.06-.16.16-.25.32-.25.15,0,.26.09.32.25.06.16.09.34.09.55h-.8ZM30.22,17.83v-.47c0-.41-.09-.73-.25-.95-.17-.22-.39-.33-.68-.33-.31,0-.56.13-.73.38-.17.26-.26.66-.26,1.22,0,.64.08,1.1.24,1.37.16.27.41.41.74.4.2,0,.37-.05.5-.16.13-.1.23-.23.29-.39.06-.16.1-.34.1-.52h-.52c0,.13-.03.26-.09.38-.05.12-.15.19-.28.2-.12,0-.21-.06-.27-.16-.06-.11-.1-.24-.11-.41-.02-.17-.03-.35-.03-.55h1.35Z"/>
      <path class="cls-1" d="M32.41,16.97c0-.14-.03-.28-.08-.41-.05-.13-.14-.25-.25-.33-.11-.09-.26-.13-.45-.14-.32,0-.56.13-.71.41-.15.28-.23.72-.22,1.32,0,.56.07.97.22,1.24.15.26.38.39.69.39.25,0,.44-.08.58-.23.13-.15.22-.38.26-.67l-.52-.18c-.02.2-.05.34-.1.43-.05.09-.12.13-.21.13-.12,0-.21-.1-.26-.3-.05-.2-.08-.48-.08-.86,0-.33.01-.58.04-.75.03-.17.07-.28.12-.34.05-.06.11-.08.17-.08.09,0,.16.04.2.12.04.08.06.2.06.36l.55-.12Z"/>
      <path class="cls-1" d="M33.9,16.14h-.31v-.81h-.58v.81h-.31v.53h.31v2.15c0,.2.06.35.17.45.11.09.26.14.45.14.04,0,.09,0,.13,0,.05,0,.09-.01.14-.02v-.53h-.07c-.08,0-.13-.02-.18-.07-.04-.04-.06-.11-.06-.19v-1.92h.31v-.53Z"/>
      <path class="cls-1" d="M20.62,13.39h.62v-1.67h.1c.42,0,.73-.13.94-.38.2-.25.31-.58.31-1,0-.49-.13-.85-.37-1.06-.24-.21-.56-.32-.97-.31h-.63v4.43ZM21.24,9.49c.24,0,.42.08.53.23.11.15.17.35.17.61,0,.25-.04.45-.15.62-.1.16-.28.25-.55.26v-1.71Z"/>
      <path class="cls-1" d="M24.84,13.39v-2.44c0-.3-.08-.52-.24-.65-.16-.13-.38-.2-.66-.2-.24,0-.44.05-.6.16-.17.11-.28.31-.33.6l.52.14c.01-.14.05-.24.11-.31.06-.07.15-.1.27-.1.14,0,.23.04.29.11.06.07.08.16.08.27v.42h-.22c-.4,0-.69.08-.88.25-.18.17-.27.47-.27.89,0,.26.04.45.12.59.08.13.17.22.27.26.1.04.2.07.28.06.15,0,.28-.04.39-.12.11-.08.21-.22.29-.41h.01v.47h.56ZM23.51,12.46c0-.16.02-.31.1-.43.08-.12.25-.19.52-.2h.15v.43c0,.24-.06.42-.16.53-.1.11-.2.17-.3.17-.13,0-.21-.05-.26-.14-.04-.09-.06-.21-.06-.36"/>
      <path class="cls-1" d="M25.44,12.63c0,.3.08.51.23.64.15.12.34.19.59.18h.22v-.55h-.06c-.14,0-.24-.03-.3-.1-.06-.07-.09-.16-.09-.29v-3.54h-.59v3.66Z"/>
      <path class="cls-1" d="M27.32,11.39c0-.2.02-.38.08-.54.06-.16.16-.24.32-.25.16,0,.26.09.33.25.06.16.09.34.09.54h-.82ZM28.69,11.83v-.46c0-.41-.09-.72-.26-.94-.17-.22-.4-.33-.7-.33-.32,0-.57.12-.74.38-.18.26-.27.66-.27,1.21,0,.64.08,1.09.24,1.36.16.27.41.4.76.4.21,0,.38-.05.51-.15.13-.1.23-.23.3-.39s.1-.33.1-.52h-.53c0,.13-.03.25-.09.38-.05.12-.15.19-.28.2-.13,0-.22-.06-.28-.16-.06-.1-.1-.24-.12-.41-.02-.17-.03-.35-.03-.55h1.38Z"/>
      <path class="cls-1" d="M30.19,13.44c.26,0,.46-.08.61-.23.15-.15.26-.35.32-.6s.1-.53.09-.85c0-.31-.03-.59-.09-.85-.06-.25-.17-.45-.32-.6-.15-.15-.35-.22-.61-.23-.26,0-.46.08-.61.23-.15.15-.26.35-.32.6-.06.25-.09.53-.09.85,0,.31.03.59.09.85.06.25.17.45.32.6.15.15.35.22.61.23M30.19,12.95c-.14,0-.24-.11-.3-.34-.07-.22-.1-.56-.1-1,0-.3.03-.54.08-.73.06-.19.16-.28.32-.29.15,0,.26.1.32.29.06.19.09.43.08.73,0,.44-.03.78-.1,1-.07.22-.17.34-.3.34"/>
      <path class="cls-1" d="M33.58,13.39h.62v-1.67h.1c.42,0,.73-.13.94-.38.2-.25.31-.58.31-1,0-.49-.13-.85-.37-1.06-.24-.21-.56-.32-.97-.31h-.63v4.43ZM34.2,9.49c.24,0,.42.08.53.23.11.15.17.35.17.61,0,.25-.04.45-.15.62-.1.16-.29.25-.55.26v-1.71Z"/>
      <path class="cls-1" d="M36.04,13.39h.59v-1.89c0-.3.07-.5.17-.61.11-.11.22-.16.34-.15.04,0,.07,0,.1,0,.03,0,.06.01.08.02v-.67h0c-.22.02-.39.1-.5.22-.11.13-.18.27-.21.42h-.01v-.59h-.56v3.24Z"/>
      <path class="cls-1" d="M37.79,13.39h.59v-3.24h-.59v3.24ZM37.71,9.41c0,.11.04.2.11.27.07.07.16.11.27.11.11,0,.2-.04.27-.11.07-.07.11-.16.11-.27,0-.1-.04-.19-.11-.26-.07-.07-.16-.11-.27-.11-.11,0-.19.04-.27.11-.07.07-.11.16-.11.26"/>
      <path class="cls-1" d="M39.03,13.39h.59v-2.16c0-.16.03-.3.09-.41.06-.11.16-.17.3-.17.12,0,.2.05.25.14.05.09.07.2.07.33v2.27h.59v-2.16c0-.16.03-.3.09-.41.06-.11.16-.17.3-.17.12,0,.2.05.25.14.05.09.07.2.07.33v2.27h.59v-2.59c0-.21-.06-.38-.17-.5-.11-.13-.28-.19-.48-.2-.22,0-.38.07-.49.18-.11.11-.18.23-.22.36h-.01c-.05-.17-.12-.3-.21-.39-.09-.09-.21-.14-.37-.14-.15,0-.28.05-.39.14-.11.09-.19.23-.26.4h-.01v-.49h-.56v3.24Z"/>
      <path class="cls-1" d="M44.63,13.39v-2.44c0-.3-.08-.52-.24-.65-.16-.13-.38-.2-.66-.2-.24,0-.44.05-.6.16-.17.11-.28.31-.33.6l.52.14c.01-.14.05-.24.11-.31.06-.07.15-.1.27-.1.14,0,.23.04.29.11.06.07.08.16.08.27v.42h-.22c-.4,0-.69.08-.88.25-.18.17-.27.47-.27.89,0,.26.04.45.12.59.08.13.17.22.27.26.1.04.2.07.28.06.15,0,.28-.04.39-.12.11-.08.21-.22.29-.41h.01v.47h.56ZM43.3,12.46c0-.16.02-.31.1-.43.08-.12.25-.19.52-.2h.15v.43c0,.24-.06.42-.16.53-.1.11-.2.17-.3.17-.13,0-.21-.05-.26-.14-.04-.09-.06-.21-.06-.36"/>
      <path class="cls-1" d="M46.25,10.15h-.32v-.81h-.59v.81h-.32v.52h.32v2.13c0,.2.06.35.17.44.11.09.26.14.45.14.04,0,.09,0,.14,0s.1-.01.14-.02v-.52h-.07c-.08,0-.14-.02-.18-.07-.04-.04-.06-.11-.06-.19v-1.91h.32v-.52Z"/>
      <path class="cls-1" d="M47.22,11.39c0-.2.02-.38.08-.54.06-.16.16-.24.32-.25.16,0,.26.09.33.25.06.16.09.34.09.54h-.82ZM48.59,11.83v-.46c0-.41-.09-.72-.26-.94-.17-.22-.4-.33-.7-.33-.32,0-.57.12-.74.38-.18.26-.27.66-.27,1.21,0,.64.08,1.09.24,1.36.16.27.41.4.76.4.21,0,.38-.05.51-.15.13-.1.23-.23.3-.39.07-.16.1-.33.1-.52h-.53c0,.13-.03.25-.09.38-.05.12-.15.19-.28.2-.13,0-.22-.06-.28-.16-.06-.1-.1-.24-.12-.41-.02-.17-.03-.35-.03-.55h1.38Z"/>
    </g>
  </g>
</svg>