<?xml version="1.0" encoding="UTF-8"?>
<svg id="Layer_2" data-name="Layer 2" xmlns="http://www.w3.org/2000/svg" viewBox="0 0 10.99 7.7">
  <defs>
    <style>
      .cls-1 {
        fill: #728963;
        stroke-width: 0px;
      }
    </style>
  </defs>
  <g id="Layer_1-2" data-name="Layer 1">
    <path class="cls-1" d="M10.76,1.2c-.13-.47-.5-.84-.97-.97-.86-.24-4.3-.24-4.3-.24,0,0-3.44,0-4.3.23-.46.13-.84.51-.97.98-.23.86-.23,2.64-.23,2.64,0,0,0,1.79.23,2.64.13.47.5.84.97.97.87.24,4.3.24,4.3.24,0,0,3.44,0,4.3-.23.47-.13.84-.5.97-.97.23-.86.23-2.64.23-2.64,0,0,0-1.79-.23-2.65ZM4.4,5.5v-3.3l2.86,1.65-2.86,1.65Z"/>
  </g>
</svg>